<svg version="1.1" id="Layer_1" xmlns="http://www.w3.org/2000/svg" xmlns:xlink="http://www.w3.org/1999/xlink" x="0px" y="0px"
	 width="100%" viewBox="0 0 4863 1621" enable-background="new 0 0 4863 1621" xml:space="preserve">
<path fill="#000000" opacity="1.000000" stroke="none" 
	d="
M3198.000000,1624.000000 
	C2132.000244,1624.000000 1067.000366,1624.000000 2.000429,1624.000000 
	C2.000286,1083.333618 2.000286,542.667236 2.000143,2.000647 
	C1623.332642,2.000431 3244.665283,2.000431 4865.998535,2.000216 
	C4865.999023,542.665955 4865.999023,1083.331909 4865.999512,1623.999023 
	C4310.333496,1624.000000 3754.666748,1624.000000 3198.000000,1624.000000 
M283.701202,997.530884 
	C284.583527,1001.755310 285.462646,1005.980347 286.348816,1010.203979 
	C288.188812,1018.973755 288.188934,1018.971252 280.814606,1023.622681 
	C232.502563,1054.096436 188.690292,1090.122314 149.081146,1131.210449 
	C134.451065,1146.386719 122.804230,1163.819824 115.007935,1183.504028 
	C110.359550,1195.240479 106.311852,1207.312256 109.050415,1220.301880 
	C113.331177,1240.606567 126.113556,1254.474121 143.669464,1264.137695 
	C166.844025,1276.894287 192.460892,1281.972046 218.350143,1282.930054 
	C249.237579,1284.072998 280.342255,1283.942383 311.141998,1281.596069 
	C343.485016,1279.132202 375.665833,1273.938477 407.736115,1268.804688 
	C419.803986,1266.872925 429.875183,1266.183472 436.420441,1278.534912 
	C437.017578,1279.661743 438.261047,1280.443481 439.194702,1281.395020 
	C462.036560,1304.671021 485.385651,1327.401978 510.284515,1348.507202 
	C563.335083,1393.475098 621.217590,1430.883423 684.974304,1458.745361 
	C728.873413,1477.929443 774.257690,1493.074585 821.455505,1501.775269 
	C847.833374,1506.638062 874.481018,1510.599854 901.184509,1512.958008 
	C923.011963,1514.885376 945.102966,1513.792603 967.076050,1514.113525 
	C1007.482178,1514.703613 1047.240845,1509.239258 1086.608887,1500.810303 
	C1148.403687,1487.579468 1207.057251,1465.719971 1262.687866,1435.697632 
	C1311.512695,1409.348389 1355.995850,1377.005615 1396.216553,1338.867065 
	C1434.997559,1302.094116 1469.118164,1261.457764 1497.896851,1216.271851 
	C1519.366211,1182.562622 1538.431396,1147.688110 1554.199707,1110.973511 
	C1573.254028,1066.608032 1588.006958,1021.031494 1596.831787,973.402649 
	C1603.537964,937.207886 1608.865967,900.848877 1611.385254,864.231934 
	C1614.307617,821.756775 1613.093384,779.146973 1607.530762,736.864929 
	C1600.858276,686.146912 1589.289673,636.457336 1573.204712,587.896301 
	C1561.897461,553.759155 1546.311768,521.449280 1529.838013,489.534912 
	C1510.875854,452.800140 1488.433716,418.335510 1463.377930,385.518036 
	C1437.250488,351.297119 1407.268799,320.737610 1375.125977,292.188416 
	C1336.146240,257.566650 1293.030396,228.998245 1246.932617,204.934189 
	C1195.446533,178.057236 1140.908203,159.345779 1084.410400,146.250168 
	C1042.245728,136.476791 999.360596,131.972168 956.213379,130.254074 
	C938.973999,129.567627 921.651245,130.726242 904.374207,131.286621 
	C867.445312,132.484436 831.129456,138.244354 795.011108,145.780472 
	C704.277344,164.712143 621.599915,201.912094 546.002014,255.168732 
	C508.958405,281.264923 475.278259,311.233795 443.958405,344.007538 
	C416.789612,372.437469 391.950165,402.688049 370.308075,435.451263 
	C340.002350,481.330048 314.663177,529.841248 296.209747,581.745789 
	C282.503540,620.297668 271.902466,659.685242 265.808167,700.212769 
	C261.566406,728.420654 259.004974,756.737976 258.137390,785.286804 
	C257.207336,815.892273 258.952637,846.284546 261.423950,876.756775 
	C264.709686,917.270630 273.192322,956.720581 283.701202,997.530884 
M3021.678711,660.999878 
	C3021.678711,646.675781 3021.841553,632.348389 3021.547119,618.030273 
	C3021.484863,615.002258 3020.592773,611.219421 3018.641113,609.133362 
	C3009.348633,599.201721 2999.442139,589.847717 2990.000732,580.050659 
	C2986.033203,575.933960 2981.594727,574.058105 2975.912109,574.022888 
	C2956.944336,573.905579 2937.978027,573.353821 2919.010498,573.308350 
	C2872.041016,573.195679 2825.070801,573.221436 2778.101074,573.309631 
	C2767.571533,573.329346 2757.042725,573.832275 2746.631348,574.109558 
	C2744.700928,588.248169 2745.295166,895.708923 2747.322510,903.299316 
	C2750.459961,903.299316 2753.750488,903.299377 2757.040771,903.299377 
	C2789.353271,903.299377 2821.666504,903.446350 2853.978027,903.264282 
	C2900.569824,903.001709 2947.160400,902.409912 2993.752197,902.236572 
	C2998.547852,902.218689 3002.140381,900.610779 3005.256104,897.620239 
	C3013.385010,889.817871 3021.097656,881.572144 3029.394043,873.958313 
	C3034.562500,869.215454 3035.828369,863.765869 3035.780762,857.073914 
	C3035.553223,825.096130 3035.678711,793.115845 3035.678711,761.136414 
	C3035.678711,758.205383 3035.678711,755.274353 3035.678711,753.582642 
	C3025.483887,743.671326 3016.298340,734.741455 3006.851074,725.557007 
	C3010.146484,720.978577 3012.320068,717.211853 3015.208008,714.110474 
	C3020.325684,708.614563 3022.099609,702.407959 3021.791260,694.974487 
	C3021.349854,684.333069 3021.678711,673.659546 3021.678711,660.999878 
M1902.765503,574.072144 
	C1884.101685,574.072144 1865.430664,574.368896 1846.778320,573.906128 
	C1840.514160,573.750732 1835.679321,575.494385 1831.693604,579.888794 
	C1822.785522,589.710510 1814.051147,599.689575 1805.192749,609.556763 
	C1801.436035,613.741150 1800.160034,618.482361 1800.211304,624.139954 
	C1800.441528,649.467346 1800.311401,674.797974 1800.311401,700.127441 
	C1800.311401,751.119629 1800.387695,802.112061 1800.218384,853.103699 
	C1800.196411,859.754272 1801.205200,865.184326 1806.460571,870.059753 
	C1814.740234,877.741150 1822.766602,885.827637 1829.927368,894.542053 
	C1835.869385,901.773682 1842.815063,903.517334 1851.647949,903.449097 
	C1891.972656,903.137634 1932.301147,903.312378 1972.628296,903.312378 
	C2003.956909,903.312378 2035.285400,903.316162 2066.614014,903.307190 
	C2070.221191,903.306152 2073.708008,903.699097 2076.715820,900.509521 
	C2086.995117,889.609009 2097.494629,878.913940 2108.012451,868.241455 
	C2111.075195,865.133728 2111.756592,861.578979 2111.752197,857.374390 
	C2111.666260,778.053223 2111.650635,698.731995 2111.778076,619.410950 
	C2111.786377,614.385498 2110.337158,610.511292 2106.899170,606.997131 
	C2099.224609,599.153015 2091.138428,591.614136 2084.279297,583.097839 
	C2077.622559,574.832947 2069.394531,573.096619 2059.612549,573.179749 
	C2007.974976,573.618652 1956.335083,573.800842 1902.765503,574.072144 
M2309.162109,573.271179 
	C2300.273926,573.515442 2291.385742,573.759766 2281.422852,574.033569 
	C2281.422852,683.770264 2281.422852,792.715515 2281.422852,902.495422 
	C2293.917236,904.127686 2306.730225,903.031799 2320.482422,903.237854 
	C2320.482422,854.479187 2320.482422,806.670227 2320.482422,759.229248 
	C2322.019287,758.649475 2322.614014,758.225647 2323.205322,758.230652 
	C2363.119873,758.567322 2403.033691,758.971313 2442.948730,759.254272 
	C2446.818604,759.281738 2448.891113,760.874084 2450.577637,764.293213 
	C2464.987793,793.508362 2479.670410,822.589539 2494.043701,851.822632 
	C2502.378906,868.774536 2510.295898,885.932251 2518.544434,903.299377 
	C2525.985107,903.299377 2533.283936,903.324768 2540.582764,903.292175 
	C2547.707764,903.260315 2554.832520,903.169312 2563.340088,903.091675 
	C2540.456787,854.143494 2516.120117,807.928894 2493.809570,760.397949 
	C2502.202881,756.613953 2509.645020,758.906738 2516.778564,758.010742 
	C2520.227051,757.577576 2524.503174,757.201416 2526.777344,755.066223 
	C2537.454834,745.041931 2547.631836,734.477966 2557.836426,723.959961 
	C2560.353027,721.365906 2561.829590,718.345764 2561.801758,714.228882 
	C2561.580322,681.576599 2561.596924,648.921631 2561.781982,616.268921 
	C2561.804932,612.196899 2560.437012,609.429077 2557.682617,606.732544 
	C2548.875000,598.109863 2540.171875,589.379211 2531.512207,580.607361 
	C2526.396484,575.425293 2520.791504,573.026978 2513.041992,573.067566 
	C2445.736816,573.420593 2378.429443,573.271118 2309.162109,573.271179 
M4423.032715,612.107788 
	C4442.274414,611.842163 4461.515625,611.405334 4480.757812,611.346741 
	C4520.071289,611.227112 4559.386230,611.320374 4598.700195,611.294678 
	C4602.234375,611.292358 4605.768066,611.062439 4609.128418,610.944336 
	C4609.128418,597.939697 4609.128418,586.079102 4609.128418,573.801758 
	C4605.990723,573.598267 4603.379883,573.273376 4600.770508,573.282410 
	C4530.492188,573.525024 4460.214355,573.792542 4389.936035,574.109863 
	C4387.307617,574.121704 4384.685547,574.876587 4382.052734,574.931946 
	C4377.397949,575.029907 4373.856934,577.086060 4370.727051,580.359985 
	C4361.297852,590.225037 4351.930176,600.157654 4342.220703,609.741821 
	C4339.018555,612.902771 4338.184082,616.222961 4338.264648,620.421448 
	C4338.800781,648.348755 4339.221680,676.278381 4339.622559,704.208069 
	C4339.687500,708.715088 4341.014648,712.431152 4344.309570,715.736572 
	C4354.646484,726.105713 4364.636230,736.823242 4375.080078,747.080200 
	C4376.924805,748.891785 4380.283203,749.903992 4382.981934,749.985596 
	C4403.586914,750.608826 4424.200195,751.063049 4444.813965,751.277344 
	C4481.780762,751.661743 4518.750488,751.775879 4555.717773,752.148132 
	C4566.327148,752.254944 4576.128418,761.718689 4576.234863,772.269470 
	C4576.473633,795.868591 4576.397949,819.472534 4576.188477,843.072144 
	C4576.164062,845.871582 4575.216797,849.237732 4573.483398,851.340942 
	C4567.945312,858.062073 4561.866211,864.201782 4551.928223,863.629028 
	C4547.629883,863.381348 4543.288086,864.048767 4538.965820,864.050903 
	C4474.997070,864.082947 4411.028320,864.072998 4347.059570,864.072998 
	C4343.487793,864.072998 4339.915527,864.072998 4336.130859,864.072998 
	C4336.130859,877.164978 4336.130859,889.292603 4336.130859,901.547180 
	C4364.062500,902.141968 4391.509277,902.850769 4418.960449,903.264648 
	C4435.615723,903.515747 4452.277832,903.434753 4468.935547,903.285156 
	C4504.205566,902.968445 4539.474609,902.419434 4574.745117,902.213501 
	C4579.543457,902.185486 4582.886719,900.491516 4586.072266,897.214172 
	C4594.662598,888.376892 4603.208496,879.473206 4612.238281,871.098145 
	C4616.570801,867.079651 4617.851074,862.847961 4617.808105,857.125122 
	C4617.562012,824.476257 4617.451172,791.821472 4617.883301,759.176392 
	C4617.972656,752.456726 4615.688477,747.725464 4611.273438,743.434143 
	C4601.724609,734.153625 4591.931152,725.114380 4582.646973,715.578369 
	C4578.563477,711.384094 4574.246094,709.938904 4568.518555,709.971375 
	C4532.870117,710.173096 4497.220215,709.940430 4461.571777,710.125610 
	C4441.961914,710.227478 4422.356934,710.956360 4402.747070,711.166321 
	C4399.582031,711.200195 4395.767578,710.904663 4393.343262,709.206177 
	C4384.156250,702.769836 4376.034668,695.408447 4378.291992,682.327148 
	C4378.738281,679.738892 4378.371582,677.007446 4378.354004,674.342224 
	C4378.274902,662.035645 4377.709473,649.708801 4378.229980,637.427856 
	C4378.805176,623.841003 4391.697266,612.150879 4405.055176,612.110413 
	C4410.385742,612.094299 4415.716797,612.107788 4423.032715,612.107788 
M3920.342773,627.000122 
	C3920.342773,609.502258 3920.342773,592.004395 3920.342773,574.114807 
	C3906.215088,574.124756 3893.430664,573.956238 3880.326416,574.214233 
	C3880.326416,579.253906 3880.326172,582.896118 3880.326172,586.538330 
	C3880.326172,648.847656 3880.326172,711.157043 3880.326172,773.466370 
	C3880.326172,800.455994 3880.398682,827.445984 3880.263672,854.434937 
	C3880.237549,859.644775 3881.039062,864.271484 3884.876221,868.077637 
	C3894.300537,877.425781 3903.832275,886.673462 3913.008545,896.260376 
	C3917.309570,900.753479 3922.198975,902.168335 3928.195557,902.159119 
	C3993.836914,902.058533 4059.478271,902.062866 4125.119629,902.167236 
	C4129.750000,902.174561 4133.408203,901.144714 4136.639648,897.637207 
	C4144.296387,889.326355 4152.058105,881.097717 4160.090332,873.151489 
	C4166.154297,867.152039 4168.533691,860.439270 4168.507324,851.752258 
	C4168.238281,762.454102 4168.342773,673.154785 4168.342773,583.855835 
	C4168.342773,580.584961 4168.342285,577.314087 4168.342285,573.928467 
	C4155.068848,573.928467 4142.614746,573.928467 4129.657715,573.928467 
	C4129.657715,578.215088 4129.657227,581.854065 4129.657227,585.492981 
	C4129.657227,666.795044 4129.413574,748.098572 4129.925293,829.397400 
	C4130.000000,841.321411 4127.943848,850.458496 4117.856445,857.700867 
	C4113.338379,860.944519 4109.460449,863.369202 4103.683594,863.379761 
	C4053.720703,863.470886 4003.758057,863.832214 3953.795166,864.049255 
	C3950.150879,864.065125 3946.487061,863.727844 3942.861572,863.305237 
	C3929.570068,861.755859 3920.350342,851.341064 3920.348145,837.919861 
	C3920.336670,768.279968 3920.342773,698.640137 3920.342773,627.000122 
M3590.350342,835.005127 
	C3590.350342,760.848633 3590.350342,686.692200 3590.350342,612.179810 
	C3631.515869,611.865051 3671.338379,612.774231 3711.237305,610.647339 
	C3711.237305,598.115173 3711.237305,586.574768 3711.237305,574.822327 
	C3617.434814,574.822327 3524.078613,574.822327 3430.770020,574.822327 
	C3430.770020,587.118774 3430.770020,598.664917 3430.770020,611.068970 
	C3470.584473,613.207764 3510.057861,611.394470 3550.317871,612.361267 
	C3550.317871,616.485046 3550.317871,620.064880 3550.317871,623.644714 
	C3550.317871,698.286133 3550.293457,772.927612 3550.365234,847.568970 
	C3550.370850,853.488342 3551.278076,859.404053 3551.354980,865.326721 
	C3551.516357,877.758545 3551.404053,890.193848 3551.404053,903.046936 
	C3565.030029,903.449219 3577.155518,903.314575 3590.340820,903.225830 
	C3590.340820,880.197205 3590.340820,858.601868 3590.350342,835.005127 
M3257.695068,657.000122 
	C3257.695068,629.488831 3257.695068,601.977600 3257.695068,574.779297 
	C3243.484619,574.779297 3230.674561,574.779297 3217.837158,574.779297 
	C3214.827148,684.244019 3217.006104,792.999878 3216.221191,901.449219 
	C3230.857422,901.449219 3244.027832,901.449219 3257.695068,901.449219 
	C3257.695068,820.190613 3257.695068,739.595337 3257.695068,657.000122 
M3807.018066,1003.257935 
	C3797.555664,1003.571167 3788.017090,1002.561951 3778.844727,1003.872803 
	C3778.844727,1055.728394 3778.844727,1106.567871 3778.844727,1157.249756 
	C3779.979980,1157.619141 3780.587646,1157.989136 3781.195801,1157.990112 
	C3818.170654,1158.048462 3855.146240,1158.207764 3892.119873,1158.023926 
	C3902.646973,1157.971680 3914.171143,1145.720337 3914.318115,1135.056763 
	C3914.487793,1122.733398 3914.013184,1110.392578 3914.491455,1098.085571 
	C3914.763672,1091.083374 3912.296631,1085.929932 3907.177734,1081.615967 
	C3905.430420,1080.143188 3903.787109,1078.547241 3903.437012,1078.228638 
	C3904.539062,1070.419189 3905.905029,1063.999512 3906.245605,1057.525879 
	C3906.699951,1048.888550 3906.435059,1040.208374 3906.340820,1031.548218 
	C3906.168945,1015.755920 3893.736816,1003.328247 3877.969727,1003.276978 
	C3854.984375,1003.202271 3831.998291,1003.257935 3807.018066,1003.257935 
M3713.582764,1003.526794 
	C3682.614502,1003.707642 3651.646240,1003.875244 3620.678223,1004.107239 
	C3619.074463,1004.119263 3617.125488,1004.198608 3615.928467,1005.064453 
	C3605.718262,1012.449890 3595.246582,1019.213501 3595.487061,1034.482666 
	C3596.000977,1067.136230 3595.503174,1099.804443 3595.712646,1132.464722 
	C3595.785645,1143.863159 3607.299316,1156.895874 3618.525879,1157.800659 
	C3632.088379,1158.893555 3645.740234,1159.117798 3659.357178,1159.213867 
	C3668.973877,1159.281738 3678.593506,1158.340576 3688.217773,1158.160156 
	C3698.878906,1157.960327 3709.552246,1158.325073 3720.210449,1158.053467 
	C3730.698730,1157.786011 3742.937500,1145.001465 3743.089600,1134.522339 
	C3743.329590,1117.947632 3743.573730,1101.372437 3743.674316,1084.796509 
	C3743.773193,1068.466309 3743.852295,1052.132935 3743.654053,1035.804565 
	C3743.433594,1017.623108 3731.572021,1004.468384 3713.582764,1003.526794 
M3997.061279,1003.255615 
	C3991.063477,1003.257812 3985.027588,1002.843384 3979.078613,1003.383911 
	C3973.558105,1003.885437 3967.490967,1004.207275 3962.786621,1006.713989 
	C3950.942871,1013.024902 3944.091553,1022.893555 3944.227295,1037.146729 
	C3944.502930,1066.133667 3944.340576,1095.125122 3944.293701,1124.114624 
	C3944.275879,1135.220459 3947.655518,1144.642456 3956.004883,1152.470093 
	C3960.207764,1156.410645 3964.281250,1158.264404 3970.075439,1158.222656 
	C4002.395508,1157.989014 4034.721191,1157.878662 4067.037109,1158.306030 
	C4073.486084,1158.391357 4077.597656,1156.122437 4081.556396,1151.683716 
	C4092.281250,1139.657959 4092.360107,1139.728394 4092.360107,1123.404053 
	C4092.360107,1094.081299 4091.881592,1064.746582 4092.615234,1035.442139 
	C4092.878418,1024.932983 4088.965332,1017.694702 4081.612793,1011.290161 
	C4077.072510,1007.335144 4072.772461,1003.872620 4065.954102,1003.915649 
	C4043.652588,1004.056702 4021.346680,1003.527344 3997.061279,1003.255615 
M3526.270264,1108.913208 
	C3534.346191,1125.215698 3542.422119,1141.518188 3550.493896,1157.812500 
	C3554.287842,1158.060059 3557.986084,1157.981567 3561.554688,1158.624146 
	C3565.137695,1159.269409 3568.561035,1160.456787 3571.515137,1156.890869 
	C3561.210938,1135.398926 3550.959717,1114.017822 3540.511719,1092.225830 
	C3543.867188,1091.528442 3546.127930,1091.097656 3548.370117,1090.586304 
	C3563.418701,1087.154297 3571.643066,1076.927856 3571.683105,1061.557251 
	C3571.712646,1050.225220 3571.715332,1038.892822 3571.666504,1027.560913 
	C3571.656494,1025.263916 3572.279297,1022.068787 3571.051270,1020.818787 
	C3563.320557,1012.947693 3557.114746,1002.993225 3543.741943,1003.143738 
	C3512.082520,1003.500305 3480.416748,1003.246033 3448.753418,1003.281494 
	C3446.146240,1003.284424 3443.539551,1003.612366 3440.304688,1003.831970 
	C3440.304688,1055.394531 3440.304688,1106.502197 3440.304688,1158.108643 
	C3443.759766,1158.108643 3446.718262,1158.168213 3449.673096,1158.091675 
	C3452.528076,1158.017700 3455.378906,1157.803589 3458.735352,1157.624268 
	C3458.735352,1135.465332 3458.735352,1114.226074 3458.735352,1092.154175 
	C3479.115479,1092.699219 3498.913574,1093.228760 3518.638184,1093.756348 
	C3521.175293,1098.680176 3523.447510,1103.089966 3526.270264,1108.913208 
M4514.437988,1085.797729 
	C4528.709473,1086.303467 4542.977539,1086.956177 4557.253418,1087.267334 
	C4568.241699,1087.506958 4579.245117,1087.092407 4590.231445,1087.380737 
	C4601.493164,1087.676392 4605.741211,1092.002319 4606.246094,1103.281372 
	C4606.513672,1109.265869 4606.500000,1115.280396 4606.255859,1121.266724 
	C4605.593750,1137.496094 4597.951172,1139.575684 4587.118652,1139.402588 
	C4559.476074,1138.960938 4531.820801,1139.255493 4504.170898,1139.255493 
	C4500.896973,1139.255493 4497.623535,1139.255615 4494.180176,1139.255615 
	C4494.180176,1145.916016 4494.180176,1151.728882 4494.180176,1157.368042 
	C4495.331543,1157.704224 4495.944336,1158.039062 4496.556641,1158.039673 
	C4531.868652,1158.080566 4567.180664,1158.177856 4602.492188,1158.058716 
	C4613.227539,1158.022461 4625.306152,1145.811279 4625.648438,1134.862915 
	C4626.053223,1121.890747 4626.296875,1108.908569 4626.315918,1095.930298 
	C4626.336426,1081.839600 4612.445801,1068.139038 4598.230957,1068.090454 
	C4575.911133,1068.014282 4553.590820,1068.093262 4531.270996,1068.059570 
	C4521.919434,1068.045410 4515.622559,1062.820190 4514.448242,1053.605591 
	C4513.778320,1048.351440 4513.582520,1042.973755 4513.819824,1037.680664 
	C4514.302734,1026.913818 4517.819336,1023.540100 4528.623047,1023.348022 
	C4556.481445,1022.852722 4584.342773,1022.507812 4612.202637,1022.116638 
	C4615.475586,1022.070679 4618.750000,1022.110413 4622.673340,1022.110413 
	C4622.291016,1015.564941 4621.953125,1009.785217 4621.579102,1003.382446 
	C4586.849121,1003.382446 4552.905762,1002.907715 4518.987793,1003.625244 
	C4506.127441,1003.897400 4494.362793,1018.690735 4494.314453,1031.757202 
	C4494.283203,1040.085449 4494.682617,1048.434570 4494.225586,1056.737793 
	C4493.441406,1070.985962 4501.094727,1079.395752 4514.437988,1085.797729 
M4331.657715,1102.997803 
	C4331.657715,1112.661499 4331.483398,1122.329224 4331.701660,1131.988037 
	C4331.977051,1144.198853 4346.218262,1158.053955 4358.427734,1158.076050 
	C4391.084473,1158.135010 4423.740723,1158.111328 4456.397461,1158.061523 
	C4458.597656,1158.058228 4460.797363,1157.562744 4463.223633,1157.268555 
	C4463.223633,1151.135376 4463.223633,1145.624512 4463.223633,1139.277466 
	C4459.173340,1139.277466 4455.553711,1139.277466 4451.934082,1139.277466 
	C4424.608887,1139.277344 4397.281738,1139.493774 4369.959961,1139.189087 
	C4355.482910,1139.027710 4352.728027,1134.825684 4352.515137,1123.036499 
	C4351.992188,1094.054810 4352.380859,1065.057129 4352.305176,1036.066284 
	C4352.293945,1031.638184 4354.073730,1028.492676 4357.604004,1025.984863 
	C4361.846680,1022.971130 4366.399902,1021.965454 4371.630859,1022.002991 
	C4399.287598,1022.201599 4426.946777,1022.111145 4454.604980,1022.071289 
	C4457.139648,1022.067627 4459.674316,1021.713074 4461.909180,1021.544128 
	C4461.909180,1015.174561 4461.909180,1009.581970 4461.909180,1003.973022 
	C4460.532227,1003.696899 4459.567871,1003.335632 4458.603027,1003.334351 
	C4427.945801,1003.294434 4397.285156,1003.563049 4366.633789,1003.140076 
	C4354.854980,1002.977539 4346.445801,1008.362244 4338.816406,1016.264343 
	C4334.006836,1021.246277 4331.394043,1026.718994 4331.519043,1034.021362 
	C4331.900879,1056.341431 4331.657715,1078.671997 4331.657715,1102.997803 
M4199.000488,1003.255615 
	C4172.792969,1003.255615 4146.585938,1003.255615 4120.022461,1003.255615 
	C4120.022461,1010.206787 4120.022461,1015.731445 4120.022461,1022.188782 
	C4139.151367,1022.188782 4157.974121,1022.188782 4177.714844,1022.188782 
	C4177.714844,1067.903442 4177.714844,1112.699341 4177.714844,1157.360840 
	C4184.781250,1157.360840 4190.873047,1157.360840 4197.789062,1157.360840 
	C4197.789062,1112.433594 4197.789062,1068.246216 4197.789062,1023.762512 
	C4216.318848,1022.210938 4234.262207,1025.057983 4251.639648,1021.626831 
	C4251.639648,1015.225586 4251.639648,1009.465271 4251.639648,1003.255737 
	C4234.283691,1003.255737 4217.642090,1003.255737 4199.000488,1003.255615 
M4278.304688,1152.489380 
	C4278.339355,1155.100342 4277.771973,1158.094849 4281.891602,1158.093140 
	C4287.127930,1158.091064 4292.363770,1158.092651 4297.964844,1158.092651 
	C4297.964844,1106.223145 4297.964844,1055.171875 4297.964844,1003.736328 
	C4291.471191,1003.736328 4285.284180,1003.736328 4278.303711,1003.736328 
	C4278.303711,1053.002197 4278.303711,1101.784912 4278.304688,1152.489380 
z"/>
<path fill="#FBFBFB" opacity="1.000000" stroke="none" 
	d="
M283.485321,996.731201 
	C273.192322,956.720581 264.709686,917.270630 261.423950,876.756775 
	C258.952637,846.284546 257.207336,815.892273 258.137390,785.286804 
	C259.004974,756.737976 261.566406,728.420654 265.808167,700.212769 
	C271.902466,659.685242 282.503540,620.297668 296.209747,581.745789 
	C314.663177,529.841248 340.002350,481.330048 370.308075,435.451263 
	C391.950165,402.688049 416.789612,372.437469 443.958405,344.007538 
	C475.278259,311.233795 508.958405,281.264923 546.002014,255.168732 
	C621.599915,201.912094 704.277344,164.712143 795.011108,145.780472 
	C831.129456,138.244354 867.445312,132.484436 904.374207,131.286621 
	C921.651245,130.726242 938.973999,129.567627 956.213379,130.254074 
	C999.360596,131.972168 1042.245728,136.476791 1084.410400,146.250168 
	C1140.908203,159.345779 1195.446533,178.057236 1246.932617,204.934189 
	C1293.030396,228.998245 1336.146240,257.566650 1375.125977,292.188416 
	C1407.268799,320.737610 1437.250488,351.297119 1463.377930,385.518036 
	C1488.433716,418.335510 1510.875854,452.800140 1529.838013,489.534912 
	C1546.311768,521.449280 1561.897461,553.759155 1573.204712,587.896301 
	C1589.289673,636.457336 1600.858276,686.146912 1607.530762,736.864929 
	C1613.093384,779.146973 1614.307617,821.756775 1611.385254,864.231934 
	C1608.865967,900.848877 1603.537964,937.207886 1596.831787,973.402649 
	C1588.006958,1021.031494 1573.254028,1066.608032 1554.199707,1110.973511 
	C1538.431396,1147.688110 1519.366211,1182.562622 1497.896851,1216.271851 
	C1469.118164,1261.457764 1434.997559,1302.094116 1396.216553,1338.867065 
	C1355.995850,1377.005615 1311.512695,1409.348389 1262.687866,1435.697632 
	C1207.057251,1465.719971 1148.403687,1487.579468 1086.608887,1500.810303 
	C1047.240845,1509.239258 1007.482178,1514.703613 967.076050,1514.113525 
	C945.102966,1513.792603 923.011963,1514.885376 901.184509,1512.958008 
	C874.481018,1510.599854 847.833374,1506.638062 821.455505,1501.775269 
	C774.257690,1493.074585 728.873413,1477.929443 684.974304,1458.745361 
	C621.217590,1430.883423 563.335083,1393.475098 510.284515,1348.507202 
	C485.385651,1327.401978 462.036560,1304.671021 439.194702,1281.395020 
	C438.261047,1280.443481 437.017578,1279.661743 436.420441,1278.534912 
	C429.875183,1266.183472 419.803986,1266.872925 407.736115,1268.804688 
	C375.665833,1273.938477 343.485016,1279.132202 311.141998,1281.596069 
	C280.342255,1283.942383 249.237579,1284.072998 218.350143,1282.930054 
	C192.460892,1281.972046 166.844025,1276.894287 143.669464,1264.137695 
	C126.113556,1254.474121 113.331177,1240.606567 109.050415,1220.301880 
	C106.311852,1207.312256 110.359550,1195.240479 115.007935,1183.504028 
	C122.804230,1163.819824 134.451065,1146.386719 149.081146,1131.210449 
	C188.690292,1090.122314 232.502563,1054.096436 280.814606,1023.622681 
	C288.188934,1018.971252 288.188812,1018.973755 286.348816,1010.203979 
	C285.462646,1005.980347 284.583527,1001.755310 283.485321,996.731201 
M1469.443726,439.573456 
	C1444.243408,407.225952 1416.078247,377.749146 1384.927979,351.041504 
	C1325.636230,300.205933 1260.239746,259.588654 1187.365601,231.120316 
	C1107.232788,199.816345 1023.928833,185.504089 938.207947,184.235001 
	C921.961365,183.994492 905.628235,184.784546 889.441895,186.266754 
	C852.389221,189.659775 815.779846,195.976578 779.706360,205.181595 
	C692.570129,227.416458 613.271423,265.648102 542.428528,321.255829 
	C505.420715,350.304932 471.187744,382.355286 441.191498,418.502686 
	C374.370117,499.026672 328.903046,590.455017 304.112732,692.203918 
	C293.869263,734.246948 288.650757,776.946045 286.524811,820.018860 
	C285.280823,845.222168 287.071594,870.417358 289.518433,895.589539 
	C293.185028,933.309998 299.606323,970.452148 309.605011,1006.993286 
	C323.153931,1056.509277 340.920502,1104.321655 366.717224,1148.910034 
	C370.146271,1154.837036 373.380585,1160.876709 376.713196,1166.878784 
	C361.711487,1174.370850 360.394562,1174.046875 352.724152,1160.648071 
	C332.401093,1125.147705 314.595032,1088.456543 300.493744,1050.012695 
	C299.054779,1046.089722 297.165344,1042.331787 295.510742,1038.556152 
	C293.417236,1039.228882 292.098297,1039.524292 290.894135,1040.072021 
	C289.386902,1040.757690 287.935425,1041.588745 286.525909,1042.463379 
	C246.431503,1067.344116 210.602829,1097.348267 179.580704,1132.884033 
	C168.434357,1145.652100 158.347336,1159.465942 153.484573,1176.116455 
	C148.029694,1194.794189 153.124268,1209.350220 169.692169,1218.609863 
	C174.015091,1221.025879 178.536926,1223.447388 183.275909,1224.684570 
	C194.179672,1227.531250 205.174820,1230.351807 216.310898,1231.914551 
	C236.675049,1234.772461 257.137451,1235.033569 277.779449,1234.410889 
	C305.394867,1233.577881 332.773132,1231.100952 360.014893,1227.083252 
	C422.200287,1217.911743 483.198425,1203.276123 543.638916,1186.178955 
	C612.121216,1166.806885 679.348267,1143.622070 745.260986,1116.948853 
	C808.605286,1091.315186 871.253845,1063.939209 933.936157,1036.703003 
	C960.685547,1025.080078 986.738342,1011.854919 1013.129639,999.404236 
	C1015.143677,998.454163 1017.333130,997.875854 1020.427856,996.773193 
	C1027.226807,1008.443909 1033.818604,1019.758850 1040.858032,1031.842407 
	C947.561707,1085.811523 850.570496,1128.775269 751.646240,1167.574951 
	C652.743164,1206.366455 551.476318,1237.762939 446.466644,1262.250732 
	C451.274933,1268.011475 454.648621,1272.470947 458.445587,1276.535034 
	C483.964264,1303.848999 512.639832,1327.596069 542.748535,1349.562866 
	C599.915894,1391.271362 662.792114,1421.534912 730.420044,1442.240479 
	C785.300659,1459.043213 841.309021,1469.339478 898.654541,1471.062378 
	C931.508606,1472.049438 964.399658,1471.655640 997.235107,1468.247803 
	C1045.623169,1463.225708 1092.875732,1453.230225 1139.244629,1438.701904 
	C1192.196777,1422.110840 1241.918945,1398.579956 1289.322998,1369.846191 
	C1350.383057,1332.835083 1404.336792,1287.574829 1451.009155,1233.469727 
	C1492.340576,1185.556396 1526.287842,1133.060181 1552.327393,1075.385742 
	C1571.405884,1033.129517 1585.875488,989.414795 1593.570923,943.678772 
	C1597.354614,921.192139 1599.919800,898.470947 1602.214233,875.772827 
	C1604.013794,857.970764 1604.865479,840.052429 1605.514648,822.163208 
	C1605.837646,813.257324 1604.737305,804.301758 1604.326050,795.366638 
	C1604.050903,789.389648 1604.433105,783.320068 1603.527466,777.445068 
	C1598.988403,748.001709 1595.611572,718.274109 1589.093750,689.260254 
	C1568.476440,597.481628 1529.494873,514.181213 1469.443726,439.573456 
z"/>
<path fill="#FCFCFC" opacity="1.000000" stroke="none" 
	d="
M3021.678711,661.999817 
	C3021.678711,673.659546 3021.349854,684.333069 3021.791260,694.974487 
	C3022.099609,702.407959 3020.325684,708.614563 3015.208008,714.110474 
	C3012.320068,717.211853 3010.146484,720.978577 3006.851074,725.557007 
	C3016.298340,734.741455 3025.483887,743.671326 3035.678711,753.582642 
	C3035.678711,755.274353 3035.678711,758.205383 3035.678711,761.136414 
	C3035.678711,793.115845 3035.553223,825.096130 3035.780762,857.073914 
	C3035.828369,863.765869 3034.562500,869.215454 3029.394043,873.958313 
	C3021.097656,881.572144 3013.385010,889.817871 3005.256104,897.620239 
	C3002.140381,900.610779 2998.547852,902.218689 2993.752197,902.236572 
	C2947.160400,902.409912 2900.569824,903.001709 2853.978027,903.264282 
	C2821.666504,903.446350 2789.353271,903.299377 2757.040771,903.299377 
	C2753.750488,903.299377 2750.459961,903.299316 2747.322510,903.299316 
	C2745.295166,895.708923 2744.700928,588.248169 2746.631348,574.109558 
	C2757.042725,573.832275 2767.571533,573.329346 2778.101074,573.309631 
	C2825.070801,573.221436 2872.041016,573.195679 2919.010498,573.308350 
	C2937.978027,573.353821 2956.944336,573.905579 2975.912109,574.022888 
	C2981.594727,574.058105 2986.033203,575.933960 2990.000732,580.050659 
	C2999.442139,589.847717 3009.348633,599.201721 3018.641113,609.133362 
	C3020.592773,611.219421 3021.484863,615.002258 3021.547119,618.030273 
	C3021.841553,632.348389 3021.678711,646.675781 3021.678711,661.999817 
M2973.954102,863.285889 
	C2987.761230,862.503174 2997.597656,852.569397 2997.645508,839.212463 
	C2997.703857,822.927063 2996.864502,806.589355 2997.921143,790.372559 
	C2998.710938,778.250183 2995.275391,769.063232 2985.739746,761.898682 
	C2984.948730,761.304260 2984.243652,760.558716 2983.618164,759.786804 
	C2980.895264,756.426636 2977.435303,755.267273 2973.101807,755.218262 
	C2951.926025,754.979309 2930.754150,754.249451 2909.578613,754.147278 
	C2870.936523,753.960754 2832.292480,754.084473 2793.649414,754.114136 
	C2790.764160,754.116394 2787.878906,754.401550 2784.888184,754.560852 
	C2784.888184,791.393494 2784.888184,827.528809 2784.888184,863.285889 
	C2847.675293,863.285889 2909.913574,863.285889 2973.954102,863.285889 
M2851.000000,612.091248 
	C2829.453125,612.091248 2807.906494,612.091248 2785.930420,612.091248 
	C2785.521484,646.874329 2782.190430,680.702393 2786.500977,715.290894 
	C2790.308350,715.290894 2793.916016,715.314514 2797.523193,715.287354 
	C2850.040039,714.892029 2902.556885,714.425415 2955.074463,714.189087 
	C2960.332275,714.165466 2964.789307,713.356567 2968.360596,709.309326 
	C2973.104004,703.933838 2980.093750,699.920959 2980.164062,691.607300 
	C2980.336182,671.249084 2980.371338,650.887817 2980.163086,630.530884 
	C2980.138672,628.148315 2978.775146,625.294189 2977.120605,623.498962 
	C2970.652832,616.481506 2963.120361,611.895996 2952.886719,611.984009 
	C2919.593262,612.270508 2886.295898,612.091248 2851.000000,612.091248 
z"/>
<path fill="#FAFAFA" opacity="1.000000" stroke="none" 
	d="
M1903.730713,574.072144 
	C1956.335083,573.800842 2007.974976,573.618652 2059.612549,573.179749 
	C2069.394531,573.096619 2077.622559,574.832947 2084.279297,583.097839 
	C2091.138428,591.614136 2099.224609,599.153015 2106.899170,606.997131 
	C2110.337158,610.511292 2111.786377,614.385498 2111.778076,619.410950 
	C2111.650635,698.731995 2111.666260,778.053223 2111.752197,857.374390 
	C2111.756592,861.578979 2111.075195,865.133728 2108.012451,868.241455 
	C2097.494629,878.913940 2086.995117,889.609009 2076.715820,900.509521 
	C2073.708008,903.699097 2070.221191,903.306152 2066.614014,903.307190 
	C2035.285400,903.316162 2003.956909,903.312378 1972.628296,903.312378 
	C1932.301147,903.312378 1891.972656,903.137634 1851.647949,903.449097 
	C1842.815063,903.517334 1835.869385,901.773682 1829.927368,894.542053 
	C1822.766602,885.827637 1814.740234,877.741150 1806.460571,870.059753 
	C1801.205200,865.184326 1800.196411,859.754272 1800.218384,853.103699 
	C1800.387695,802.112061 1800.311401,751.119629 1800.311401,700.127441 
	C1800.311401,674.797974 1800.441528,649.467346 1800.211304,624.139954 
	C1800.160034,618.482361 1801.436035,613.741150 1805.192749,609.556763 
	C1814.051147,599.689575 1822.785522,589.710510 1831.693604,579.888794 
	C1835.679321,575.494385 1840.514160,573.750732 1846.778320,573.906128 
	C1865.430664,574.368896 1884.101685,574.072144 1903.730713,574.072144 
M1967.000000,612.106567 
	C1933.697388,612.106567 1900.394531,612.072327 1867.092163,612.160828 
	C1863.858276,612.169373 1859.714233,611.807129 1857.554565,613.551208 
	C1849.081421,620.393555 1841.309692,627.139709 1841.424683,640.313660 
	C1841.996826,705.914917 1841.683838,771.523743 1841.692993,837.129944 
	C1841.693359,839.790771 1841.574951,842.478638 1841.893188,845.107727 
	C1843.180664,855.744202 1852.664185,864.106934 1863.378662,864.063721 
	C1925.189575,863.814392 1987.000366,863.538025 2048.811279,863.256470 
	C2060.542969,863.203064 2072.274658,851.699951 2072.284912,839.926880 
	C2072.344482,771.989502 2072.356445,704.052063 2072.188477,636.115112 
	C2072.179932,632.714355 2070.930176,628.992371 2069.253174,625.979553 
	C2063.798828,616.180359 2055.611816,611.674255 2043.927124,611.935730 
	C2018.962646,612.494263 1993.976929,612.106628 1967.000000,612.106567 
z"/>
<path fill="#FCFCFC" opacity="1.000000" stroke="none" 
	d="
M2310.142334,573.271179 
	C2378.429443,573.271118 2445.736816,573.420593 2513.041992,573.067566 
	C2520.791504,573.026978 2526.396484,575.425293 2531.512207,580.607361 
	C2540.171875,589.379211 2548.875000,598.109863 2557.682617,606.732544 
	C2560.437012,609.429077 2561.804932,612.196899 2561.781982,616.268921 
	C2561.596924,648.921631 2561.580322,681.576599 2561.801758,714.228882 
	C2561.829590,718.345764 2560.353027,721.365906 2557.836426,723.959961 
	C2547.631836,734.477966 2537.454834,745.041931 2526.777344,755.066223 
	C2524.503174,757.201416 2520.227051,757.577576 2516.778564,758.010742 
	C2509.645020,758.906738 2502.202881,756.613953 2493.809570,760.397949 
	C2516.120117,807.928894 2540.456787,854.143494 2563.340088,903.091675 
	C2554.832520,903.169312 2547.707764,903.260315 2540.582764,903.292175 
	C2533.283936,903.324768 2525.985107,903.299377 2518.544434,903.299377 
	C2510.295898,885.932251 2502.378906,868.774536 2494.043701,851.822632 
	C2479.670410,822.589539 2464.987793,793.508362 2450.577637,764.293213 
	C2448.891113,760.874084 2446.818604,759.281738 2442.948730,759.254272 
	C2403.033691,758.971313 2363.119873,758.567322 2323.205322,758.230652 
	C2322.614014,758.225647 2322.019287,758.649475 2320.482422,759.229248 
	C2320.482422,806.670227 2320.482422,854.479187 2320.482422,903.237854 
	C2306.730225,903.031799 2293.917236,904.127686 2281.422852,902.495422 
	C2281.422852,792.715515 2281.422852,683.770264 2281.422852,574.033569 
	C2291.385742,573.759766 2300.273926,573.515442 2310.142334,573.271179 
M2321.696045,719.728821 
	C2336.010498,719.847290 2350.324951,720.051575 2364.639404,720.067993 
	C2405.279297,720.114502 2445.920654,719.908508 2486.558594,720.189148 
	C2499.081055,720.275635 2510.552490,718.843872 2517.813232,707.170166 
	C2519.817871,703.947510 2522.087891,700.129150 2522.119629,696.565308 
	C2522.308105,675.264526 2521.968018,653.956543 2521.545898,632.656006 
	C2521.490234,629.841919 2520.689209,626.461609 2518.979736,624.366211 
	C2512.942871,616.965820 2505.843018,611.717041 2495.281006,611.955811 
	C2474.305420,612.429993 2453.311035,612.198608 2432.325684,612.069763 
	C2406.771729,611.912903 2381.219482,611.525269 2355.665771,611.310547 
	C2344.138428,611.213745 2332.609619,611.294067 2320.474854,611.294067 
	C2320.474854,647.785645 2320.474854,683.029663 2321.696045,719.728821 
z"/>
<path fill="#FBFBFB" opacity="1.000000" stroke="none" 
	d="
M4422.040039,612.107788 
	C4415.716797,612.107788 4410.385742,612.094299 4405.055176,612.110413 
	C4391.697266,612.150879 4378.805176,623.841003 4378.229980,637.427856 
	C4377.709473,649.708801 4378.274902,662.035645 4378.354004,674.342224 
	C4378.371582,677.007446 4378.738281,679.738892 4378.291992,682.327148 
	C4376.034668,695.408447 4384.156250,702.769836 4393.343262,709.206177 
	C4395.767578,710.904663 4399.582031,711.200195 4402.747070,711.166321 
	C4422.356934,710.956360 4441.961914,710.227478 4461.571777,710.125610 
	C4497.220215,709.940430 4532.870117,710.173096 4568.518555,709.971375 
	C4574.246094,709.938904 4578.563477,711.384094 4582.646973,715.578369 
	C4591.931152,725.114380 4601.724609,734.153625 4611.273438,743.434143 
	C4615.688477,747.725464 4617.972656,752.456726 4617.883301,759.176392 
	C4617.451172,791.821472 4617.562012,824.476257 4617.808105,857.125122 
	C4617.851074,862.847961 4616.570801,867.079651 4612.238281,871.098145 
	C4603.208496,879.473206 4594.662598,888.376892 4586.072266,897.214172 
	C4582.886719,900.491516 4579.543457,902.185486 4574.745117,902.213501 
	C4539.474609,902.419434 4504.205566,902.968445 4468.935547,903.285156 
	C4452.277832,903.434753 4435.615723,903.515747 4418.960449,903.264648 
	C4391.509277,902.850769 4364.062500,902.141968 4336.130859,901.547180 
	C4336.130859,889.292603 4336.130859,877.164978 4336.130859,864.072998 
	C4339.915527,864.072998 4343.487793,864.072998 4347.059570,864.072998 
	C4411.028320,864.072998 4474.997070,864.082947 4538.965820,864.050903 
	C4543.288086,864.048767 4547.629883,863.381348 4551.928223,863.629028 
	C4561.866211,864.201782 4567.945312,858.062073 4573.483398,851.340942 
	C4575.216797,849.237732 4576.164062,845.871582 4576.188477,843.072144 
	C4576.397949,819.472534 4576.473633,795.868591 4576.234863,772.269470 
	C4576.128418,761.718689 4566.327148,752.254944 4555.717773,752.148132 
	C4518.750488,751.775879 4481.780762,751.661743 4444.813965,751.277344 
	C4424.200195,751.063049 4403.586914,750.608826 4382.981934,749.985596 
	C4380.283203,749.903992 4376.924805,748.891785 4375.080078,747.080200 
	C4364.636230,736.823242 4354.646484,726.105713 4344.309570,715.736572 
	C4341.014648,712.431152 4339.687500,708.715088 4339.622559,704.208069 
	C4339.221680,676.278381 4338.800781,648.348755 4338.264648,620.421448 
	C4338.184082,616.222961 4339.018555,612.902771 4342.220703,609.741821 
	C4351.930176,600.157654 4361.297852,590.225037 4370.727051,580.359985 
	C4373.856934,577.086060 4377.397949,575.029907 4382.052734,574.931946 
	C4384.685547,574.876587 4387.307617,574.121704 4389.936035,574.109863 
	C4460.214355,573.792542 4530.492188,573.525024 4600.770508,573.282410 
	C4603.379883,573.273376 4605.990723,573.598267 4609.128418,573.801758 
	C4609.128418,586.079102 4609.128418,597.939697 4609.128418,610.944336 
	C4605.768066,611.062439 4602.234375,611.292358 4598.700195,611.294678 
	C4559.386230,611.320374 4520.071289,611.227112 4480.757812,611.346741 
	C4461.515625,611.405334 4442.274414,611.842163 4422.040039,612.107788 
z"/>
<path fill="#FDFDFD" opacity="1.000000" stroke="none" 
	d="
M3920.342773,628.000183 
	C3920.342773,698.640137 3920.336670,768.279968 3920.348145,837.919861 
	C3920.350342,851.341064 3929.570068,861.755859 3942.861572,863.305237 
	C3946.487061,863.727844 3950.150879,864.065125 3953.795166,864.049255 
	C4003.758057,863.832214 4053.720703,863.470886 4103.683594,863.379761 
	C4109.460449,863.369202 4113.338379,860.944519 4117.856445,857.700867 
	C4127.943848,850.458496 4130.000000,841.321411 4129.925293,829.397400 
	C4129.413574,748.098572 4129.657227,666.795044 4129.657227,585.492981 
	C4129.657227,581.854065 4129.657715,578.215088 4129.657715,573.928467 
	C4142.614746,573.928467 4155.068848,573.928467 4168.342285,573.928467 
	C4168.342285,577.314087 4168.342773,580.584961 4168.342773,583.855835 
	C4168.342773,673.154785 4168.238281,762.454102 4168.507324,851.752258 
	C4168.533691,860.439270 4166.154297,867.152039 4160.090332,873.151489 
	C4152.058105,881.097717 4144.296387,889.326355 4136.639648,897.637207 
	C4133.408203,901.144714 4129.750000,902.174561 4125.119629,902.167236 
	C4059.478271,902.062866 3993.836914,902.058533 3928.195557,902.159119 
	C3922.198975,902.168335 3917.309570,900.753479 3913.008545,896.260376 
	C3903.832275,886.673462 3894.300537,877.425781 3884.876221,868.077637 
	C3881.039062,864.271484 3880.237549,859.644775 3880.263672,854.434937 
	C3880.398682,827.445984 3880.326172,800.455994 3880.326172,773.466370 
	C3880.326172,711.157043 3880.326172,648.847656 3880.326172,586.538330 
	C3880.326172,582.896118 3880.326416,579.253906 3880.326416,574.214233 
	C3893.430664,573.956238 3906.215088,574.124756 3920.342773,574.114807 
	C3920.342773,592.004395 3920.342773,609.502258 3920.342773,628.000183 
z"/>
<path fill="#FBFCFC" opacity="1.000000" stroke="none" 
	d="
M3590.345703,836.005859 
	C3590.340820,858.601868 3590.340820,880.197205 3590.340820,903.225830 
	C3577.155518,903.314575 3565.030029,903.449219 3551.404053,903.046936 
	C3551.404053,890.193848 3551.516357,877.758545 3551.354980,865.326721 
	C3551.278076,859.404053 3550.370850,853.488342 3550.365234,847.568970 
	C3550.293457,772.927612 3550.317871,698.286133 3550.317871,623.644714 
	C3550.317871,620.064880 3550.317871,616.485046 3550.317871,612.361267 
	C3510.057861,611.394470 3470.584473,613.207764 3430.770020,611.068970 
	C3430.770020,598.664917 3430.770020,587.118774 3430.770020,574.822327 
	C3524.078613,574.822327 3617.434814,574.822327 3711.237305,574.822327 
	C3711.237305,586.574768 3711.237305,598.115173 3711.237305,610.647339 
	C3671.338379,612.774231 3631.515869,611.865051 3590.350342,612.179810 
	C3590.350342,686.692200 3590.350342,760.848633 3590.345703,836.005859 
z"/>
<path fill="#F9F9F9" opacity="1.000000" stroke="none" 
	d="
M3257.695068,658.000122 
	C3257.695068,739.595337 3257.695068,820.190613 3257.695068,901.449219 
	C3244.027832,901.449219 3230.857422,901.449219 3216.221191,901.449219 
	C3217.006104,792.999878 3214.827148,684.244019 3217.837158,574.779297 
	C3230.674561,574.779297 3243.484619,574.779297 3257.695068,574.779297 
	C3257.695068,601.977600 3257.695068,629.488831 3257.695068,658.000122 
z"/>
<path fill="#FAFBFB" opacity="1.000000" stroke="none" 
	d="
M3808.015381,1003.257935 
	C3831.998291,1003.257935 3854.984375,1003.202271 3877.969727,1003.276978 
	C3893.736816,1003.328247 3906.168945,1015.755920 3906.340820,1031.548218 
	C3906.435059,1040.208374 3906.699951,1048.888550 3906.245605,1057.525879 
	C3905.905029,1063.999512 3904.539062,1070.419189 3903.437012,1078.228638 
	C3903.787109,1078.547241 3905.430420,1080.143188 3907.177734,1081.615967 
	C3912.296631,1085.929932 3914.763672,1091.083374 3914.491455,1098.085571 
	C3914.013184,1110.392578 3914.487793,1122.733398 3914.318115,1135.056763 
	C3914.171143,1145.720337 3902.646973,1157.971680 3892.119873,1158.023926 
	C3855.146240,1158.207764 3818.170654,1158.048462 3781.195801,1157.990112 
	C3780.587646,1157.989136 3779.979980,1157.619141 3778.844727,1157.249756 
	C3778.844727,1106.567871 3778.844727,1055.728394 3778.844727,1003.872803 
	C3788.017090,1002.561951 3797.555664,1003.571167 3808.015381,1003.257935 
M3843.020020,1140.089478 
	C3856.290283,1139.822876 3869.559814,1139.406250 3882.830811,1139.363770 
	C3888.116699,1139.346802 3892.289062,1137.717407 3893.678711,1132.549194 
	C3896.647949,1121.507812 3896.848145,1110.249023 3894.087646,1099.133057 
	C3892.978760,1094.667847 3889.774414,1091.723511 3884.828857,1091.317505 
	C3879.884277,1090.911621 3874.946289,1090.262817 3869.994629,1090.134521 
	C3855.027344,1089.746460 3840.054932,1089.350342 3825.084961,1089.373901 
	C3816.262451,1089.387817 3807.441162,1090.191406 3798.806152,1090.630371 
	C3798.806152,1107.496704 3798.806152,1123.371216 3798.806152,1140.089478 
	C3813.179199,1140.089478 3827.097168,1140.089478 3843.020020,1140.089478 
M3837.000000,1070.083862 
	C3842.981934,1070.083862 3848.967529,1070.215332 3854.944824,1070.049438 
	C3861.902344,1069.856445 3868.917236,1069.875732 3875.788086,1068.933350 
	C3883.103271,1067.930176 3885.666748,1065.475830 3886.239990,1058.048706 
	C3886.917725,1049.263306 3886.330078,1040.381592 3886.327148,1031.541626 
	C3886.325684,1027.023804 3883.373779,1025.006714 3879.623291,1024.136353 
	C3876.753174,1023.470154 3873.714600,1023.396118 3870.744141,1023.318115 
	C3854.164795,1022.882324 3837.584229,1022.479736 3821.001953,1022.163879 
	C3814.076416,1022.031921 3807.145996,1022.141907 3799.284180,1022.141907 
	C3799.284180,1038.264771 3799.284180,1053.676270 3799.284180,1070.083862 
	C3811.254395,1070.083862 3823.127686,1070.083862 3837.000000,1070.083862 
z"/>
<path fill="#F9F9F9" opacity="1.000000" stroke="none" 
	d="
M3714.434570,1003.721130 
	C3731.572021,1004.468384 3743.433594,1017.623108 3743.654053,1035.804565 
	C3743.852295,1052.132935 3743.773193,1068.466309 3743.674316,1084.796509 
	C3743.573730,1101.372437 3743.329590,1117.947632 3743.089600,1134.522339 
	C3742.937500,1145.001465 3730.698730,1157.786011 3720.210449,1158.053467 
	C3709.552246,1158.325073 3698.878906,1157.960327 3688.217773,1158.160156 
	C3678.593506,1158.340576 3668.973877,1159.281738 3659.357178,1159.213867 
	C3645.740234,1159.117798 3632.088379,1158.893555 3618.525879,1157.800659 
	C3607.299316,1156.895874 3595.785645,1143.863159 3595.712646,1132.464722 
	C3595.503174,1099.804443 3596.000977,1067.136230 3595.487061,1034.482666 
	C3595.246582,1019.213501 3605.718262,1012.449890 3615.928467,1005.064453 
	C3617.125488,1004.198608 3619.074463,1004.119263 3620.678223,1004.107239 
	C3651.646240,1003.875244 3682.614502,1003.707642 3714.434570,1003.721130 
M3657.010986,1139.269897 
	C3674.662598,1139.269775 3692.314453,1139.326904 3709.965820,1139.247559 
	C3720.015137,1139.202515 3722.281006,1136.930542 3722.297852,1126.923096 
	C3722.347168,1097.288696 3722.354736,1067.654297 3722.295898,1038.020020 
	C3722.272461,1026.340698 3719.396484,1023.533569 3707.408203,1023.327820 
	C3697.177734,1023.152283 3686.943115,1023.225769 3676.712646,1023.057129 
	C3661.111084,1022.799866 3645.512695,1022.298767 3629.910400,1022.164917 
	C3622.952637,1022.105225 3615.776611,1028.935791 3615.745850,1035.729126 
	C3615.610840,1065.702881 3615.540039,1095.678955 3615.775879,1125.651489 
	C3615.856689,1135.914185 3619.344727,1138.943115 3630.040039,1139.224365 
	C3638.360352,1139.443359 3646.691406,1139.269165 3657.010986,1139.269897 
z"/>
<path fill="#FAFAFA" opacity="1.000000" stroke="none" 
	d="
M3998.051758,1003.255676 
	C4021.346680,1003.527344 4043.652588,1004.056702 4065.954102,1003.915649 
	C4072.772461,1003.872620 4077.072510,1007.335144 4081.612793,1011.290161 
	C4088.965332,1017.694702 4092.878418,1024.932983 4092.615234,1035.442139 
	C4091.881592,1064.746582 4092.360107,1094.081299 4092.360107,1123.404053 
	C4092.360107,1139.728394 4092.281250,1139.657959 4081.556396,1151.683716 
	C4077.597656,1156.122437 4073.486084,1158.391357 4067.037109,1158.306030 
	C4034.721191,1157.878662 4002.395508,1157.989014 3970.075439,1158.222656 
	C3964.281250,1158.264404 3960.207764,1156.410645 3956.004883,1152.470093 
	C3947.655518,1144.642456 3944.275879,1135.220459 3944.293701,1124.114624 
	C3944.340576,1095.125122 3944.502930,1066.133667 3944.227295,1037.146729 
	C3944.091553,1022.893555 3950.942871,1013.024902 3962.786621,1006.713989 
	C3967.490967,1004.207275 3973.558105,1003.885437 3979.078613,1003.383911 
	C3985.027588,1002.843384 3991.063477,1003.257812 3998.051758,1003.255676 
M4055.645508,1023.296509 
	C4029.514648,1023.296753 4003.383301,1023.233032 3977.252930,1023.335022 
	C3969.061035,1023.367004 3966.734131,1025.359131 3965.047852,1033.380371 
	C3964.441650,1036.263306 3964.383057,1039.297852 3964.374023,1042.264038 
	C3964.317627,1060.902954 3964.345215,1079.542114 3964.345947,1098.181274 
	C3964.346436,1106.835083 3963.895752,1115.519165 3964.469971,1124.134888 
	C3965.130859,1134.055176 3969.285156,1139.853882 3980.633057,1139.510010 
	C4005.240723,1138.764771 4029.886963,1139.332153 4054.516602,1139.223145 
	C4058.121094,1139.207153 4061.831543,1138.830811 4065.298096,1137.896973 
	C4069.908447,1136.655396 4072.366943,1133.429443 4072.353271,1128.341309 
	C4072.271484,1098.053589 4072.489502,1067.763428 4072.167480,1037.478638 
	C4072.055176,1026.937012 4068.272461,1023.898682 4055.645508,1023.296509 
z"/>
<path fill="#FAFAFA" opacity="1.000000" stroke="none" 
	d="
M3525.995117,1108.206543 
	C3523.447510,1103.089966 3521.175293,1098.680176 3518.638184,1093.756348 
	C3498.913574,1093.228760 3479.115479,1092.699219 3458.735352,1092.154175 
	C3458.735352,1114.226074 3458.735352,1135.465332 3458.735352,1157.624268 
	C3455.378906,1157.803589 3452.528076,1158.017700 3449.673096,1158.091675 
	C3446.718262,1158.168213 3443.759766,1158.108643 3440.304688,1158.108643 
	C3440.304688,1106.502197 3440.304688,1055.394531 3440.304688,1003.831970 
	C3443.539551,1003.612366 3446.146240,1003.284424 3448.753418,1003.281494 
	C3480.416748,1003.246033 3512.082520,1003.500305 3543.741943,1003.143738 
	C3557.114746,1002.993225 3563.320557,1012.947693 3571.051270,1020.818787 
	C3572.279297,1022.068787 3571.656494,1025.263916 3571.666504,1027.560913 
	C3571.715332,1038.892822 3571.712646,1050.225220 3571.683105,1061.557251 
	C3571.643066,1076.927856 3563.418701,1087.154297 3548.370117,1090.586304 
	C3546.127930,1091.097656 3543.867188,1091.528442 3540.511719,1092.225830 
	C3550.959717,1114.017822 3561.210938,1135.398926 3571.515137,1156.890869 
	C3568.561035,1160.456787 3565.137695,1159.269409 3561.554688,1158.624146 
	C3557.986084,1157.981567 3554.287842,1158.060059 3550.493896,1157.812500 
	C3542.422119,1141.518188 3534.346191,1125.215698 3525.995117,1108.206543 
M3500.930664,1022.086060 
	C3487.400635,1022.086060 3473.870605,1022.086060 3460.172852,1022.086060 
	C3460.172852,1039.525757 3460.172852,1055.973877 3460.172852,1072.850098 
	C3462.244629,1073.026001 3463.844482,1073.276001 3465.444824,1073.279541 
	C3479.739014,1073.311157 3494.032959,1073.299683 3508.327148,1073.300171 
	C3517.302490,1073.300415 3526.280273,1073.431274 3535.252441,1073.266113 
	C3546.336426,1073.062012 3551.611816,1067.679321 3551.663818,1056.831055 
	C3551.697021,1049.856567 3551.824219,1042.877441 3551.630371,1035.908203 
	C3551.393311,1027.386108 3547.951416,1023.715637 3539.667236,1023.333374 
	C3527.418945,1022.768127 3515.157471,1022.487732 3500.930664,1022.086060 
z"/>
<path fill="#FAFAFA" opacity="1.000000" stroke="none" 
	d="
M4513.637695,1085.551758 
	C4501.094727,1079.395752 4493.441406,1070.985962 4494.225586,1056.737793 
	C4494.682617,1048.434570 4494.283203,1040.085449 4494.314453,1031.757202 
	C4494.362793,1018.690735 4506.127441,1003.897400 4518.987793,1003.625244 
	C4552.905762,1002.907715 4586.849121,1003.382446 4621.579102,1003.382446 
	C4621.953125,1009.785217 4622.291016,1015.564941 4622.673340,1022.110413 
	C4618.750000,1022.110413 4615.475586,1022.070679 4612.202637,1022.116638 
	C4584.342773,1022.507812 4556.481445,1022.852722 4528.623047,1023.348022 
	C4517.819336,1023.540100 4514.302734,1026.913818 4513.819824,1037.680664 
	C4513.582520,1042.973755 4513.778320,1048.351440 4514.448242,1053.605591 
	C4515.622559,1062.820190 4521.919434,1068.045410 4531.270996,1068.059570 
	C4553.590820,1068.093262 4575.911133,1068.014282 4598.230957,1068.090454 
	C4612.445801,1068.139038 4626.336426,1081.839600 4626.315918,1095.930298 
	C4626.296875,1108.908569 4626.053223,1121.890747 4625.648438,1134.862915 
	C4625.306152,1145.811279 4613.227539,1158.022461 4602.492188,1158.058716 
	C4567.180664,1158.177856 4531.868652,1158.080566 4496.556641,1158.039673 
	C4495.944336,1158.039062 4495.331543,1157.704224 4494.180176,1157.368042 
	C4494.180176,1151.728882 4494.180176,1145.916016 4494.180176,1139.255615 
	C4497.623535,1139.255615 4500.896973,1139.255493 4504.170898,1139.255493 
	C4531.820801,1139.255493 4559.476074,1138.960938 4587.118652,1139.402588 
	C4597.951172,1139.575684 4605.593750,1137.496094 4606.255859,1121.266724 
	C4606.500000,1115.280396 4606.513672,1109.265869 4606.246094,1103.281372 
	C4605.741211,1092.002319 4601.493164,1087.676392 4590.231445,1087.380737 
	C4579.245117,1087.092407 4568.241699,1087.506958 4557.253418,1087.267334 
	C4542.977539,1086.956177 4528.709473,1086.303467 4513.637695,1085.551758 
z"/>
<path fill="#FDFDFD" opacity="1.000000" stroke="none" 
	d="
M4331.657715,1101.998169 
	C4331.657715,1078.671997 4331.900879,1056.341431 4331.519043,1034.021362 
	C4331.394043,1026.718994 4334.006836,1021.246277 4338.816406,1016.264343 
	C4346.445801,1008.362244 4354.854980,1002.977539 4366.633789,1003.140076 
	C4397.285156,1003.563049 4427.945801,1003.294434 4458.603027,1003.334351 
	C4459.567871,1003.335632 4460.532227,1003.696899 4461.909180,1003.973022 
	C4461.909180,1009.581970 4461.909180,1015.174561 4461.909180,1021.544128 
	C4459.674316,1021.713074 4457.139648,1022.067627 4454.604980,1022.071289 
	C4426.946777,1022.111145 4399.287598,1022.201599 4371.630859,1022.002991 
	C4366.399902,1021.965454 4361.846680,1022.971130 4357.604004,1025.984863 
	C4354.073730,1028.492676 4352.293945,1031.638184 4352.305176,1036.066284 
	C4352.380859,1065.057129 4351.992188,1094.054810 4352.515137,1123.036499 
	C4352.728027,1134.825684 4355.482910,1139.027710 4369.959961,1139.189087 
	C4397.281738,1139.493774 4424.608887,1139.277344 4451.934082,1139.277466 
	C4455.553711,1139.277466 4459.173340,1139.277466 4463.223633,1139.277466 
	C4463.223633,1145.624512 4463.223633,1151.135376 4463.223633,1157.268555 
	C4460.797363,1157.562744 4458.597656,1158.058228 4456.397461,1158.061523 
	C4423.740723,1158.111328 4391.084473,1158.135010 4358.427734,1158.076050 
	C4346.218262,1158.053955 4331.977051,1144.198853 4331.701660,1131.988037 
	C4331.483398,1122.329224 4331.657715,1112.661499 4331.657715,1101.998169 
z"/>
<path fill="#FAFAFA" opacity="1.000000" stroke="none" 
	d="
M4200.000977,1003.255676 
	C4217.642090,1003.255737 4234.283691,1003.255737 4251.639648,1003.255737 
	C4251.639648,1009.465271 4251.639648,1015.225586 4251.639648,1021.626831 
	C4234.262207,1025.057983 4216.318848,1022.210938 4197.789062,1023.762512 
	C4197.789062,1068.246216 4197.789062,1112.433594 4197.789062,1157.360840 
	C4190.873047,1157.360840 4184.781250,1157.360840 4177.714844,1157.360840 
	C4177.714844,1112.699341 4177.714844,1067.903442 4177.714844,1022.188782 
	C4157.974121,1022.188782 4139.151367,1022.188782 4120.022461,1022.188782 
	C4120.022461,1015.731445 4120.022461,1010.206787 4120.022461,1003.255615 
	C4146.585938,1003.255615 4172.792969,1003.255615 4200.000977,1003.255676 
z"/>
<path fill="#F9F9F9" opacity="1.000000" stroke="none" 
	d="
M4278.304199,1151.528564 
	C4278.303711,1101.784912 4278.303711,1053.002197 4278.303711,1003.736328 
	C4285.284180,1003.736328 4291.471191,1003.736328 4297.964844,1003.736328 
	C4297.964844,1055.171875 4297.964844,1106.223145 4297.964844,1158.092651 
	C4292.363770,1158.092651 4287.127930,1158.091064 4281.891602,1158.093140 
	C4277.771973,1158.094849 4278.339355,1155.100342 4278.304199,1151.528564 
z"/>
<path fill="#000000" opacity="1.000000" stroke="none" 
	d="
M1469.931641,440.094543 
	C1529.494873,514.181213 1568.476440,597.481628 1589.093750,689.260254 
	C1595.611572,718.274109 1598.988403,748.001709 1603.527466,777.445068 
	C1604.433105,783.320068 1604.050903,789.389648 1604.326050,795.366638 
	C1604.737305,804.301758 1605.837646,813.257324 1605.514648,822.163208 
	C1604.865479,840.052429 1604.013794,857.970764 1602.214233,875.772827 
	C1599.919800,898.470947 1597.354614,921.192139 1593.570923,943.678772 
	C1585.875488,989.414795 1571.405884,1033.129517 1552.327393,1075.385742 
	C1526.287842,1133.060181 1492.340576,1185.556396 1451.009155,1233.469727 
	C1404.336792,1287.574829 1350.383057,1332.835083 1289.322998,1369.846191 
	C1241.918945,1398.579956 1192.196777,1422.110840 1139.244629,1438.701904 
	C1092.875732,1453.230225 1045.623169,1463.225708 997.235107,1468.247803 
	C964.399658,1471.655640 931.508606,1472.049438 898.654541,1471.062378 
	C841.309021,1469.339478 785.300659,1459.043213 730.420044,1442.240479 
	C662.792114,1421.534912 599.915894,1391.271362 542.748535,1349.562866 
	C512.639832,1327.596069 483.964264,1303.848999 458.445587,1276.535034 
	C454.648621,1272.470947 451.274933,1268.011475 446.466644,1262.250732 
	C551.476318,1237.762939 652.743164,1206.366455 751.646240,1167.574951 
	C850.570496,1128.775269 947.561707,1085.811523 1040.858032,1031.842407 
	C1033.818604,1019.758850 1027.226807,1008.443909 1020.427856,996.773193 
	C1017.333130,997.875854 1015.143677,998.454163 1013.129639,999.404236 
	C986.738342,1011.854919 960.685547,1025.080078 933.936157,1036.703003 
	C871.253845,1063.939209 808.605286,1091.315186 745.260986,1116.948853 
	C679.348267,1143.622070 612.121216,1166.806885 543.638916,1186.178955 
	C483.198425,1203.276123 422.200287,1217.911743 360.014893,1227.083252 
	C332.773132,1231.100952 305.394867,1233.577881 277.779449,1234.410889 
	C257.137451,1235.033569 236.675049,1234.772461 216.310898,1231.914551 
	C205.174820,1230.351807 194.179672,1227.531250 183.275909,1224.684570 
	C178.536926,1223.447388 174.015091,1221.025879 169.692169,1218.609863 
	C153.124268,1209.350220 148.029694,1194.794189 153.484573,1176.116455 
	C158.347336,1159.465942 168.434357,1145.652100 179.580704,1132.884033 
	C210.602829,1097.348267 246.431503,1067.344116 286.525909,1042.463379 
	C287.935425,1041.588745 289.386902,1040.757690 290.894135,1040.072021 
	C292.098297,1039.524292 293.417236,1039.228882 295.510742,1038.556152 
	C297.165344,1042.331787 299.054779,1046.089722 300.493744,1050.012695 
	C314.595032,1088.456543 332.401093,1125.147705 352.724152,1160.648071 
	C360.394562,1174.046875 361.711487,1174.370850 376.713196,1166.878784 
	C373.380585,1160.876709 370.146271,1154.837036 366.717224,1148.910034 
	C340.920502,1104.321655 323.153931,1056.509277 309.605011,1006.993286 
	C299.606323,970.452148 293.185028,933.309998 289.518433,895.589539 
	C287.071594,870.417358 285.280823,845.222168 286.524811,820.018860 
	C288.650757,776.946045 293.869263,734.246948 304.112732,692.203918 
	C328.903046,590.455017 374.370117,499.026672 441.191498,418.502686 
	C471.187744,382.355286 505.420715,350.304932 542.428528,321.255829 
	C613.271423,265.648102 692.570129,227.416458 779.706360,205.181595 
	C815.779846,195.976578 852.389221,189.659775 889.441895,186.266754 
	C905.628235,184.784546 921.961365,183.994492 938.207947,184.235001 
	C1023.928833,185.504089 1107.232788,199.816345 1187.365601,231.120316 
	C1260.239746,259.588654 1325.636230,300.205933 1384.927979,351.041504 
	C1416.078247,377.749146 1444.243408,407.225952 1469.931641,440.094543 
M1287.615967,871.686829 
	C1287.277222,871.395569 1286.938599,871.104309 1286.949951,869.488831 
	C1293.585571,860.968628 1301.122314,854.088257 1313.028198,855.159119 
	C1313.685913,847.057251 1313.248901,843.611084 1309.353271,842.026611 
	C1298.058716,837.432800 1286.932373,831.881592 1274.210693,839.149231 
	C1266.191040,843.730652 1257.161377,846.532654 1248.620972,850.216736 
	C1233.590210,856.700500 1219.108154,854.479492 1205.873291,846.046753 
	C1196.423096,840.025269 1187.393066,832.992798 1179.342407,825.205078 
	C1165.968994,812.268433 1153.520508,798.374573 1140.705933,784.861511 
	C1129.969971,773.540466 1116.964478,765.632812 1102.479614,760.286011 
	C1086.904663,754.536987 1071.062866,749.515869 1055.412231,743.966370 
	C1025.065430,733.206177 994.745361,722.314331 966.740295,706.113220 
	C956.393188,700.127319 946.505310,693.351868 936.332031,687.059387 
	C932.020203,684.392273 927.888672,680.887390 922.221924,681.567200 
	C920.343384,707.929810 922.776184,718.105225 934.001953,735.469421 
	C942.418335,748.488037 952.784302,759.654236 965.350769,768.577637 
	C992.993774,788.206787 1021.010986,807.309570 1048.626831,826.976318 
	C1075.467896,846.091370 1101.204834,866.584595 1123.652344,890.877197 
	C1128.768555,896.414185 1133.471680,902.333008 1138.957764,908.771606 
	C1134.586182,911.443420 1131.374023,913.753723 1127.874878,915.484314 
	C1113.594116,922.547546 1099.143066,929.270508 1084.926392,936.458191 
	C1078.420654,939.747375 1072.284912,943.777161 1066.036743,947.562561 
	C1063.272827,949.237183 1061.378662,951.496887 1062.923462,954.998901 
	C1069.461060,969.819336 1077.133911,983.923218 1093.341553,990.081299 
	C1106.784058,995.188904 1121.092407,996.399658 1135.365601,997.311646 
	C1140.068848,997.612183 1143.363281,996.027588 1146.348145,992.046082 
	C1154.308838,981.426941 1163.439819,971.646057 1170.931152,960.726257 
	C1177.304443,951.435913 1185.188477,947.025146 1196.272827,945.900635 
	C1210.559326,944.451355 1224.510254,940.504456 1236.943115,933.221985 
	C1243.974243,929.103455 1250.903687,927.813416 1258.700684,928.048950 
	C1287.557495,928.920898 1315.405151,924.100159 1342.770142,914.657959 
	C1371.012085,904.913147 1399.791260,896.731567 1428.291870,887.728149 
	C1440.948486,883.729980 1453.751953,880.020569 1466.031860,875.050781 
	C1481.561646,868.765686 1492.520264,857.718323 1496.736084,840.864502 
	C1497.793579,836.636414 1498.560181,832.623352 1495.410156,827.011902 
	C1492.745972,831.233521 1490.475952,834.275574 1488.787231,837.611877 
	C1483.967773,847.133606 1476.968628,854.020142 1467.285522,858.887024 
	C1455.050049,865.036743 1442.166992,866.913330 1428.827148,867.267761 
	C1392.927979,868.221741 1357.023682,869.012634 1321.130371,870.152161 
	C1310.265503,870.497131 1299.429810,871.769409 1287.615967,871.686829 
z"/>
<path fill="#020101" opacity="1.000000" stroke="none" 
	d="
M2973.052734,863.285889 
	C2909.913574,863.285889 2847.675293,863.285889 2784.888184,863.285889 
	C2784.888184,827.528809 2784.888184,791.393494 2784.888184,754.560852 
	C2787.878906,754.401550 2790.764160,754.116394 2793.649414,754.114136 
	C2832.292480,754.084473 2870.936523,753.960754 2909.578613,754.147278 
	C2930.754150,754.249451 2951.926025,754.979309 2973.101807,755.218262 
	C2977.435303,755.267273 2980.895264,756.426636 2983.618164,759.786804 
	C2984.243652,760.558716 2984.948730,761.304260 2985.739746,761.898682 
	C2995.275391,769.063232 2998.710938,778.250183 2997.921143,790.372559 
	C2996.864502,806.589355 2997.703857,822.927063 2997.645508,839.212463 
	C2997.597656,852.569397 2987.761230,862.503174 2973.052734,863.285889 
z"/>
<path fill="#030202" opacity="1.000000" stroke="none" 
	d="
M2852.000000,612.091248 
	C2886.295898,612.091248 2919.593262,612.270508 2952.886719,611.984009 
	C2963.120361,611.895996 2970.652832,616.481506 2977.120605,623.498962 
	C2978.775146,625.294189 2980.138672,628.148315 2980.163086,630.530884 
	C2980.371338,650.887817 2980.336182,671.249084 2980.164062,691.607300 
	C2980.093750,699.920959 2973.104004,703.933838 2968.360596,709.309326 
	C2964.789307,713.356567 2960.332275,714.165466 2955.074463,714.189087 
	C2902.556885,714.425415 2850.040039,714.892029 2797.523193,715.287354 
	C2793.916016,715.314514 2790.308350,715.290894 2786.500977,715.290894 
	C2782.190430,680.702393 2785.521484,646.874329 2785.930420,612.091248 
	C2807.906494,612.091248 2829.453125,612.091248 2852.000000,612.091248 
z"/>
<path fill="#010101" opacity="1.000000" stroke="none" 
	d="
M1968.000000,612.106567 
	C1993.976929,612.106628 2018.962646,612.494263 2043.927124,611.935730 
	C2055.611816,611.674255 2063.798828,616.180359 2069.253174,625.979553 
	C2070.930176,628.992371 2072.179932,632.714355 2072.188477,636.115112 
	C2072.356445,704.052063 2072.344482,771.989502 2072.284912,839.926880 
	C2072.274658,851.699951 2060.542969,863.203064 2048.811279,863.256470 
	C1987.000366,863.538025 1925.189575,863.814392 1863.378662,864.063721 
	C1852.664185,864.106934 1843.180664,855.744202 1841.893188,845.107727 
	C1841.574951,842.478638 1841.693359,839.790771 1841.692993,837.129944 
	C1841.683838,771.523743 1841.996826,705.914917 1841.424683,640.313660 
	C1841.309692,627.139709 1849.081421,620.393555 1857.554565,613.551208 
	C1859.714233,611.807129 1863.858276,612.169373 1867.092163,612.160828 
	C1900.394531,612.072327 1933.697388,612.106567 1968.000000,612.106567 
z"/>
<path fill="#020101" opacity="1.000000" stroke="none" 
	d="
M2321.085449,719.001282 
	C2320.474854,683.029663 2320.474854,647.785645 2320.474854,611.294067 
	C2332.609619,611.294067 2344.138428,611.213745 2355.665771,611.310547 
	C2381.219482,611.525269 2406.771729,611.912903 2432.325684,612.069763 
	C2453.311035,612.198608 2474.305420,612.429993 2495.281006,611.955811 
	C2505.843018,611.717041 2512.942871,616.965820 2518.979736,624.366211 
	C2520.689209,626.461609 2521.490234,629.841919 2521.545898,632.656006 
	C2521.968018,653.956543 2522.308105,675.264526 2522.119629,696.565308 
	C2522.087891,700.129150 2519.817871,703.947510 2517.813232,707.170166 
	C2510.552490,718.843872 2499.081055,720.275635 2486.558594,720.189148 
	C2445.920654,719.908508 2405.279297,720.114502 2364.639404,720.067993 
	C2350.324951,720.051575 2336.010498,719.847290 2321.085449,719.001282 
z"/>
<path fill="#050404" opacity="1.000000" stroke="none" 
	d="
M3842.017578,1140.089478 
	C3827.097168,1140.089478 3813.179199,1140.089478 3798.806152,1140.089478 
	C3798.806152,1123.371216 3798.806152,1107.496704 3798.806152,1090.630371 
	C3807.441162,1090.191406 3816.262451,1089.387817 3825.084961,1089.373901 
	C3840.054932,1089.350342 3855.027344,1089.746460 3869.994629,1090.134521 
	C3874.946289,1090.262817 3879.884277,1090.911621 3884.828857,1091.317505 
	C3889.774414,1091.723511 3892.978760,1094.667847 3894.087646,1099.133057 
	C3896.848145,1110.249023 3896.647949,1121.507812 3893.678711,1132.549194 
	C3892.289062,1137.717407 3888.116699,1139.346802 3882.830811,1139.363770 
	C3869.559814,1139.406250 3856.290283,1139.822876 3842.017578,1140.089478 
z"/>
<path fill="#030303" opacity="1.000000" stroke="none" 
	d="
M3836.000488,1070.083862 
	C3823.127686,1070.083862 3811.254395,1070.083862 3799.284180,1070.083862 
	C3799.284180,1053.676270 3799.284180,1038.264771 3799.284180,1022.141907 
	C3807.145996,1022.141907 3814.076416,1022.031921 3821.001953,1022.163879 
	C3837.584229,1022.479736 3854.164795,1022.882324 3870.744141,1023.318115 
	C3873.714600,1023.396118 3876.753174,1023.470154 3879.623291,1024.136353 
	C3883.373779,1025.006714 3886.325684,1027.023804 3886.327148,1031.541626 
	C3886.330078,1040.381592 3886.917725,1049.263306 3886.239990,1058.048706 
	C3885.666748,1065.475830 3883.103271,1067.930176 3875.788086,1068.933350 
	C3868.917236,1069.875732 3861.902344,1069.856445 3854.944824,1070.049438 
	C3848.967529,1070.215332 3842.981934,1070.083862 3836.000488,1070.083862 
z"/>
<path fill="#020303" opacity="1.000000" stroke="none" 
	d="
M3656.014160,1139.269775 
	C3646.691406,1139.269165 3638.360352,1139.443359 3630.040039,1139.224365 
	C3619.344727,1138.943115 3615.856689,1135.914185 3615.775879,1125.651489 
	C3615.540039,1095.678955 3615.610840,1065.702881 3615.745850,1035.729126 
	C3615.776611,1028.935791 3622.952637,1022.105225 3629.910400,1022.164917 
	C3645.512695,1022.298767 3661.111084,1022.799866 3676.712646,1023.057129 
	C3686.943115,1023.225769 3697.177734,1023.152283 3707.408203,1023.327820 
	C3719.396484,1023.533569 3722.272461,1026.340698 3722.295898,1038.020020 
	C3722.354736,1067.654297 3722.347168,1097.288696 3722.297852,1126.923096 
	C3722.281006,1136.930542 3720.015137,1139.202515 3709.965820,1139.247559 
	C3692.314453,1139.326904 3674.662598,1139.269775 3656.014160,1139.269775 
z"/>
<path fill="#030303" opacity="1.000000" stroke="none" 
	d="
M4056.481445,1023.296509 
	C4068.272461,1023.898682 4072.055176,1026.937012 4072.167480,1037.478638 
	C4072.489502,1067.763428 4072.271484,1098.053589 4072.353271,1128.341309 
	C4072.366943,1133.429443 4069.908447,1136.655396 4065.298096,1137.896973 
	C4061.831543,1138.830811 4058.121094,1139.207153 4054.516602,1139.223145 
	C4029.886963,1139.332153 4005.240723,1138.764771 3980.633057,1139.510010 
	C3969.285156,1139.853882 3965.130859,1134.055176 3964.469971,1124.134888 
	C3963.895752,1115.519165 3964.346436,1106.835083 3964.345947,1098.181274 
	C3964.345215,1079.542114 3964.317627,1060.902954 3964.374023,1042.264038 
	C3964.383057,1039.297852 3964.441650,1036.263306 3965.047852,1033.380371 
	C3966.734131,1025.359131 3969.061035,1023.367004 3977.252930,1023.335022 
	C4003.383301,1023.233032 4029.514648,1023.296753 4056.481445,1023.296509 
z"/>
<path fill="#050606" opacity="1.000000" stroke="none" 
	d="
M3501.916016,1022.086060 
	C3515.157471,1022.487732 3527.418945,1022.768127 3539.667236,1023.333374 
	C3547.951416,1023.715637 3551.393311,1027.386108 3551.630371,1035.908203 
	C3551.824219,1042.877441 3551.697021,1049.856567 3551.663818,1056.831055 
	C3551.611816,1067.679321 3546.336426,1073.062012 3535.252441,1073.266113 
	C3526.280273,1073.431274 3517.302490,1073.300415 3508.327148,1073.300171 
	C3494.032959,1073.299683 3479.739014,1073.311157 3465.444824,1073.279541 
	C3463.844482,1073.276001 3462.244629,1073.026001 3460.172852,1072.850098 
	C3460.172852,1055.973877 3460.172852,1039.525757 3460.172852,1022.086060 
	C3473.870605,1022.086060 3487.400635,1022.086060 3501.916016,1022.086060 
z"/>
<path fill="#FCFDFD" opacity="1.000000" stroke="none" 
	d="
M1288.580811,872.616882 
	C1299.429810,871.769409 1310.265503,870.497131 1321.130371,870.152161 
	C1357.023682,869.012634 1392.927979,868.221741 1428.827148,867.267761 
	C1442.166992,866.913330 1455.050049,865.036743 1467.285522,858.887024 
	C1476.968628,854.020142 1483.967773,847.133606 1488.787231,837.611877 
	C1490.475952,834.275574 1492.745972,831.233521 1495.410156,827.011902 
	C1498.560181,832.623352 1497.793579,836.636414 1496.736084,840.864502 
	C1492.520264,857.718323 1481.561646,868.765686 1466.031860,875.050781 
	C1453.751953,880.020569 1440.948486,883.729980 1428.291870,887.728149 
	C1399.791260,896.731567 1371.012085,904.913147 1342.770142,914.657959 
	C1315.405151,924.100159 1287.557495,928.920898 1258.700684,928.048950 
	C1250.903687,927.813416 1243.974243,929.103455 1236.943115,933.221985 
	C1224.510254,940.504456 1210.559326,944.451355 1196.272827,945.900635 
	C1185.188477,947.025146 1177.304443,951.435913 1170.931152,960.726257 
	C1163.439819,971.646057 1154.308838,981.426941 1146.348145,992.046082 
	C1143.363281,996.027588 1140.068848,997.612183 1135.365601,997.311646 
	C1121.092407,996.399658 1106.784058,995.188904 1093.341553,990.081299 
	C1077.133911,983.923218 1069.461060,969.819336 1062.923462,954.998901 
	C1061.378662,951.496887 1063.272827,949.237183 1066.036743,947.562561 
	C1072.284912,943.777161 1078.420654,939.747375 1084.926392,936.458191 
	C1099.143066,929.270508 1113.594116,922.547546 1127.874878,915.484314 
	C1131.374023,913.753723 1134.586182,911.443420 1138.957764,908.771606 
	C1133.471680,902.333008 1128.768555,896.414185 1123.652344,890.877197 
	C1101.204834,866.584595 1075.467896,846.091370 1048.626831,826.976318 
	C1021.010986,807.309570 992.993774,788.206787 965.350769,768.577637 
	C952.784302,759.654236 942.418335,748.488037 934.001953,735.469421 
	C922.776184,718.105225 920.343384,707.929810 922.221924,681.567200 
	C927.888672,680.887390 932.020203,684.392273 936.332031,687.059387 
	C946.505310,693.351868 956.393188,700.127319 966.740295,706.113220 
	C994.745361,722.314331 1025.065430,733.206177 1055.412231,743.966370 
	C1071.062866,749.515869 1086.904663,754.536987 1102.479614,760.286011 
	C1116.964478,765.632812 1129.969971,773.540466 1140.705933,784.861511 
	C1153.520508,798.374573 1165.968994,812.268433 1179.342407,825.205078 
	C1187.393066,832.992798 1196.423096,840.025269 1205.873291,846.046753 
	C1219.108154,854.479492 1233.590210,856.700500 1248.620972,850.216736 
	C1257.161377,846.532654 1266.191040,843.730652 1274.210693,839.149231 
	C1286.932373,831.881592 1298.058716,837.432800 1309.353271,842.026611 
	C1313.248901,843.611084 1313.685913,847.057251 1313.028198,855.159119 
	C1301.122314,854.088257 1293.585571,860.968628 1286.413940,870.513306 
	C1285.710938,872.169434 1285.543945,872.800964 1285.376953,873.432556 
	C1286.444946,873.160645 1287.512817,872.888733 1288.580811,872.616882 
z"/>
<path fill="#000000" opacity="1.000000" stroke="none" 
	d="
M1288.098389,872.151855 
	C1287.512817,872.888733 1286.444946,873.160645 1285.376953,873.432556 
	C1285.543945,872.800964 1285.710938,872.169434 1286.238892,871.175415 
	C1286.938599,871.104309 1287.277222,871.395569 1288.098389,872.151855 
z"/>
</svg>