<svg version="1.1" id="Layer_1" xmlns="http://www.w3.org/2000/svg" xmlns:xlink="http://www.w3.org/1999/xlink" x="0px" y="0px"
	 width="100%" viewBox="0 0 3013 717" enable-background="new 0 0 3013 717" xml:space="preserve">
<path fill="#000000" opacity="1.000000" stroke="none" 
	d="
M1973.000000,718.000000 
	C1315.333374,718.000000 658.166687,718.000000 1.000000,718.000000 
	C1.000000,479.000000 1.000000,240.000000 1.000000,1.000000 
	C1005.333313,1.000000 2009.666626,1.000000 3014.000000,1.000000 
	C3014.000000,240.000000 3014.000000,479.000000 3014.000000,718.000000 
	C2667.166748,718.000000 2320.333252,718.000000 1973.000000,718.000000 
M1217.500000,82.000000 
	C1189.178345,82.000000 1160.856567,81.950233 1132.535034,82.014046 
	C1104.403320,82.077438 1076.271973,82.255081 1048.281006,82.381981 
	C1048.281006,193.023392 1048.281006,302.396179 1048.281006,411.999786 
	C1049.370239,411.999786 1050.179443,412.002716 1050.988647,411.999390 
	C1131.874268,411.666565 1212.760010,411.228302 1293.645752,411.182892 
	C1300.744751,411.178894 1305.770996,408.814819 1310.413208,404.109100 
	C1318.304199,396.110168 1326.458130,388.361786 1334.121094,380.152985 
	C1336.132568,377.998138 1337.817017,374.544800 1337.837036,371.675171 
	C1338.085815,335.858215 1338.025269,300.038788 1337.914795,264.220459 
	C1337.909912,262.655090 1337.058838,260.671082 1335.924438,259.599426 
	C1328.964478,253.024918 1321.643677,246.827957 1314.771484,240.166336 
	C1309.332764,234.894104 1309.463989,233.144684 1314.127686,227.388168 
	C1315.771851,225.358643 1317.596680,223.461121 1319.097900,221.333282 
	C1321.901367,217.359894 1324.179077,213.416306 1324.126099,208.033615 
	C1323.853882,180.380920 1323.874146,152.722916 1324.137085,125.070045 
	C1324.176025,120.964539 1322.478394,118.595070 1319.760864,116.320625 
	C1318.140869,114.964821 1316.320923,113.813240 1314.858276,112.309822 
	C1306.743042,103.969086 1298.901978,95.349030 1290.524292,87.284653 
	C1288.202881,85.050217 1284.433594,83.378830 1281.220825,83.178421 
	C1268.834106,82.405746 1256.405151,82.249809 1243.989136,82.028923 
	C1235.495239,81.877831 1226.996582,82.000000 1217.500000,82.000000 
M174.500000,412.000000 
	C240.316391,412.000000 306.132782,412.012177 371.949097,411.941711 
	C373.938385,411.939606 376.587433,411.735138 377.812805,410.509308 
	C389.336456,398.981903 400.689697,387.279968 411.873444,375.422180 
	C413.240692,373.972534 413.912292,371.311310 413.914917,369.210327 
	C414.015198,287.731506 414.009216,206.252502 413.933624,124.773621 
	C413.932129,123.144608 413.388947,121.107506 412.338226,119.952232 
	C403.342255,110.060997 393.863190,100.593491 385.160706,90.456581 
	C379.450348,83.805023 372.646362,81.870377 364.332642,81.923981 
	C334.341644,82.117348 304.347992,81.877312 274.356506,82.029221 
	C231.114563,82.248238 187.873444,82.649498 144.632797,83.058578 
	C142.774033,83.076157 140.528442,83.444580 139.144806,84.523697 
	C135.361679,87.474159 131.620926,90.605957 128.444519,94.182114 
	C120.737541,102.859024 113.215431,111.712708 105.958481,120.767395 
	C104.275383,122.867416 103.124931,126.054138 103.119942,128.743408 
	C102.972198,208.555847 102.972649,288.368683 103.128807,368.181091 
	C103.133614,370.638428 104.470749,373.617676 106.160316,375.461517 
	C116.639359,386.897461 127.304771,398.168549 138.164581,409.243103 
	C139.742065,410.851837 142.671021,411.806641 145.011093,411.878662 
	C154.499649,412.170715 164.002457,412.000000 174.500000,412.000000 
M583.000000,380.500122 
	C583.000000,389.164581 583.262451,397.840210 582.893982,406.488983 
	C582.697266,411.106720 584.717773,412.161865 588.662354,412.030914 
	C592.823669,411.892822 596.993103,412.000000 601.158997,412.000000 
	C608.410583,412.000000 615.662170,412.000000 623.285645,412.000000 
	C623.285645,363.246246 623.285645,315.179382 623.285645,268.000122 
	C664.843811,268.000122 706.009460,267.963501 747.174194,268.136108 
	C748.793396,268.142853 751.112915,269.771973 751.908691,271.277924 
	C759.426514,285.505829 766.828918,299.799469 773.979187,314.215698 
	C782.403931,331.201569 790.657898,348.274597 798.775269,365.409637 
	C805.712158,380.052826 812.281738,394.870209 819.245728,409.500122 
	C819.844360,410.757812 822.174377,411.868469 823.717896,411.892181 
	C836.212646,412.084229 848.711609,412.007782 861.209290,411.987762 
	C862.442322,411.985809 863.675049,411.813660 865.822571,411.651398 
	C863.441833,406.934814 861.306885,402.852173 859.301453,398.706787 
	C849.514587,378.477051 839.860962,358.182190 829.968750,338.004272 
	C820.969727,319.648224 811.672546,301.438446 802.624146,283.106323 
	C800.320740,278.439697 798.462585,273.553345 796.032898,267.916687 
	C800.384766,267.546021 803.586182,267.117615 806.796387,267.035492 
	C811.958679,266.903381 817.149780,267.285187 822.282471,266.873566 
	C824.667358,266.682312 827.504517,265.719727 829.177368,264.109955 
	C839.379883,254.291855 849.427734,244.303482 859.232239,234.088791 
	C861.425110,231.804169 863.770569,228.402832 863.797302,225.494934 
	C864.112549,191.170868 864.030640,156.842758 863.909607,122.516228 
	C863.903564,120.797203 863.010437,118.665154 861.806519,117.432320 
	C852.146240,107.540207 842.331848,97.797989 832.520874,88.053894 
	C828.363281,83.924614 823.817383,81.794037 817.417358,81.820114 
	C747.098206,82.106705 676.777466,81.968437 606.457275,82.046776 
	C599.086914,82.054985 591.717224,82.712158 583.000000,83.133316 
	C583.000000,182.109146 583.000000,280.804688 583.000000,380.500122 
M2680.550537,160.040421 
	C2679.630127,150.798676 2679.321289,141.571442 2685.186768,133.633102 
	C2687.633789,130.321671 2690.650391,127.272491 2693.924561,124.783600 
	C2696.335693,122.950684 2699.560547,121.231071 2702.466064,121.156281 
	C2726.197998,120.545441 2749.939453,120.127373 2773.679443,120.044472 
	C2818.002686,119.889687 2862.327393,120.000000 2906.651367,120.000000 
	C2908.401367,120.000000 2910.151367,120.000000 2912.000000,120.000000 
	C2912.000000,108.992020 2911.731445,98.657875 2912.115723,88.348068 
	C2912.302246,83.347519 2910.959961,81.849419 2905.793457,81.885513 
	C2833.890381,82.387901 2761.985840,82.666664 2690.081543,82.999908 
	C2689.915039,83.000679 2689.747559,82.990105 2689.581787,83.001450 
	C2682.818604,83.464371 2676.785156,84.908546 2671.824951,90.462929 
	C2662.855957,100.506927 2653.129395,109.871559 2643.953369,119.737450 
	C2642.374512,121.434982 2641.116699,124.214943 2641.127686,126.487854 
	C2641.263916,153.894470 2642.007568,181.302399 2641.793945,208.703766 
	C2641.729248,217.009979 2644.625977,223.097855 2650.101318,228.587265 
	C2659.513428,238.023270 2668.886963,247.498810 2678.427734,256.802856 
	C2679.662109,258.006653 2681.777100,258.860291 2683.512695,258.911285 
	C2699.924072,259.393585 2716.340088,259.808899 2732.757568,259.972168 
	C2774.674805,260.389069 2816.593506,260.682190 2858.511475,260.988983 
	C2868.889893,261.064941 2878.993896,271.249908 2878.997559,281.805206 
	C2879.005371,304.652557 2879.000244,327.499878 2878.999756,350.347229 
	C2878.999756,358.808136 2869.055908,370.725677 2860.658203,371.927979 
	C2855.956299,372.601166 2851.166748,372.951996 2846.416504,372.956482 
	C2778.763916,373.020325 2711.111572,373.000000 2643.458984,373.000000 
	C2641.698486,373.000000 2639.937988,373.000000 2638.304932,373.000000 
	C2638.304932,386.013062 2638.304932,398.417877 2638.304932,412.000000 
	C2664.318115,412.000000 2690.027588,412.103088 2715.736328,411.978668 
	C2770.143311,411.715363 2824.550537,411.384521 2878.955322,410.849182 
	C2881.684082,410.822327 2884.991455,409.228485 2887.007568,407.297516 
	C2897.232422,397.504547 2907.209229,387.445251 2917.035645,377.250580 
	C2918.633301,375.593048 2919.865234,372.793762 2919.876709,370.515137 
	C2920.053955,335.690002 2919.862549,300.862549 2920.146484,266.038818 
	C2920.189697,260.746368 2918.393555,256.947632 2914.973389,253.517593 
	C2906.000488,244.518646 2896.923584,235.623199 2887.966064,226.609222 
	C2882.407471,221.015488 2876.268311,218.588089 2867.928467,218.771866 
	C2829.362061,219.621765 2790.778320,219.703415 2752.199951,219.981842 
	C2736.870850,220.092484 2721.537354,219.833969 2706.211426,220.091370 
	C2700.950684,220.179733 2696.368652,219.671539 2692.305908,215.821960 
	C2685.781006,209.639633 2679.806885,203.842941 2680.777588,193.352783 
	C2681.771240,182.614746 2680.979248,171.711517 2680.550537,160.040421 
M2471.000000,150.500000 
	C2471.000000,127.740883 2471.000000,104.981766 2471.000000,82.284485 
	C2457.694092,82.284485 2444.956787,82.284485 2432.000000,82.284485 
	C2432.000000,84.377579 2432.000000,86.188019 2432.000000,87.998466 
	C2432.000000,175.311005 2432.031738,262.623627 2431.863525,349.935852 
	C2431.857910,352.871033 2430.497070,356.357239 2428.605957,358.612061 
	C2425.328369,362.520142 2421.278320,365.836273 2417.271729,369.050995 
	C2415.498535,370.473846 2413.061768,371.817871 2410.889404,371.878815 
	C2391.578125,372.420502 2372.258057,372.983337 2352.941895,372.931824 
	C2316.533936,372.834656 2280.127197,372.351624 2243.720459,371.987000 
	C2234.749268,371.897156 2223.000488,359.768250 2223.000488,350.735809 
	C2222.999756,263.256653 2223.000000,175.777481 2223.000000,88.298309 
	C2223.000000,86.553429 2223.000000,84.808548 2223.000000,83.360947 
	C2209.205566,83.360947 2196.132568,83.360947 2183.000000,83.360947 
	C2183.000000,178.364120 2182.957031,273.006439 2183.189941,367.648102 
	C2183.197510,370.778381 2185.353516,374.520752 2187.625000,376.920197 
	C2196.949707,386.769714 2206.799072,396.120026 2216.258057,405.845917 
	C2219.830322,409.519226 2223.920898,411.023438 2228.902832,411.021088 
	C2295.720215,410.989594 2362.537842,411.044128 2429.354492,410.850891 
	C2432.253418,410.842529 2435.847656,409.372681 2437.919922,407.353821 
	C2446.996582,398.511536 2455.705566,389.285278 2464.396240,380.055725 
	C2468.861572,375.313782 2471.150146,369.883270 2471.129395,362.949249 
	C2470.917480,292.466675 2471.000000,221.983215 2471.000000,150.500000 
M1893.000000,193.500000 
	C1893.000000,169.407166 1893.000000,145.314316 1893.000000,120.247070 
	C1923.253540,120.247070 1952.939941,120.266502 1982.626343,120.235664 
	C1991.992920,120.225937 2001.363037,120.191139 2010.720459,119.855698 
	C2011.849365,119.815231 2013.832397,117.834923 2013.856079,116.720528 
	C2014.091797,105.608734 2013.999023,94.489967 2013.999023,83.192535 
	C1920.192749,83.192535 1826.800537,83.192535 1733.204224,83.192535 
	C1733.204224,95.459023 1733.204224,107.533249 1733.204224,120.562866 
	C1773.163086,120.562866 1812.946655,120.562866 1853.586670,120.562866 
	C1853.586670,218.231934 1853.586670,314.947357 1853.586670,411.773804 
	C1866.853149,411.773804 1879.256714,411.773804 1893.000000,411.773804 
	C1893.000000,339.199646 1893.000000,266.849823 1893.000000,193.500000 
M1560.000000,326.500000 
	C1560.000000,245.428879 1560.000000,164.357758 1560.000000,83.251495 
	C1546.424316,83.251495 1533.356079,83.251495 1519.645264,83.251495 
	C1519.645264,192.602402 1519.645264,301.702087 1519.645264,410.703156 
	C1533.001221,410.703156 1546.403564,410.703156 1560.000000,410.703156 
	C1560.000000,382.771179 1560.000000,355.135590 1560.000000,326.500000 
M2081.000000,527.503296 
	C2081.000000,573.906250 2081.000000,620.309143 2081.000000,667.000000 
	C2082.802490,667.000000 2084.103760,667.000000 2085.405029,667.000000 
	C2120.211426,667.000000 2155.018311,666.881409 2189.823242,667.108154 
	C2196.162598,667.149414 2201.712646,666.189270 2206.514893,661.872070 
	C2212.601318,656.400208 2217.667969,650.840088 2217.164062,641.526428 
	C2216.498535,629.238647 2216.927979,616.887024 2217.044922,604.564331 
	C2217.079102,600.972412 2216.744629,597.778503 2213.786865,595.235901 
	C2210.354248,592.285095 2207.108643,589.116699 2205.047607,587.212463 
	C2206.589111,580.821045 2208.552979,575.865295 2208.837891,570.814636 
	C2209.390869,561.020142 2208.527100,551.143372 2209.125732,541.354248 
	C2209.801514,530.299133 2203.866943,523.390564 2196.185791,516.957397 
	C2191.206299,512.786865 2185.662109,511.892212 2179.420410,511.925262 
	C2148.445312,512.089233 2117.468750,512.000000 2086.492676,512.000000 
	C2084.729736,512.000000 2082.966797,512.000000 2081.000000,512.000000 
	C2081.000000,517.220581 2081.000000,521.862671 2081.000000,527.503296 
M1902.399658,653.932190 
	C1904.876831,656.400330 1907.125244,659.174438 1909.897339,661.248291 
	C1912.526733,663.215332 1915.568848,665.367004 1918.668213,665.826599 
	C1926.735352,667.022949 1934.927368,667.768982 1943.081299,667.887878 
	C1952.821289,668.029846 1962.571533,667.142517 1972.320801,667.043335 
	C1988.143188,666.882385 2003.968506,667.000000 2019.792603,667.000000 
	C2031.386963,667.000000 2043.862427,656.867615 2045.746216,645.483643 
	C2046.385620,641.619751 2045.991089,637.577332 2045.992920,633.616516 
	C2046.006104,604.466797 2045.868774,575.316162 2046.080688,546.168030 
	C2046.143311,537.554932 2044.782837,529.520447 2038.587891,523.332642 
	C2034.634644,519.383850 2030.154541,515.135315 2025.089966,513.352539 
	C2019.723145,511.463348 2013.382446,512.010193 2007.471313,512.055725 
	C1980.733276,512.261719 1953.997437,512.783875 1927.259521,512.897278 
	C1922.149414,512.918945 1917.845581,513.744385 1913.676880,516.944946 
	C1904.715576,523.825134 1897.780518,531.345642 1897.897461,543.798889 
	C1898.202515,576.277100 1897.863647,608.761414 1898.172852,641.239563 
	C1898.211426,645.294495 1900.607300,649.327087 1902.399658,653.932190 
M2291.506348,512.000000 
	C2288.174561,512.000000 2284.841553,512.064514 2281.511475,511.988708 
	C2267.873047,511.678131 2257.567139,518.014893 2250.710205,529.154541 
	C2248.029053,533.510071 2247.213623,539.582397 2247.155762,544.890320 
	C2246.831787,574.539062 2246.923828,604.193481 2247.049072,633.845276 
	C2247.084229,642.163818 2248.091553,650.316528 2254.309570,656.816467 
	C2259.919922,662.681152 2264.987549,667.596619 2274.723389,667.324951 
	C2306.017090,666.451660 2337.355957,666.685608 2368.664795,667.230591 
	C2376.092285,667.359924 2380.836914,664.706360 2385.053467,659.446960 
	C2386.892822,657.152344 2389.268066,655.188354 2390.673096,652.668823 
	C2392.494873,649.402527 2394.781006,645.742859 2394.814697,642.232849 
	C2395.127930,609.585022 2394.754639,576.929749 2395.174072,544.284363 
	C2395.277588,536.230408 2393.903809,529.389404 2387.951904,523.926697 
	C2383.332764,519.687073 2379.567871,513.763123 2372.711914,513.117920 
	C2364.009277,512.299011 2355.228271,512.117920 2346.477783,512.045044 
	C2328.488037,511.895142 2310.495605,512.000000 2291.506348,512.000000 
M1831.000610,621.551025 
	C1838.244995,636.564941 1845.489380,651.578857 1853.008057,667.161316 
	C1859.499878,665.080505 1866.903442,670.232788 1874.304932,666.705322 
	C1868.599243,654.479858 1863.341064,642.966919 1857.862061,631.560120 
	C1854.167236,623.867615 1850.143433,616.333435 1846.303833,608.709778 
	C1845.161499,606.441406 1844.144409,604.109924 1843.069946,601.807312 
	C1845.585571,601.119690 1848.100952,600.431396 1850.616821,599.744873 
	C1851.538940,599.493225 1852.448120,599.148743 1853.387207,599.010864 
	C1863.245361,597.562866 1874.988037,582.514038 1874.198853,573.218018 
	C1873.328003,562.962036 1873.249634,552.504150 1874.215576,542.265320 
	C1875.142334,532.439636 1871.799927,525.522156 1864.309570,519.709290 
	C1858.440063,515.154236 1852.881714,511.635651 1844.646973,511.776154 
	C1812.500000,512.324585 1780.338379,512.000000 1748.182129,512.000000 
	C1746.558472,512.000000 1744.934814,512.000000 1742.658447,512.000000 
	C1742.658447,563.879700 1742.658447,615.334534 1742.658447,666.705017 
	C1748.661133,666.705017 1754.733398,666.705017 1761.183838,666.705017 
	C1761.183838,644.670227 1761.183838,622.928162 1761.183838,600.702942 
	C1769.972534,601.149109 1778.348389,601.772461 1786.733643,601.949219 
	C1796.892456,602.163330 1807.062866,602.150208 1817.220459,601.907104 
	C1820.211426,601.835571 1821.666016,602.975830 1822.887695,605.398926 
	C1825.494019,610.568848 1828.266968,615.654724 1831.000610,621.551025 
M2929.000000,622.489868 
	C2929.000000,619.323242 2929.000000,616.156555 2929.000000,612.989929 
	C2929.000000,611.323364 2928.779785,609.622253 2929.034912,607.995728 
	C2930.945801,595.813049 2923.792969,588.574341 2915.176025,581.982666 
	C2910.172363,578.154968 2904.845215,576.740540 2898.433838,576.852539 
	C2876.442139,577.236694 2854.439453,577.000061 2832.440918,577.000000 
	C2826.011719,577.000000 2818.098633,571.305786 2817.186279,565.080994 
	C2816.259033,558.756409 2815.646240,552.215698 2816.197754,545.883057 
	C2817.093506,535.598145 2820.317383,531.855896 2832.123535,531.986633 
	C2838.766357,532.060120 2845.413086,532.107788 2852.054199,531.972778 
	C2864.291992,531.724182 2876.524902,531.201843 2888.763184,531.036560 
	C2901.070557,530.870300 2913.381836,531.000000 2925.521484,531.000000 
	C2924.997314,524.520874 2924.500977,518.383728 2923.984619,512.000000 
	C2921.878906,512.000000 2920.235840,512.000000 2918.593018,512.000000 
	C2888.428467,512.000000 2858.261963,512.174805 2828.100342,511.880310 
	C2820.304688,511.804230 2813.959717,514.144714 2808.058594,518.948730 
	C2800.655273,524.975342 2795.913818,531.827148 2796.851562,542.103638 
	C2797.590332,550.202332 2797.197021,558.428589 2796.936035,566.586365 
	C2796.737061,572.799500 2797.283691,578.287659 2801.883789,583.331726 
	C2806.976807,588.916199 2811.474121,594.797913 2819.873779,594.995239 
	C2834.791748,595.345642 2849.708984,595.744324 2864.628906,595.972229 
	C2874.292725,596.119873 2883.962646,595.871033 2893.625732,596.042908 
	C2900.700684,596.168701 2908.252686,599.983887 2908.072021,607.937866 
	C2907.864746,617.078491 2908.295654,626.239014 2907.914551,635.368652 
	C2907.571533,643.582092 2902.472412,647.996094 2894.324707,647.997620 
	C2863.326660,648.003601 2832.328857,648.000000 2801.330811,648.000000 
	C2799.582275,648.000000 2797.833740,648.000000 2796.352783,648.000000 
	C2796.352783,654.778259 2796.352783,660.856262 2796.352783,667.000000 
	C2831.365479,667.000000 2866.026611,666.868530 2900.684814,667.116943 
	C2907.188721,667.163513 2912.967529,666.346497 2917.723877,661.699463 
	C2922.125732,657.398376 2927.330078,653.434753 2927.919434,646.732849 
	C2928.598145,639.011536 2928.666504,631.236572 2929.000000,622.489868 
M2655.000000,577.500000 
	C2655.000000,567.333984 2655.000000,557.167969 2655.000000,547.001953 
	C2655.000000,536.991699 2660.973633,531.002686 2670.980469,531.001343 
	C2700.478516,530.997498 2729.976807,531.000000 2759.474854,531.000000 
	C2761.241943,531.000000 2763.009277,531.000000 2764.715820,531.000000 
	C2764.715820,524.363403 2764.715820,518.291687 2764.715820,512.000000 
	C2733.957520,512.000000 2703.482422,512.009583 2673.007324,511.994324 
	C2663.463623,511.989563 2654.349854,512.701965 2646.789062,519.926880 
	C2639.665527,526.733948 2633.494873,533.026794 2633.764160,544.348938 
	C2634.465332,573.830444 2634.362793,603.346680 2633.791748,632.833801 
	C2633.605957,642.427490 2635.232910,650.774719 2642.133057,657.335693 
	C2647.485107,662.424744 2652.635254,667.577271 2661.531494,667.215027 
	C2679.334229,666.490295 2697.187012,667.000061 2715.019287,667.000000 
	C2730.518311,667.000000 2746.018066,667.070312 2761.515137,666.887939 
	C2763.015625,666.870300 2765.712158,665.382263 2765.787354,664.416260 
	C2766.206055,659.022461 2765.988525,653.579163 2765.988525,648.000000 
	C2763.724121,648.000000 2762.072754,648.000000 2760.421143,648.000000 
	C2730.423096,648.000000 2700.424805,648.037903 2670.426758,647.959656 
	C2665.859375,647.947693 2660.785889,647.676208 2658.203613,643.397705 
	C2656.310791,640.261780 2655.199463,636.178772 2655.137207,632.494324 
	C2654.833740,614.500549 2655.000000,596.498901 2655.000000,577.500000 
M2516.500000,512.000000 
	C2493.833984,512.000000 2471.168213,511.999969 2448.502197,511.999969 
	C2441.335693,512.000000 2434.162842,511.834229 2427.007812,512.121704 
	C2425.310303,512.189880 2422.327637,513.656738 2422.234863,514.686829 
	C2421.751221,520.064270 2422.009277,525.508423 2422.009277,531.301819 
	C2441.769043,531.301819 2460.843994,531.301819 2480.308838,531.301819 
	C2480.308838,576.774475 2480.308838,621.846924 2480.308838,667.000000 
	C2485.204102,667.000000 2489.726562,666.696594 2494.189209,667.083740 
	C2498.824707,667.485840 2500.128174,665.943726 2500.107178,661.251404 
	C2499.922363,619.920288 2500.000000,578.587952 2500.000000,537.255981 
	C2500.000000,535.633972 2500.000000,534.011963 2500.000000,532.232910 
	C2518.498291,531.217102 2536.717529,533.321411 2554.714844,530.816162 
	C2554.714844,524.367126 2554.714844,518.292419 2554.714844,512.000000 
	C2542.120605,512.000000 2529.810303,512.000000 2516.500000,512.000000 
M2601.000000,569.500000 
	C2601.000000,550.405273 2601.000000,531.310547 2601.000000,512.289429 
	C2594.018311,512.289429 2587.611816,512.289429 2581.286133,512.289429 
	C2581.286133,563.979492 2581.286133,615.379578 2581.286133,666.710571 
	C2587.981689,666.710571 2594.387939,666.710571 2601.000000,666.710571 
	C2601.000000,634.447693 2601.000000,602.473877 2601.000000,569.500000 
z"/>
<path fill="#FFFFFF" opacity="1.000000" stroke="none" 
	d="
M1218.000000,82.000000 
	C1226.996582,82.000000 1235.495239,81.877831 1243.989136,82.028923 
	C1256.405151,82.249809 1268.834106,82.405746 1281.220825,83.178421 
	C1284.433594,83.378830 1288.202881,85.050217 1290.524292,87.284653 
	C1298.901978,95.349030 1306.743042,103.969086 1314.858276,112.309822 
	C1316.320923,113.813240 1318.140869,114.964821 1319.760864,116.320625 
	C1322.478394,118.595070 1324.176025,120.964539 1324.137085,125.070045 
	C1323.874146,152.722916 1323.853882,180.380920 1324.126099,208.033615 
	C1324.179077,213.416306 1321.901367,217.359894 1319.097900,221.333282 
	C1317.596680,223.461121 1315.771851,225.358643 1314.127686,227.388168 
	C1309.463989,233.144684 1309.332764,234.894104 1314.771484,240.166336 
	C1321.643677,246.827957 1328.964478,253.024918 1335.924438,259.599426 
	C1337.058838,260.671082 1337.909912,262.655090 1337.914795,264.220459 
	C1338.025269,300.038788 1338.085815,335.858215 1337.837036,371.675171 
	C1337.817017,374.544800 1336.132568,377.998138 1334.121094,380.152985 
	C1326.458130,388.361786 1318.304199,396.110168 1310.413208,404.109100 
	C1305.770996,408.814819 1300.744751,411.178894 1293.645752,411.182892 
	C1212.760010,411.228302 1131.874268,411.666565 1050.988647,411.999390 
	C1050.179443,412.002716 1049.370239,411.999786 1048.281006,411.999786 
	C1048.281006,302.396179 1048.281006,193.023392 1048.281006,82.381981 
	C1076.271973,82.255081 1104.403320,82.077438 1132.535034,82.014046 
	C1160.856567,81.950233 1189.178345,82.000000 1218.000000,82.000000 
M1232.549683,263.000000 
	C1226.885010,263.000000 1221.220459,263.000000 1215.555786,263.000000 
	C1174.566772,263.000000 1133.577637,263.000000 1092.588623,263.000000 
	C1090.815796,263.000000 1089.042969,263.000000 1087.234619,263.000000 
	C1087.234619,300.238220 1087.234619,336.961731 1087.234619,373.271667 
	C1089.071289,373.173553 1090.695435,373.018799 1092.320435,373.009796 
	C1154.791748,372.664886 1217.263306,372.376282 1279.733154,371.867462 
	C1282.719971,371.843140 1286.060669,370.425018 1288.575439,368.695038 
	C1291.677734,366.560944 1294.378784,363.643982 1296.694702,360.635376 
	C1298.287964,358.565521 1299.728638,355.807434 1299.864014,353.283325 
	C1300.502319,341.383789 1300.910767,329.459198 1300.927124,317.542877 
	C1300.941528,306.960419 1300.384033,296.374969 1299.935547,285.796936 
	C1299.879883,284.483582 1299.240601,282.943665 1298.365479,281.958649 
	C1293.984619,277.027832 1289.677734,271.982086 1284.830078,267.538239 
	C1282.772095,265.651703 1279.494629,264.270874 1276.704712,264.145508 
	C1262.305908,263.498688 1247.885376,263.333344 1232.549683,263.000000 
M1283.001587,149.567688 
	C1283.001099,148.401657 1282.958740,147.233902 1283.007202,146.069901 
	C1283.256592,140.073196 1283.188599,134.376038 1277.697876,130.082184 
	C1271.625000,125.332947 1265.765259,120.911903 1257.411255,120.932076 
	C1202.767578,121.064041 1148.123535,121.000000 1093.479614,121.000000 
	C1091.717407,121.000000 1089.955200,121.000000 1087.781494,121.000000 
	C1087.781494,155.650101 1087.781494,189.709274 1087.781494,223.999939 
	C1089.531006,223.999939 1090.510620,224.006989 1091.490234,223.998932 
	C1131.885132,223.666809 1172.279785,223.301819 1212.675049,223.016663 
	C1227.334839,222.913162 1241.996338,222.954407 1256.656494,223.024734 
	C1261.789062,223.049362 1266.871948,223.612350 1270.332031,218.365173 
	C1271.732544,216.241531 1274.044067,214.698563 1276.013550,212.974243 
	C1281.196777,208.436401 1283.304932,202.734024 1283.046021,195.896286 
	C1282.831909,190.239960 1283.030884,184.568283 1283.033325,178.903412 
	C1283.037354,169.392227 1283.030518,159.881042 1283.001587,149.567688 
z"/>
<path fill="#FFFFFF" opacity="1.000000" stroke="none" 
	d="
M174.000000,412.000000 
	C164.002457,412.000000 154.499649,412.170715 145.011093,411.878662 
	C142.671021,411.806641 139.742065,410.851837 138.164581,409.243103 
	C127.304771,398.168549 116.639359,386.897461 106.160316,375.461517 
	C104.470749,373.617676 103.133614,370.638428 103.128807,368.181091 
	C102.972649,288.368683 102.972198,208.555847 103.119942,128.743408 
	C103.124931,126.054138 104.275383,122.867416 105.958481,120.767395 
	C113.215431,111.712708 120.737541,102.859024 128.444519,94.182114 
	C131.620926,90.605957 135.361679,87.474159 139.144806,84.523697 
	C140.528442,83.444580 142.774033,83.076157 144.632797,83.058578 
	C187.873444,82.649498 231.114563,82.248238 274.356506,82.029221 
	C304.347992,81.877312 334.341644,82.117348 364.332642,81.923981 
	C372.646362,81.870377 379.450348,83.805023 385.160706,90.456581 
	C393.863190,100.593491 403.342255,110.060997 412.338226,119.952232 
	C413.388947,121.107506 413.932129,123.144608 413.933624,124.773621 
	C414.009216,206.252502 414.015198,287.731506 413.914917,369.210327 
	C413.912292,371.311310 413.240692,373.972534 411.873444,375.422180 
	C400.689697,387.279968 389.336456,398.981903 377.812805,410.509308 
	C376.587433,411.735138 373.938385,411.939606 371.949097,411.941711 
	C306.132782,412.012177 240.316391,412.000000 174.000000,412.000000 
M235.449661,372.005646 
	C236.522034,372.333130 237.605301,372.973816 238.664993,372.936951 
	C245.205048,372.709503 251.738846,372.068420 258.276428,372.044983 
	C287.273712,371.941162 316.286041,371.475800 345.261627,372.275238 
	C355.861877,372.567688 363.717590,369.975189 370.014862,361.587158 
	C372.916473,357.722229 375.125793,354.133179 375.112610,348.897522 
	C374.942352,281.403442 375.000000,213.908768 375.000000,146.414246 
	C375.000000,132.879501 363.195770,121.001503 349.731628,121.000977 
	C291.736328,120.998695 233.738205,121.295937 175.748260,120.739723 
	C164.711426,120.633858 156.200699,122.910622 149.550095,131.829605 
	C146.472031,135.957489 143.931152,139.914886 143.938934,145.393311 
	C144.033112,211.721115 144.159119,278.049866 143.837997,344.376251 
	C143.786530,355.006042 146.037277,363.824249 154.817383,370.198059 
	C156.645584,371.525208 159.018417,372.844971 161.160141,372.878021 
	C176.113297,373.108765 191.072296,373.079712 206.028137,372.966553 
	C213.553772,372.909607 221.076767,372.503296 228.600891,372.253235 
	C230.605408,372.186615 232.609695,372.113495 235.449661,372.005646 
z"/>
<path fill="#FFFFFF" opacity="1.000000" stroke="none" 
	d="
M583.000000,380.000183 
	C583.000000,280.804688 583.000000,182.109146 583.000000,83.133316 
	C591.717224,82.712158 599.086914,82.054985 606.457275,82.046776 
	C676.777466,81.968437 747.098206,82.106705 817.417358,81.820114 
	C823.817383,81.794037 828.363281,83.924614 832.520874,88.053894 
	C842.331848,97.797989 852.146240,107.540207 861.806519,117.432320 
	C863.010437,118.665154 863.903564,120.797203 863.909607,122.516228 
	C864.030640,156.842758 864.112549,191.170868 863.797302,225.494934 
	C863.770569,228.402832 861.425110,231.804169 859.232239,234.088791 
	C849.427734,244.303482 839.379883,254.291855 829.177368,264.109955 
	C827.504517,265.719727 824.667358,266.682312 822.282471,266.873566 
	C817.149780,267.285187 811.958679,266.903381 806.796387,267.035492 
	C803.586182,267.117615 800.384766,267.546021 796.032898,267.916687 
	C798.462585,273.553345 800.320740,278.439697 802.624146,283.106323 
	C811.672546,301.438446 820.969727,319.648224 829.968750,338.004272 
	C839.860962,358.182190 849.514587,378.477051 859.301453,398.706787 
	C861.306885,402.852173 863.441833,406.934814 865.822571,411.651398 
	C863.675049,411.813660 862.442322,411.985809 861.209290,411.987762 
	C848.711609,412.007782 836.212646,412.084229 823.717896,411.892181 
	C822.174377,411.868469 819.844360,410.757812 819.245728,409.500122 
	C812.281738,394.870209 805.712158,380.052826 798.775269,365.409637 
	C790.657898,348.274597 782.403931,331.201569 773.979187,314.215698 
	C766.828918,299.799469 759.426514,285.505829 751.908691,271.277924 
	C751.112915,269.771973 748.793396,268.142853 747.174194,268.136108 
	C706.009460,267.963501 664.843811,268.000122 623.285645,268.000122 
	C623.285645,315.179382 623.285645,363.246246 623.285645,412.000000 
	C615.662170,412.000000 608.410583,412.000000 601.158997,412.000000 
	C596.993103,412.000000 592.823669,411.892822 588.662354,412.030914 
	C584.717773,412.161865 582.697266,411.106720 582.893982,406.488983 
	C583.262451,397.840210 583.000000,389.164581 583.000000,380.000183 
M812.418640,224.054367 
	C815.365967,221.113663 818.623962,218.413879 821.155334,215.150497 
	C822.946167,212.841843 824.833679,209.768814 824.829834,207.039673 
	C824.797058,184.462357 824.337952,161.885590 823.978577,139.309113 
	C823.966125,138.527573 823.720398,137.724396 823.456238,136.976242 
	C821.336060,130.970840 810.103699,120.792381 800.830383,120.872551 
	C764.680664,121.185043 728.526733,121.012810 692.374390,120.970711 
	C690.006836,120.967957 687.636597,120.324760 685.273132,120.359138 
	C678.508728,120.457558 671.748108,120.891678 664.984253,120.939369 
	C651.128784,121.037079 637.272156,120.968689 623.358398,120.968689 
	C623.358398,156.565720 623.358398,192.745483 623.358398,227.999985 
	C684.039307,227.999985 744.360474,228.039261 804.680969,227.856750 
	C807.098999,227.849426 809.510620,225.739899 812.418640,224.054367 
z"/>
<path fill="#FFFFFF" opacity="1.000000" stroke="none" 
	d="
M2680.759766,160.460510 
	C2680.979248,171.711517 2681.771240,182.614746 2680.777588,193.352783 
	C2679.806885,203.842941 2685.781006,209.639633 2692.305908,215.821960 
	C2696.368652,219.671539 2700.950684,220.179733 2706.211426,220.091370 
	C2721.537354,219.833969 2736.870850,220.092484 2752.199951,219.981842 
	C2790.778320,219.703415 2829.362061,219.621765 2867.928467,218.771866 
	C2876.268311,218.588089 2882.407471,221.015488 2887.966064,226.609222 
	C2896.923584,235.623199 2906.000488,244.518646 2914.973389,253.517593 
	C2918.393555,256.947632 2920.189697,260.746368 2920.146484,266.038818 
	C2919.862549,300.862549 2920.053955,335.690002 2919.876709,370.515137 
	C2919.865234,372.793762 2918.633301,375.593048 2917.035645,377.250580 
	C2907.209229,387.445251 2897.232422,397.504547 2887.007568,407.297516 
	C2884.991455,409.228485 2881.684082,410.822327 2878.955322,410.849182 
	C2824.550537,411.384521 2770.143311,411.715363 2715.736328,411.978668 
	C2690.027588,412.103088 2664.318115,412.000000 2638.304932,412.000000 
	C2638.304932,398.417877 2638.304932,386.013062 2638.304932,373.000000 
	C2639.937988,373.000000 2641.698486,373.000000 2643.458984,373.000000 
	C2711.111572,373.000000 2778.763916,373.020325 2846.416504,372.956482 
	C2851.166748,372.951996 2855.956299,372.601166 2860.658203,371.927979 
	C2869.055908,370.725677 2878.999756,358.808136 2878.999756,350.347229 
	C2879.000244,327.499878 2879.005371,304.652557 2878.997559,281.805206 
	C2878.993896,271.249908 2868.889893,261.064941 2858.511475,260.988983 
	C2816.593506,260.682190 2774.674805,260.389069 2732.757568,259.972168 
	C2716.340088,259.808899 2699.924072,259.393585 2683.512695,258.911285 
	C2681.777100,258.860291 2679.662109,258.006653 2678.427734,256.802856 
	C2668.886963,247.498810 2659.513428,238.023270 2650.101318,228.587265 
	C2644.625977,223.097855 2641.729248,217.009979 2641.793945,208.703766 
	C2642.007568,181.302399 2641.263916,153.894470 2641.127686,126.487854 
	C2641.116699,124.214943 2642.374512,121.434982 2643.953369,119.737450 
	C2653.129395,109.871559 2662.855957,100.506927 2671.824951,90.462929 
	C2676.785156,84.908546 2682.818604,83.464371 2689.581787,83.001450 
	C2689.747559,82.990105 2689.915039,83.000679 2690.081543,82.999908 
	C2761.985840,82.666664 2833.890381,82.387901 2905.793457,81.885513 
	C2910.959961,81.849419 2912.302246,83.347519 2912.115723,88.348068 
	C2911.731445,98.657875 2912.000000,108.992020 2912.000000,120.000000 
	C2910.151367,120.000000 2908.401367,120.000000 2906.651367,120.000000 
	C2862.327393,120.000000 2818.002686,119.889687 2773.679443,120.044472 
	C2749.939453,120.127373 2726.197998,120.545441 2702.466064,121.156281 
	C2699.560547,121.231071 2696.335693,122.950684 2693.924561,124.783600 
	C2690.650391,127.272491 2687.633789,130.321671 2685.186768,133.633102 
	C2679.321289,141.571442 2679.630127,150.798676 2680.759766,160.460510 
z"/>
<path fill="#FFFFFF" opacity="1.000000" stroke="none" 
	d="
M2471.000000,151.000000 
	C2471.000000,221.983215 2470.917480,292.466675 2471.129395,362.949249 
	C2471.150146,369.883270 2468.861572,375.313782 2464.396240,380.055725 
	C2455.705566,389.285278 2446.996582,398.511536 2437.919922,407.353821 
	C2435.847656,409.372681 2432.253418,410.842529 2429.354492,410.850891 
	C2362.537842,411.044128 2295.720215,410.989594 2228.902832,411.021088 
	C2223.920898,411.023438 2219.830322,409.519226 2216.258057,405.845917 
	C2206.799072,396.120026 2196.949707,386.769714 2187.625000,376.920197 
	C2185.353516,374.520752 2183.197510,370.778381 2183.189941,367.648102 
	C2182.957031,273.006439 2183.000000,178.364120 2183.000000,83.360947 
	C2196.132568,83.360947 2209.205566,83.360947 2223.000000,83.360947 
	C2223.000000,84.808548 2223.000000,86.553429 2223.000000,88.298309 
	C2223.000000,175.777481 2222.999756,263.256653 2223.000488,350.735809 
	C2223.000488,359.768250 2234.749268,371.897156 2243.720459,371.987000 
	C2280.127197,372.351624 2316.533936,372.834656 2352.941895,372.931824 
	C2372.258057,372.983337 2391.578125,372.420502 2410.889404,371.878815 
	C2413.061768,371.817871 2415.498535,370.473846 2417.271729,369.050995 
	C2421.278320,365.836273 2425.328369,362.520142 2428.605957,358.612061 
	C2430.497070,356.357239 2431.857910,352.871033 2431.863525,349.935852 
	C2432.031738,262.623627 2432.000000,175.311005 2432.000000,87.998466 
	C2432.000000,86.188019 2432.000000,84.377579 2432.000000,82.284485 
	C2444.956787,82.284485 2457.694092,82.284485 2471.000000,82.284485 
	C2471.000000,104.981766 2471.000000,127.740883 2471.000000,151.000000 
z"/>
<path fill="#FFFFFF" opacity="1.000000" stroke="none" 
	d="
M1893.000000,194.000000 
	C1893.000000,266.849823 1893.000000,339.199646 1893.000000,411.773804 
	C1879.256714,411.773804 1866.853149,411.773804 1853.586670,411.773804 
	C1853.586670,314.947357 1853.586670,218.231934 1853.586670,120.562866 
	C1812.946655,120.562866 1773.163086,120.562866 1733.204224,120.562866 
	C1733.204224,107.533249 1733.204224,95.459023 1733.204224,83.192535 
	C1826.800537,83.192535 1920.192749,83.192535 2013.999023,83.192535 
	C2013.999023,94.489967 2014.091797,105.608734 2013.856079,116.720528 
	C2013.832397,117.834923 2011.849365,119.815231 2010.720459,119.855698 
	C2001.363037,120.191139 1991.992920,120.225937 1982.626343,120.235664 
	C1952.939941,120.266502 1923.253540,120.247070 1893.000000,120.247070 
	C1893.000000,145.314316 1893.000000,169.407166 1893.000000,194.000000 
z"/>
<path fill="#FFFFFF" opacity="1.000000" stroke="none" 
	d="
M1560.000000,327.000000 
	C1560.000000,355.135590 1560.000000,382.771179 1560.000000,410.703156 
	C1546.403564,410.703156 1533.001221,410.703156 1519.645264,410.703156 
	C1519.645264,301.702087 1519.645264,192.602402 1519.645264,83.251495 
	C1533.356079,83.251495 1546.424316,83.251495 1560.000000,83.251495 
	C1560.000000,164.357758 1560.000000,245.428879 1560.000000,327.000000 
z"/>
<path fill="#FFFFFF" opacity="1.000000" stroke="none" 
	d="
M2081.000000,527.004028 
	C2081.000000,521.862671 2081.000000,517.220581 2081.000000,512.000000 
	C2082.966797,512.000000 2084.729736,512.000000 2086.492676,512.000000 
	C2117.468750,512.000000 2148.445312,512.089233 2179.420410,511.925262 
	C2185.662109,511.892212 2191.206299,512.786865 2196.185791,516.957397 
	C2203.866943,523.390564 2209.801514,530.299133 2209.125732,541.354248 
	C2208.527100,551.143372 2209.390869,561.020142 2208.837891,570.814636 
	C2208.552979,575.865295 2206.589111,580.821045 2205.047607,587.212463 
	C2207.108643,589.116699 2210.354248,592.285095 2213.786865,595.235901 
	C2216.744629,597.778503 2217.079102,600.972412 2217.044922,604.564331 
	C2216.927979,616.887024 2216.498535,629.238647 2217.164062,641.526428 
	C2217.667969,650.840088 2212.601318,656.400208 2206.514893,661.872070 
	C2201.712646,666.189270 2196.162598,667.149414 2189.823242,667.108154 
	C2155.018311,666.881409 2120.211426,667.000000 2085.405029,667.000000 
	C2084.103760,667.000000 2082.802490,667.000000 2081.000000,667.000000 
	C2081.000000,620.309143 2081.000000,573.906250 2081.000000,527.004028 
M2140.543701,599.000000 
	C2127.442383,599.000000 2114.340820,599.000000 2101.273193,599.000000 
	C2101.273193,615.950500 2101.273193,632.353149 2101.273193,648.976868 
	C2121.662842,648.976868 2141.781250,649.067810 2161.897705,648.932251 
	C2169.963379,648.877930 2178.039551,647.880066 2186.085449,648.130615 
	C2193.503662,648.361633 2196.358154,643.983032 2196.890625,638.265381 
	C2197.653809,630.070129 2197.917236,621.804993 2197.918945,613.569641 
	C2197.920654,607.141602 2193.371826,600.726807 2188.757324,600.061462 
	C2184.712158,599.478210 2180.606201,599.092529 2176.522461,599.046387 
	C2164.860107,598.914551 2153.195557,599.000000 2140.543701,599.000000 
M2101.000000,541.723511 
	C2101.000000,554.117615 2101.000000,566.511658 2101.000000,578.000000 
	C2126.883057,578.000000 2152.075684,578.068359 2177.267578,577.950928 
	C2183.404297,577.922363 2188.602539,573.811218 2188.956543,569.026306 
	C2189.455566,562.289673 2189.836670,555.534058 2189.930664,548.781860 
	C2189.980469,545.213440 2190.048340,541.351440 2188.800781,538.128052 
	C2186.967041,533.390137 2182.249023,532.103516 2177.546875,532.046997 
	C2165.737061,531.904907 2153.924561,532.028503 2142.113037,531.987061 
	C2136.819824,531.968445 2131.527588,531.757263 2126.234375,531.726562 
	C2118.204102,531.679871 2110.173340,531.714355 2102.343506,531.714355 
	C2101.906006,534.664001 2101.453125,537.717834 2101.000000,541.723511 
z"/>
<path fill="#FFFFFF" opacity="1.000000" stroke="none" 
	d="
M1902.155273,653.651123 
	C1900.607300,649.327087 1898.211426,645.294495 1898.172852,641.239563 
	C1897.863647,608.761414 1898.202515,576.277100 1897.897461,543.798889 
	C1897.780518,531.345642 1904.715576,523.825134 1913.676880,516.944946 
	C1917.845581,513.744385 1922.149414,512.918945 1927.259521,512.897278 
	C1953.997437,512.783875 1980.733276,512.261719 2007.471313,512.055725 
	C2013.382446,512.010193 2019.723145,511.463348 2025.089966,513.352539 
	C2030.154541,515.135315 2034.634644,519.383850 2038.587891,523.332642 
	C2044.782837,529.520447 2046.143311,537.554932 2046.080688,546.168030 
	C2045.868774,575.316162 2046.006104,604.466797 2045.992920,633.616516 
	C2045.991089,637.577332 2046.385620,641.619751 2045.746216,645.483643 
	C2043.862427,656.867615 2031.386963,667.000000 2019.792603,667.000000 
	C2003.968506,667.000000 1988.143188,666.882385 1972.320801,667.043335 
	C1962.571533,667.142517 1952.821289,668.029846 1943.081299,667.887878 
	C1934.927368,667.768982 1926.735352,667.022949 1918.668213,665.826599 
	C1915.568848,665.367004 1912.526733,663.215332 1909.897339,661.248291 
	C1907.125244,659.174438 1904.876831,656.400330 1902.155273,653.651123 
M1918.000000,627.464355 
	C1918.000000,629.797485 1917.786255,632.153992 1918.037720,634.459717 
	C1919.007812,643.354736 1921.051880,648.044495 1931.701294,648.020935 
	C1959.698486,647.958984 1987.695923,648.004028 2015.693237,647.996643 
	C2021.401855,647.995117 2024.991333,644.326233 2024.997803,638.516296 
	C2025.006348,630.850342 2024.893188,623.182617 2025.022705,615.518860 
	C2025.279541,600.309204 2025.843994,585.102844 2025.931030,569.893066 
	C2025.980225,561.291809 2025.244507,552.688965 2025.026978,544.082642 
	C2024.841187,536.725464 2020.795654,532.276550 2013.343506,532.030884 
	C1999.939453,531.588989 1986.530762,531.199219 1973.121094,531.037109 
	C1959.291138,530.869873 1945.457520,530.996521 1931.625488,531.001648 
	C1925.608521,531.003906 1918.003174,538.524597 1918.002075,544.482300 
	C1917.997070,571.813049 1918.000000,599.143738 1918.000000,627.464355 
z"/>
<path fill="#FFFFFF" opacity="1.000000" stroke="none" 
	d="
M2292.005371,512.000000 
	C2310.495605,512.000000 2328.488037,511.895142 2346.477783,512.045044 
	C2355.228271,512.117920 2364.009277,512.299011 2372.711914,513.117920 
	C2379.567871,513.763123 2383.332764,519.687073 2387.951904,523.926697 
	C2393.903809,529.389404 2395.277588,536.230408 2395.174072,544.284363 
	C2394.754639,576.929749 2395.127930,609.585022 2394.814697,642.232849 
	C2394.781006,645.742859 2392.494873,649.402527 2390.673096,652.668823 
	C2389.268066,655.188354 2386.892822,657.152344 2385.053467,659.446960 
	C2380.836914,664.706360 2376.092285,667.359924 2368.664795,667.230591 
	C2337.355957,666.685608 2306.017090,666.451660 2274.723389,667.324951 
	C2264.987549,667.596619 2259.919922,662.681152 2254.309570,656.816467 
	C2248.091553,650.316528 2247.084229,642.163818 2247.049072,633.845276 
	C2246.923828,604.193481 2246.831787,574.539062 2247.155762,544.890320 
	C2247.213623,539.582397 2248.029053,533.510071 2250.710205,529.154541 
	C2257.567139,518.014893 2267.873047,511.678131 2281.511475,511.988708 
	C2284.841553,512.064514 2288.174561,512.000000 2292.005371,512.000000 
M2310.771484,530.999939 
	C2307.631348,531.004272 2304.488525,530.921753 2301.351807,531.029785 
	C2293.270264,531.308167 2285.194092,531.774536 2277.110840,531.961121 
	C2272.256836,532.073242 2269.545410,534.925964 2268.152588,538.958252 
	C2267.222412,541.651123 2267.053467,544.707764 2267.045410,547.602905 
	C2266.969482,575.578857 2266.968506,603.555176 2267.047363,631.531128 
	C2267.055420,634.424438 2266.852051,637.887329 2268.288574,640.071960 
	C2270.348389,643.203979 2273.784668,647.601929 2276.707275,647.659180 
	C2305.505127,648.223022 2334.319580,648.150085 2363.126221,647.893860 
	C2370.273682,647.830322 2375.267334,643.353394 2375.160400,635.657288 
	C2374.759277,606.854126 2375.036133,578.041870 2374.949707,549.233337 
	C2374.939941,546.004944 2374.845947,542.539856 2373.702148,539.609741 
	C2372.147705,535.628723 2369.308105,532.236145 2364.430420,532.025940 
	C2354.690186,531.606018 2344.945557,531.231140 2335.198486,531.032288 
	C2327.375244,530.872559 2319.545898,531.000000 2310.771484,530.999939 
z"/>
<path fill="#FFFFFF" opacity="1.000000" stroke="none" 
	d="
M1830.986084,621.163086 
	C1828.266968,615.654724 1825.494019,610.568848 1822.887695,605.398926 
	C1821.666016,602.975830 1820.211426,601.835571 1817.220459,601.907104 
	C1807.062866,602.150208 1796.892456,602.163330 1786.733643,601.949219 
	C1778.348389,601.772461 1769.972534,601.149109 1761.183838,600.702942 
	C1761.183838,622.928162 1761.183838,644.670227 1761.183838,666.705017 
	C1754.733398,666.705017 1748.661133,666.705017 1742.658447,666.705017 
	C1742.658447,615.334534 1742.658447,563.879700 1742.658447,512.000000 
	C1744.934814,512.000000 1746.558472,512.000000 1748.182129,512.000000 
	C1780.338379,512.000000 1812.500000,512.324585 1844.646973,511.776154 
	C1852.881714,511.635651 1858.440063,515.154236 1864.309570,519.709290 
	C1871.799927,525.522156 1875.142334,532.439636 1874.215576,542.265320 
	C1873.249634,552.504150 1873.328003,562.962036 1874.198853,573.218018 
	C1874.988037,582.514038 1863.245361,597.562866 1853.387207,599.010864 
	C1852.448120,599.148743 1851.538940,599.493225 1850.616821,599.744873 
	C1848.100952,600.431396 1845.585571,601.119690 1843.069946,601.807373 
	C1844.144409,604.109924 1845.161499,606.441406 1846.303833,608.709778 
	C1850.143433,616.333435 1854.167236,623.867615 1857.862061,631.560120 
	C1863.341064,642.966919 1868.599243,654.479858 1874.304932,666.705322 
	C1866.903442,670.232788 1859.499878,665.080505 1853.008057,667.161316 
	C1845.489380,651.578857 1838.244995,636.564941 1830.986084,621.163086 
M1854.000000,559.554443 
	C1854.000000,554.066833 1854.017090,548.579163 1853.995361,543.091614 
	C1853.970703,536.847412 1849.745850,532.238953 1843.477539,532.034302 
	C1829.900269,531.590759 1816.318604,531.204529 1802.735718,531.036377 
	C1789.288818,530.869812 1775.838257,531.000000 1762.197876,531.000000 
	C1762.197876,548.134216 1762.197876,564.868225 1762.197876,581.705505 
	C1762.835693,581.824707 1763.294922,581.985352 1763.754150,581.985596 
	C1789.411255,581.998901 1815.068481,582.034973 1840.725464,581.975830 
	C1847.544678,581.960144 1853.998657,575.273621 1853.999878,568.527710 
	C1854.000244,565.862061 1854.000000,563.196350 1854.000000,559.554443 
z"/>
<path fill="#FFFFFF" opacity="1.000000" stroke="none" 
	d="
M2929.000000,622.987427 
	C2928.666504,631.236572 2928.598145,639.011536 2927.919434,646.732849 
	C2927.330078,653.434753 2922.125732,657.398376 2917.723877,661.699463 
	C2912.967529,666.346497 2907.188721,667.163513 2900.684814,667.116943 
	C2866.026611,666.868530 2831.365479,667.000000 2796.352783,667.000000 
	C2796.352783,660.856262 2796.352783,654.778259 2796.352783,648.000000 
	C2797.833740,648.000000 2799.582275,648.000000 2801.330811,648.000000 
	C2832.328857,648.000000 2863.326660,648.003601 2894.324707,647.997620 
	C2902.472412,647.996094 2907.571533,643.582092 2907.914551,635.368652 
	C2908.295654,626.239014 2907.864746,617.078491 2908.072021,607.937866 
	C2908.252686,599.983887 2900.700684,596.168701 2893.625732,596.042908 
	C2883.962646,595.871033 2874.292725,596.119873 2864.628906,595.972229 
	C2849.708984,595.744324 2834.791748,595.345642 2819.873779,594.995239 
	C2811.474121,594.797913 2806.976807,588.916199 2801.883789,583.331726 
	C2797.283691,578.287659 2796.737061,572.799500 2796.936035,566.586365 
	C2797.197021,558.428589 2797.590332,550.202332 2796.851562,542.103638 
	C2795.913818,531.827148 2800.655273,524.975342 2808.058594,518.948730 
	C2813.959717,514.144714 2820.304688,511.804230 2828.100342,511.880310 
	C2858.261963,512.174805 2888.428467,512.000000 2918.593018,512.000000 
	C2920.235840,512.000000 2921.878906,512.000000 2923.984619,512.000000 
	C2924.500977,518.383728 2924.997314,524.520874 2925.521484,531.000000 
	C2913.381836,531.000000 2901.070557,530.870300 2888.763184,531.036560 
	C2876.524902,531.201843 2864.291992,531.724182 2852.054199,531.972778 
	C2845.413086,532.107788 2838.766357,532.060120 2832.123535,531.986633 
	C2820.317383,531.855896 2817.093506,535.598145 2816.197754,545.883057 
	C2815.646240,552.215698 2816.259033,558.756409 2817.186279,565.080994 
	C2818.098633,571.305786 2826.011719,577.000000 2832.440918,577.000000 
	C2854.439453,577.000061 2876.442139,577.236694 2898.433838,576.852539 
	C2904.845215,576.740540 2910.172363,578.154968 2915.176025,581.982666 
	C2923.792969,588.574341 2930.945801,595.813049 2929.034912,607.995728 
	C2928.779785,609.622253 2929.000000,611.323364 2929.000000,612.989929 
	C2929.000000,616.156555 2929.000000,619.323242 2929.000000,622.987427 
z"/>
<path fill="#FFFFFF" opacity="1.000000" stroke="none" 
	d="
M2655.000000,578.000000 
	C2655.000000,596.498901 2654.833740,614.500549 2655.137207,632.494324 
	C2655.199463,636.178772 2656.310791,640.261780 2658.203613,643.397705 
	C2660.785889,647.676208 2665.859375,647.947693 2670.426758,647.959656 
	C2700.424805,648.037903 2730.423096,648.000000 2760.421143,648.000000 
	C2762.072754,648.000000 2763.724121,648.000000 2765.988525,648.000000 
	C2765.988525,653.579163 2766.206055,659.022461 2765.787354,664.416260 
	C2765.712158,665.382263 2763.015625,666.870300 2761.515137,666.887939 
	C2746.018066,667.070312 2730.518311,667.000000 2715.019287,667.000000 
	C2697.187012,667.000061 2679.334229,666.490295 2661.531494,667.215027 
	C2652.635254,667.577271 2647.485107,662.424744 2642.133057,657.335693 
	C2635.232910,650.774719 2633.605957,642.427490 2633.791748,632.833801 
	C2634.362793,603.346680 2634.465332,573.830444 2633.764160,544.348938 
	C2633.494873,533.026794 2639.665527,526.733948 2646.789062,519.926880 
	C2654.349854,512.701965 2663.463623,511.989563 2673.007324,511.994324 
	C2703.482422,512.009583 2733.957520,512.000000 2764.715820,512.000000 
	C2764.715820,518.291687 2764.715820,524.363403 2764.715820,531.000000 
	C2763.009277,531.000000 2761.241943,531.000000 2759.474854,531.000000 
	C2729.976807,531.000000 2700.478516,530.997498 2670.980469,531.001343 
	C2660.973633,531.002686 2655.000000,536.991699 2655.000000,547.001953 
	C2655.000000,557.167969 2655.000000,567.333984 2655.000000,578.000000 
z"/>
<path fill="#FFFFFF" opacity="1.000000" stroke="none" 
	d="
M2517.000000,512.000000 
	C2529.810303,512.000000 2542.120605,512.000000 2554.714844,512.000000 
	C2554.714844,518.292419 2554.714844,524.367126 2554.714844,530.816162 
	C2536.717529,533.321411 2518.498291,531.217102 2500.000000,532.232910 
	C2500.000000,534.011963 2500.000000,535.633972 2500.000000,537.255981 
	C2500.000000,578.587952 2499.922363,619.920288 2500.107178,661.251404 
	C2500.128174,665.943726 2498.824707,667.485840 2494.189209,667.083740 
	C2489.726562,666.696594 2485.204102,667.000000 2480.308838,667.000000 
	C2480.308838,621.846924 2480.308838,576.774475 2480.308838,531.301819 
	C2460.843994,531.301819 2441.769043,531.301819 2422.009277,531.301819 
	C2422.009277,525.508423 2421.751221,520.064270 2422.234863,514.686829 
	C2422.327637,513.656738 2425.310303,512.189880 2427.007812,512.121704 
	C2434.162842,511.834229 2441.335693,512.000000 2448.502197,511.999969 
	C2471.168213,511.999969 2493.833984,512.000000 2517.000000,512.000000 
z"/>
<path fill="#FFFFFF" opacity="1.000000" stroke="none" 
	d="
M2601.000000,570.000000 
	C2601.000000,602.473877 2601.000000,634.447693 2601.000000,666.710571 
	C2594.387939,666.710571 2587.981689,666.710571 2581.286133,666.710571 
	C2581.286133,615.379578 2581.286133,563.979492 2581.286133,512.289429 
	C2587.611816,512.289429 2594.018311,512.289429 2601.000000,512.289429 
	C2601.000000,531.310547 2601.000000,550.405273 2601.000000,570.000000 
z"/>
<path fill="#000000" opacity="1.000000" stroke="none" 
	d="
M1233.010986,263.000000 
	C1247.885376,263.333344 1262.305908,263.498688 1276.704712,264.145508 
	C1279.494629,264.270874 1282.772095,265.651703 1284.830078,267.538239 
	C1289.677734,271.982086 1293.984619,277.027832 1298.365479,281.958649 
	C1299.240601,282.943665 1299.879883,284.483582 1299.935547,285.796936 
	C1300.384033,296.374969 1300.941528,306.960419 1300.927124,317.542877 
	C1300.910767,329.459198 1300.502319,341.383789 1299.864014,353.283325 
	C1299.728638,355.807434 1298.287964,358.565521 1296.694702,360.635376 
	C1294.378784,363.643982 1291.677734,366.560944 1288.575439,368.695038 
	C1286.060669,370.425018 1282.719971,371.843140 1279.733154,371.867462 
	C1217.263306,372.376282 1154.791748,372.664886 1092.320435,373.009796 
	C1090.695435,373.018799 1089.071289,373.173553 1087.234619,373.271667 
	C1087.234619,336.961731 1087.234619,300.238220 1087.234619,263.000000 
	C1089.042969,263.000000 1090.815796,263.000000 1092.588623,263.000000 
	C1133.577637,263.000000 1174.566772,263.000000 1215.555786,263.000000 
	C1221.220459,263.000000 1226.885010,263.000000 1233.010986,263.000000 
z"/>
<path fill="#000000" opacity="1.000000" stroke="none" 
	d="
M1283.014893,149.968781 
	C1283.030518,159.881042 1283.037354,169.392227 1283.033325,178.903412 
	C1283.030884,184.568283 1282.831909,190.239960 1283.046021,195.896286 
	C1283.304932,202.734024 1281.196777,208.436401 1276.013550,212.974243 
	C1274.044067,214.698563 1271.732544,216.241531 1270.332031,218.365173 
	C1266.871948,223.612350 1261.789062,223.049362 1256.656494,223.024734 
	C1241.996338,222.954407 1227.334839,222.913162 1212.675049,223.016663 
	C1172.279785,223.301819 1131.885132,223.666809 1091.490234,223.998932 
	C1090.510620,224.006989 1089.531006,223.999939 1087.781494,223.999939 
	C1087.781494,189.709274 1087.781494,155.650101 1087.781494,121.000000 
	C1089.955200,121.000000 1091.717407,121.000000 1093.479614,121.000000 
	C1148.123535,121.000000 1202.767578,121.064041 1257.411255,120.932076 
	C1265.765259,120.911903 1271.625000,125.332947 1277.697876,130.082184 
	C1283.188599,134.376038 1283.256592,140.073196 1283.007202,146.069901 
	C1282.958740,147.233902 1283.001099,148.401657 1283.014893,149.968781 
z"/>
<path fill="#000000" opacity="1.000000" stroke="none" 
	d="
M235.031876,372.024506 
	C232.609695,372.113495 230.605408,372.186615 228.600891,372.253235 
	C221.076767,372.503296 213.553772,372.909607 206.028137,372.966553 
	C191.072296,373.079712 176.113297,373.108765 161.160141,372.878021 
	C159.018417,372.844971 156.645584,371.525208 154.817383,370.198059 
	C146.037277,363.824249 143.786530,355.006042 143.837997,344.376251 
	C144.159119,278.049866 144.033112,211.721115 143.938934,145.393311 
	C143.931152,139.914886 146.472031,135.957489 149.550095,131.829605 
	C156.200699,122.910622 164.711426,120.633858 175.748260,120.739723 
	C233.738205,121.295937 291.736328,120.998695 349.731628,121.000977 
	C363.195770,121.001503 375.000000,132.879501 375.000000,146.414246 
	C375.000000,213.908768 374.942352,281.403442 375.112610,348.897522 
	C375.125793,354.133179 372.916473,357.722229 370.014862,361.587158 
	C363.717590,369.975189 355.861877,372.567688 345.261627,372.275238 
	C316.286041,371.475800 287.273712,371.941162 258.276428,372.044983 
	C251.738846,372.068420 245.205048,372.709503 238.664993,372.936951 
	C237.605301,372.973816 236.522034,372.333130 235.031876,372.024506 
z"/>
<path fill="#000000" opacity="1.000000" stroke="none" 
	d="
M812.171936,224.332092 
	C809.510620,225.739899 807.098999,227.849426 804.680969,227.856750 
	C744.360474,228.039261 684.039307,227.999985 623.358398,227.999985 
	C623.358398,192.745483 623.358398,156.565720 623.358398,120.968689 
	C637.272156,120.968689 651.128784,121.037079 664.984253,120.939369 
	C671.748108,120.891678 678.508728,120.457558 685.273132,120.359138 
	C687.636597,120.324760 690.006836,120.967957 692.374390,120.970711 
	C728.526733,121.012810 764.680664,121.185043 800.830383,120.872551 
	C810.103699,120.792381 821.336060,130.970840 823.456238,136.976242 
	C823.720398,137.724396 823.966125,138.527573 823.978577,139.309113 
	C824.337952,161.885590 824.797058,184.462357 824.829834,207.039673 
	C824.833679,209.768814 822.946167,212.841843 821.155334,215.150497 
	C818.623962,218.413879 815.365967,221.113663 812.171936,224.332092 
z"/>
<path fill="#000000" opacity="1.000000" stroke="none" 
	d="
M2141.037598,599.000000 
	C2153.195557,599.000000 2164.860107,598.914551 2176.522461,599.046387 
	C2180.606201,599.092529 2184.712158,599.478210 2188.757324,600.061462 
	C2193.371826,600.726807 2197.920654,607.141602 2197.918945,613.569641 
	C2197.917236,621.804993 2197.653809,630.070129 2196.890625,638.265381 
	C2196.358154,643.983032 2193.503662,648.361633 2186.085449,648.130615 
	C2178.039551,647.880066 2169.963379,648.877930 2161.897705,648.932251 
	C2141.781250,649.067810 2121.662842,648.976868 2101.273193,648.976868 
	C2101.273193,632.353149 2101.273193,615.950500 2101.273193,599.000000 
	C2114.340820,599.000000 2127.442383,599.000000 2141.037598,599.000000 
z"/>
<path fill="#000000" opacity="1.000000" stroke="none" 
	d="
M2101.000000,541.247559 
	C2101.453125,537.717834 2101.906006,534.664001 2102.343506,531.714355 
	C2110.173340,531.714355 2118.204102,531.679871 2126.234375,531.726562 
	C2131.527588,531.757263 2136.819824,531.968445 2142.113037,531.987061 
	C2153.924561,532.028503 2165.737061,531.904907 2177.546875,532.046997 
	C2182.249023,532.103516 2186.967041,533.390137 2188.800781,538.128052 
	C2190.048340,541.351440 2189.980469,545.213440 2189.930664,548.781860 
	C2189.836670,555.534058 2189.455566,562.289673 2188.956543,569.026306 
	C2188.602539,573.811218 2183.404297,577.922363 2177.267578,577.950928 
	C2152.075684,578.068359 2126.883057,578.000000 2101.000000,578.000000 
	C2101.000000,566.511658 2101.000000,554.117615 2101.000000,541.247559 
z"/>
<path fill="#000000" opacity="1.000000" stroke="none" 
	d="
M1918.000000,626.969421 
	C1918.000000,599.143738 1917.997070,571.813049 1918.002075,544.482300 
	C1918.003174,538.524597 1925.608521,531.003906 1931.625488,531.001648 
	C1945.457520,530.996521 1959.291138,530.869873 1973.121094,531.037109 
	C1986.530762,531.199219 1999.939453,531.588989 2013.343506,532.030884 
	C2020.795654,532.276550 2024.841187,536.725464 2025.026978,544.082642 
	C2025.244507,552.688965 2025.980225,561.291809 2025.931030,569.893066 
	C2025.843994,585.102844 2025.279541,600.309204 2025.022705,615.518860 
	C2024.893188,623.182617 2025.006348,630.850342 2024.997803,638.516296 
	C2024.991333,644.326233 2021.401855,647.995117 2015.693237,647.996643 
	C1987.695923,648.004028 1959.698486,647.958984 1931.701294,648.020935 
	C1921.051880,648.044495 1919.007812,643.354736 1918.037720,634.459717 
	C1917.786255,632.153992 1918.000000,629.797485 1918.000000,626.969421 
z"/>
<path fill="#000000" opacity="1.000000" stroke="none" 
	d="
M2311.245361,531.000000 
	C2319.545898,531.000000 2327.375244,530.872559 2335.198486,531.032288 
	C2344.945557,531.231140 2354.690186,531.606018 2364.430420,532.025940 
	C2369.308105,532.236145 2372.147705,535.628723 2373.702148,539.609741 
	C2374.845947,542.539856 2374.939941,546.004944 2374.949707,549.233337 
	C2375.036133,578.041870 2374.759277,606.854126 2375.160400,635.657288 
	C2375.267334,643.353394 2370.273682,647.830322 2363.126221,647.893860 
	C2334.319580,648.150085 2305.505127,648.223022 2276.707275,647.659180 
	C2273.784668,647.601929 2270.348389,643.203979 2268.288574,640.071960 
	C2266.852051,637.887329 2267.055420,634.424438 2267.047363,631.531128 
	C2266.968506,603.555176 2266.969482,575.578857 2267.045410,547.602905 
	C2267.053467,544.707764 2267.222412,541.651123 2268.152588,538.958252 
	C2269.545410,534.925964 2272.256836,532.073242 2277.110840,531.961121 
	C2285.194092,531.774536 2293.270264,531.308167 2301.351807,531.029785 
	C2304.488525,530.921753 2307.631348,531.004272 2311.245361,531.000000 
z"/>
<path fill="#000000" opacity="1.000000" stroke="none" 
	d="
M1854.000000,560.042603 
	C1854.000000,563.196350 1854.000244,565.862061 1853.999878,568.527710 
	C1853.998657,575.273621 1847.544678,581.960144 1840.725464,581.975830 
	C1815.068481,582.034973 1789.411255,581.998901 1763.754150,581.985596 
	C1763.294922,581.985352 1762.835693,581.824707 1762.197876,581.705505 
	C1762.197876,564.868225 1762.197876,548.134216 1762.197876,531.000000 
	C1775.838257,531.000000 1789.288818,530.869812 1802.735718,531.036377 
	C1816.318604,531.204529 1829.900269,531.590759 1843.477539,532.034302 
	C1849.745850,532.238953 1853.970703,536.847412 1853.995361,543.091614 
	C1854.017090,548.579163 1854.000000,554.066833 1854.000000,560.042603 
z"/>
</svg>