<svg version="1.1" id="Layer_1" xmlns="http://www.w3.org/2000/svg" xmlns:xlink="http://www.w3.org/1999/xlink" x="0px" y="0px"
	 width="100%" viewBox="0 0 1621 1621" enable-background="new 0 0 1621 1621" xml:space="preserve">
<path fill="#000000" opacity="1.000000" stroke="none" 
	d="
M1622.000000,621.000000 
	C1622.000000,954.999939 1622.000000,1288.499878 1622.000000,1621.999756 
	C1081.666870,1621.999878 541.333862,1621.999878 1.000586,1622.000000 
	C1.000391,1081.667114 1.000391,541.334167 1.000195,1.000949 
	C541.332764,1.000632 1081.665527,1.000632 1621.999146,1.000316 
	C1622.000000,207.500000 1622.000000,414.000000 1622.000000,621.000000 
M1505.037231,1015.679077 
	C1507.280273,1008.991821 1509.830322,1002.388977 1511.698975,995.598755 
	C1515.023193,983.519043 1518.154297,971.376282 1520.958984,959.166382 
	C1523.883301,946.436401 1526.559204,933.638611 1528.914551,920.791809 
	C1531.223511,908.197632 1533.236084,895.536865 1534.922607,882.844666 
	C1536.299927,872.478821 1537.090698,862.031067 1537.987793,851.606384 
	C1539.393188,835.274231 1541.119507,818.951416 1541.864258,802.586182 
	C1542.515137,788.283020 1542.112305,773.925598 1541.955688,759.594543 
	C1541.869141,751.672974 1541.687500,743.721619 1540.920044,735.844971 
	C1539.528564,721.565979 1537.844360,707.309204 1535.950928,693.087158 
	C1534.153198,679.584045 1532.393433,666.046753 1529.776245,652.689148 
	C1526.651123,636.739136 1523.244873,620.792542 1518.860474,605.152832 
	C1511.894043,580.302063 1505.456421,555.147583 1496.139282,531.152893 
	C1485.769165,504.446625 1472.993896,478.611572 1460.188354,452.934540 
	C1450.803345,434.116516 1440.446411,415.675110 1429.118286,397.964050 
	C1417.464600,379.743835 1404.586548,362.242950 1391.354126,345.115021 
	C1379.373901,329.607910 1366.978516,314.266022 1353.348999,300.227020 
	C1335.269043,281.603821 1316.221191,263.856903 1296.807007,246.614197 
	C1283.340820,234.654327 1269.091919,223.399261 1254.250244,213.200821 
	C1221.626221,190.783203 1188.278687,169.422180 1151.607056,153.984146 
	C1131.236206,145.408417 1110.995728,136.335068 1090.099731,129.244888 
	C1066.884399,121.367729 1043.100586,115.065384 1019.351562,108.896927 
	C1003.759827,104.847191 987.858765,101.853821 971.968567,99.132835 
	C960.255127,97.127090 948.354431,96.115837 936.502930,95.039116 
	C919.680786,93.510811 902.846313,91.684883 885.981445,91.182037 
	C869.254395,90.683311 852.477722,91.504387 835.733337,92.062874 
	C826.219360,92.380219 816.691833,93.018272 807.231995,94.067932 
	C791.545654,95.808495 775.859375,97.677208 760.265564,100.089378 
	C745.258423,102.410797 730.125488,104.569717 715.480408,108.437759 
	C689.437561,115.316147 663.460144,122.658546 637.953552,131.280701 
	C618.568848,137.833405 599.766357,146.247192 581.064514,154.634766 
	C567.601685,160.672684 554.561157,167.724304 541.642456,174.883667 
	C527.730469,182.593521 513.957092,190.603775 500.522156,199.112946 
	C477.641785,213.604507 455.623749,229.341751 435.257660,247.264343 
	C420.213379,260.503601 404.792419,273.369324 390.453583,287.339874 
	C376.874817,300.569885 364.301514,314.856018 351.637787,328.992828 
	C342.595123,339.087311 333.502930,349.244843 325.558960,360.191498 
	C313.063080,377.410706 301.278870,395.163116 289.620697,412.969543 
	C271.709442,440.326691 256.590302,469.202606 243.337494,499.104980 
	C232.538010,523.471924 223.271301,548.353577 215.544373,573.857849 
	C207.125351,601.646545 199.917694,629.690796 196.008850,658.501099 
	C193.580551,676.398926 190.806976,694.273010 189.159973,712.246765 
	C187.730408,727.847839 187.406784,743.568970 187.096558,759.246948 
	C186.907089,768.822144 187.571976,778.420532 188.023911,788.000488 
	C188.590454,800.009033 188.979507,812.041809 190.079895,824.005798 
	C191.768341,842.363525 193.582214,860.729614 196.135376,878.981384 
	C198.034073,892.554565 200.864838,906.024597 203.862701,919.410156 
	C207.939987,937.615540 212.630417,955.682983 216.916809,973.842834 
	C217.758957,977.410828 217.045105,980.823181 213.490524,982.867126 
	C193.828476,994.173096 175.423935,1007.276489 157.868668,1021.608154 
	C143.606125,1033.251465 128.992371,1044.488770 115.119781,1056.577881 
	C104.251900,1066.048462 94.099228,1076.369385 83.976562,1086.654785 
	C77.652885,1093.080078 71.617218,1099.862671 66.084259,1106.976562 
	C55.662754,1120.375732 47.430813,1135.080811 41.995842,1151.232544 
	C38.109299,1162.782593 36.059715,1174.442139 39.918472,1186.517090 
	C45.455296,1203.842773 57.036423,1216.310059 72.537903,1224.675903 
	C97.357140,1238.070190 124.604317,1242.666748 152.469162,1243.938721 
	C161.117477,1244.333374 169.799164,1244.031982 178.465317,1243.993896 
	C203.419830,1243.884155 228.392654,1244.712646 253.233673,1241.069580 
	C269.341003,1238.707397 285.560547,1237.121094 301.700745,1234.969238 
	C318.117188,1232.780640 334.486938,1230.240234 350.908844,1228.096558 
	C352.889008,1227.838135 355.628418,1228.477539 357.044342,1229.767334 
	C360.802216,1233.190552 363.822479,1237.412231 367.499695,1240.937134 
	C388.298401,1260.874023 409.076691,1280.835693 430.131805,1300.500000 
	C439.338348,1309.098511 448.765350,1317.572021 458.833069,1325.113403 
	C477.062195,1338.768066 495.345886,1352.466431 514.530212,1364.698486 
	C536.877380,1378.947144 559.901428,1392.222046 583.216125,1404.839478 
	C604.369751,1416.287476 626.546265,1425.715332 649.489502,1433.179932 
	C670.670593,1440.071045 691.585876,1447.916260 713.044006,1453.784302 
	C740.468750,1461.283813 768.330078,1467.184326 796.718811,1470.008179 
	C813.966003,1471.723755 831.211365,1474.565430 848.478271,1474.730591 
	C879.138855,1475.024048 909.832642,1474.086548 940.477356,1472.816528 
	C954.930603,1472.217529 969.406799,1470.265991 983.684692,1467.827271 
	C1001.317017,1464.815674 1018.839722,1461.023926 1036.255493,1456.914917 
	C1063.920288,1450.387817 1090.909180,1441.570068 1117.360962,1431.180542 
	C1142.778198,1421.197266 1167.750977,1410.175415 1191.557495,1396.749023 
	C1207.381348,1387.824707 1223.186157,1378.786499 1238.385864,1368.859619 
	C1252.317993,1359.760498 1265.831299,1349.903564 1278.798096,1339.471802 
	C1295.495972,1326.038696 1312.007812,1312.275146 1327.591309,1297.584351 
	C1342.274292,1283.742554 1355.816284,1268.667847 1369.534424,1253.834229 
	C1377.524170,1245.194824 1385.510132,1236.422485 1392.376587,1226.901245 
	C1405.865967,1208.196533 1418.720947,1189.026978 1431.565552,1169.866577 
	C1447.444458,1146.179932 1460.998779,1121.189697 1473.029785,1095.327637 
	C1485.009644,1069.575439 1496.075684,1043.478882 1505.037231,1015.679077 
z"/>
<path fill="#FFFFFF" opacity="1.000000" stroke="none" 
	d="
M1505.018555,1016.089539 
	C1496.075684,1043.478882 1485.009644,1069.575439 1473.029785,1095.327637 
	C1460.998779,1121.189697 1447.444458,1146.179932 1431.565552,1169.866577 
	C1418.720947,1189.026978 1405.865967,1208.196533 1392.376587,1226.901245 
	C1385.510132,1236.422485 1377.524170,1245.194824 1369.534424,1253.834229 
	C1355.816284,1268.667847 1342.274292,1283.742554 1327.591309,1297.584351 
	C1312.007812,1312.275146 1295.495972,1326.038696 1278.798096,1339.471802 
	C1265.831299,1349.903564 1252.317993,1359.760498 1238.385864,1368.859619 
	C1223.186157,1378.786499 1207.381348,1387.824707 1191.557495,1396.749023 
	C1167.750977,1410.175415 1142.778198,1421.197266 1117.360962,1431.180542 
	C1090.909180,1441.570068 1063.920288,1450.387817 1036.255493,1456.914917 
	C1018.839722,1461.023926 1001.317017,1464.815674 983.684692,1467.827271 
	C969.406799,1470.265991 954.930603,1472.217529 940.477356,1472.816528 
	C909.832642,1474.086548 879.138855,1475.024048 848.478271,1474.730591 
	C831.211365,1474.565430 813.966003,1471.723755 796.718811,1470.008179 
	C768.330078,1467.184326 740.468750,1461.283813 713.044006,1453.784302 
	C691.585876,1447.916260 670.670593,1440.071045 649.489502,1433.179932 
	C626.546265,1425.715332 604.369751,1416.287476 583.216125,1404.839478 
	C559.901428,1392.222046 536.877380,1378.947144 514.530212,1364.698486 
	C495.345886,1352.466431 477.062195,1338.768066 458.833069,1325.113403 
	C448.765350,1317.572021 439.338348,1309.098511 430.131805,1300.500000 
	C409.076691,1280.835693 388.298401,1260.874023 367.499695,1240.937134 
	C363.822479,1237.412231 360.802216,1233.190552 357.044342,1229.767334 
	C355.628418,1228.477539 352.889008,1227.838135 350.908844,1228.096558 
	C334.486938,1230.240234 318.117188,1232.780640 301.700745,1234.969238 
	C285.560547,1237.121094 269.341003,1238.707397 253.233673,1241.069580 
	C228.392654,1244.712646 203.419830,1243.884155 178.465317,1243.993896 
	C169.799164,1244.031982 161.117477,1244.333374 152.469162,1243.938721 
	C124.604317,1242.666748 97.357140,1238.070190 72.537903,1224.675903 
	C57.036423,1216.310059 45.455296,1203.842773 39.918472,1186.517090 
	C36.059715,1174.442139 38.109299,1162.782593 41.995842,1151.232544 
	C47.430813,1135.080811 55.662754,1120.375732 66.084259,1106.976562 
	C71.617218,1099.862671 77.652885,1093.080078 83.976562,1086.654785 
	C94.099228,1076.369385 104.251900,1066.048462 115.119781,1056.577881 
	C128.992371,1044.488770 143.606125,1033.251465 157.868668,1021.608154 
	C175.423935,1007.276489 193.828476,994.173096 213.490524,982.867126 
	C217.045105,980.823181 217.758957,977.410828 216.916809,973.842834 
	C212.630417,955.682983 207.939987,937.615540 203.862701,919.410156 
	C200.864838,906.024597 198.034073,892.554565 196.135376,878.981384 
	C193.582214,860.729614 191.768341,842.363525 190.079895,824.005798 
	C188.979507,812.041809 188.590454,800.009033 188.023911,788.000488 
	C187.571976,778.420532 186.907089,768.822144 187.096558,759.246948 
	C187.406784,743.568970 187.730408,727.847839 189.159973,712.246765 
	C190.806976,694.273010 193.580551,676.398926 196.008850,658.501099 
	C199.917694,629.690796 207.125351,601.646545 215.544373,573.857849 
	C223.271301,548.353577 232.538010,523.471924 243.337494,499.104980 
	C256.590302,469.202606 271.709442,440.326691 289.620697,412.969543 
	C301.278870,395.163116 313.063080,377.410706 325.558960,360.191498 
	C333.502930,349.244843 342.595123,339.087311 351.637787,328.992828 
	C364.301514,314.856018 376.874817,300.569885 390.453583,287.339874 
	C404.792419,273.369324 420.213379,260.503601 435.257660,247.264343 
	C455.623749,229.341751 477.641785,213.604507 500.522156,199.112946 
	C513.957092,190.603775 527.730469,182.593521 541.642456,174.883667 
	C554.561157,167.724304 567.601685,160.672684 581.064514,154.634766 
	C599.766357,146.247192 618.568848,137.833405 637.953552,131.280701 
	C663.460144,122.658546 689.437561,115.316147 715.480408,108.437759 
	C730.125488,104.569717 745.258423,102.410797 760.265564,100.089378 
	C775.859375,97.677208 791.545654,95.808495 807.231995,94.067932 
	C816.691833,93.018272 826.219360,92.380219 835.733337,92.062874 
	C852.477722,91.504387 869.254395,90.683311 885.981445,91.182037 
	C902.846313,91.684883 919.680786,93.510811 936.502930,95.039116 
	C948.354431,96.115837 960.255127,97.127090 971.968567,99.132835 
	C987.858765,101.853821 1003.759827,104.847191 1019.351562,108.896927 
	C1043.100586,115.065384 1066.884399,121.367729 1090.099731,129.244888 
	C1110.995728,136.335068 1131.236206,145.408417 1151.607056,153.984146 
	C1188.278687,169.422180 1221.626221,190.783203 1254.250244,213.200821 
	C1269.091919,223.399261 1283.340820,234.654327 1296.807007,246.614197 
	C1316.221191,263.856903 1335.269043,281.603821 1353.348999,300.227020 
	C1366.978516,314.266022 1379.373901,329.607910 1391.354126,345.115021 
	C1404.586548,362.242950 1417.464600,379.743835 1429.118286,397.964050 
	C1440.446411,415.675110 1450.803345,434.116516 1460.188354,452.934540 
	C1472.993896,478.611572 1485.769165,504.446625 1496.139282,531.152893 
	C1505.456421,555.147583 1511.894043,580.302063 1518.860474,605.152832 
	C1523.244873,620.792542 1526.651123,636.739136 1529.776245,652.689148 
	C1532.393433,666.046753 1534.153198,679.584045 1535.950928,693.087158 
	C1537.844360,707.309204 1539.528564,721.565979 1540.920044,735.844971 
	C1541.687500,743.721619 1541.869141,751.672974 1541.955688,759.594543 
	C1542.112305,773.925598 1542.515137,788.283020 1541.864258,802.586182 
	C1541.119507,818.951416 1539.393188,835.274231 1537.987793,851.606384 
	C1537.090698,862.031067 1536.299927,872.478821 1534.922607,882.844666 
	C1533.236084,895.536865 1531.223511,908.197632 1528.914551,920.791809 
	C1526.559204,933.638611 1523.883301,946.436401 1520.958984,959.166382 
	C1518.154297,971.376282 1515.023193,983.519043 1511.698975,995.598755 
	C1509.830322,1002.388977 1507.280273,1008.991821 1505.018555,1016.089539 
M1535.000000,780.610107 
	C1534.333374,768.944214 1533.796143,757.268982 1532.963745,745.614990 
	C1532.123535,733.853516 1531.591675,722.022339 1529.838989,710.385254 
	C1527.433838,694.416748 1523.836182,678.632019 1521.054321,662.715271 
	C1516.419067,636.194397 1508.827515,610.518372 1500.107788,585.087585 
	C1490.053833,555.764771 1478.713257,527.011047 1463.902588,499.754883 
	C1455.538086,484.361664 1446.829102,469.126282 1437.598877,454.239258 
	C1422.023315,429.118378 1404.105469,405.693817 1384.853271,383.254028 
	C1370.058716,366.010010 1355.465820,348.625854 1338.224731,333.683502 
	C1326.436768,323.467346 1315.157227,312.643646 1303.093994,302.771393 
	C1288.907349,291.161377 1274.240723,280.124359 1259.563843,269.130371 
	C1236.960571,252.198914 1212.804565,237.666580 1187.853149,224.533707 
	C1173.650513,217.058334 1159.034668,210.310913 1144.330322,203.861893 
	C1129.081421,197.174133 1113.810547,190.278168 1097.994995,185.199356 
	C1072.346313,176.962860 1046.401733,169.515884 1020.282349,162.922501 
	C1001.835266,158.265823 982.966736,155.098862 964.147888,152.150681 
	C948.844849,149.753296 933.364624,148.299225 917.910522,147.107346 
	C902.944031,145.953079 887.915344,145.487625 872.904236,145.084427 
	C866.498962,144.912384 860.070557,145.705780 853.649597,145.990204 
	C845.232788,146.363007 836.790588,146.388840 828.399353,147.062469 
	C814.714844,148.161041 801.003357,149.232773 787.412415,151.106827 
	C771.546387,153.294586 755.653564,155.684723 740.032959,159.158585 
	C719.027283,163.830002 698.133240,169.140610 677.441650,175.053040 
	C650.747437,182.680634 624.959900,192.833267 599.763184,204.575592 
	C573.052307,217.023560 546.706787,230.128357 522.164246,246.485397 
	C506.706177,256.787842 491.476471,267.505371 476.782898,278.862854 
	C460.914032,291.128754 445.475677,304.002533 430.447540,317.287598 
	C420.077087,326.455139 410.588806,336.642731 400.953735,346.613556 
	C392.007507,355.871552 382.918701,365.058289 374.737732,374.973602 
	C362.756134,389.495331 351.169128,404.376587 340.062469,419.578400 
	C322.950043,443.000305 307.482452,467.528259 294.063965,493.259857 
	C286.937683,506.925354 280.247925,520.854736 274.112366,534.991089 
	C266.973236,551.439697 259.926208,567.997131 254.165558,584.957825 
	C246.846909,606.505554 240.439941,628.391113 234.449982,650.351990 
	C230.553848,664.636292 227.667801,679.238953 225.130814,693.838257 
	C222.848648,706.971313 221.427261,720.270142 220.048477,733.539734 
	C218.457489,748.851746 216.400604,764.201233 216.226074,779.553589 
	C215.987396,800.546570 217.120392,821.567383 218.089432,842.556641 
	C218.571503,852.997803 219.633484,863.446350 221.080368,873.801086 
	C223.434906,890.651672 225.574585,907.589233 229.162827,924.196716 
	C234.115036,947.116943 239.580872,969.986145 246.234177,992.460510 
	C251.771469,1011.165222 259.140442,1029.343994 266.057312,1047.619873 
	C274.255920,1069.282349 284.595795,1089.937988 296.358154,1109.891479 
	C299.849121,1115.813477 303.054382,1121.903931 306.798279,1128.651978 
	C302.555023,1129.892700 298.759949,1130.572266 295.348816,1132.105957 
	C290.866486,1134.121094 288.807220,1132.062866 286.827911,1128.499512 
	C281.207642,1118.381714 275.029358,1108.554321 269.800201,1098.242798 
	C260.578369,1080.058105 251.548813,1061.757690 243.109070,1043.200806 
	C237.213577,1030.238159 232.317993,1016.812195 227.229019,1003.496399 
	C225.704315,999.506897 223.590958,999.084961 220.259659,1000.941833 
	C219.135681,1001.568237 217.889908,1001.997192 216.824188,1002.703918 
	C207.155090,1009.116272 197.074951,1015.009155 187.959900,1022.134827 
	C171.608582,1034.917603 155.470444,1048.030273 139.962906,1061.814819 
	C129.701294,1070.936279 120.402893,1081.207153 111.202721,1091.439697 
	C100.374084,1103.483276 90.930443,1116.560791 84.709663,1131.715210 
	C81.169266,1140.340088 79.495682,1149.194946 81.890419,1158.326050 
	C85.826225,1173.333130 97.511200,1180.386597 110.942810,1184.941650 
	C133.936295,1192.739380 157.889908,1195.026489 181.971680,1195.901123 
	C190.034332,1196.193848 198.137177,1195.282593 206.224670,1195.012207 
	C217.641479,1194.630493 229.090424,1194.728638 240.471130,1193.885864 
	C251.343628,1193.080566 262.151093,1191.370483 272.978424,1189.989624 
	C283.464722,1188.652100 293.977081,1187.457764 304.409424,1185.775391 
	C314.612244,1184.130127 324.747070,1182.039673 334.878784,1179.982056 
	C353.684296,1176.163086 372.532349,1172.517334 391.237030,1168.248779 
	C407.370331,1164.566895 423.389282,1160.339600 439.351227,1155.961182 
	C465.037445,1148.915527 490.953430,1142.503784 516.200378,1134.104858 
	C561.346680,1119.086060 606.124695,1102.948120 650.936646,1086.942017 
	C668.274109,1080.749268 685.357727,1073.821167 702.424194,1066.900757 
	C719.052979,1060.157837 735.493958,1052.953125 752.051208,1046.032227 
	C767.567993,1039.546143 783.220398,1033.376465 798.645752,1026.682007 
	C815.268860,1019.467712 831.706726,1011.825806 848.209045,1004.334412 
	C873.330872,992.930359 898.471069,981.565918 923.532288,970.030029 
	C930.970215,966.606262 938.210510,962.741516 945.455627,958.916565 
	C948.127869,957.505798 949.627014,957.567932 951.295288,960.538147 
	C956.489441,969.785828 961.935608,978.898865 967.530457,987.911194 
	C969.888000,991.708923 969.072876,993.978943 965.337280,995.995850 
	C947.518799,1005.616150 930.009399,1015.848083 911.903748,1024.888672 
	C879.693970,1040.971802 847.216187,1056.527100 814.686523,1071.957520 
	C797.156433,1080.272949 779.428406,1088.210449 761.535095,1095.711182 
	C737.163025,1105.927856 712.649170,1115.825928 688.009949,1125.380249 
	C660.092102,1136.205933 632.098450,1146.865723 603.892761,1156.909668 
	C581.702332,1164.811523 559.194519,1171.841797 536.726196,1178.937988 
	C516.696045,1185.264038 496.634155,1191.538208 476.392090,1197.132812 
	C449.915131,1204.450684 423.248383,1211.082153 396.660706,1217.998901 
	C390.069855,1219.713379 383.469208,1221.390137 376.018829,1223.303711 
	C380.229828,1228.342163 383.537231,1232.786499 387.335968,1236.761230 
	C404.898743,1255.137817 423.327179,1272.580811 443.541351,1288.064697 
	C456.946259,1298.332764 469.889069,1309.266479 483.790466,1318.806763 
	C498.483429,1328.890015 513.655212,1338.446533 529.360901,1346.842896 
	C552.439331,1359.180664 575.744019,1371.288208 599.747925,1381.651123 
	C627.550049,1393.653809 656.324951,1403.343872 685.871582,1410.387695 
	C704.037292,1414.718384 722.173584,1419.256104 740.492615,1422.832031 
	C753.238159,1425.319824 766.240662,1426.648438 779.184631,1427.923462 
	C795.992004,1429.579102 812.849365,1431.676025 829.695679,1431.773438 
	C857.860535,1431.936523 886.036865,1430.776367 914.201294,1429.937256 
	C923.380859,1429.663696 932.606567,1429.139771 941.690247,1427.867310 
	C955.145996,1425.982544 968.547363,1423.595947 981.874817,1420.936646 
	C1000.047791,1417.310425 1018.350220,1414.030884 1036.192505,1409.129517 
	C1057.034302,1403.404053 1077.644531,1396.656616 1097.973999,1389.298950 
	C1115.881470,1382.817993 1133.451294,1375.301514 1150.815796,1367.457642 
	C1163.705444,1361.635254 1176.192139,1354.852051 1188.559692,1347.960571 
	C1203.154297,1339.828003 1217.800171,1331.685181 1231.745728,1322.515503 
	C1249.284424,1310.982910 1266.527222,1298.915039 1283.173462,1286.134766 
	C1299.604736,1273.519409 1316.033691,1260.651855 1330.834351,1246.223633 
	C1350.446533,1227.105225 1368.884644,1206.724365 1387.037231,1186.187622 
	C1398.417114,1173.313232 1408.664551,1159.390259 1418.853027,1145.521240 
	C1435.555664,1122.784546 1450.631104,1098.923340 1463.428955,1073.801636 
	C1473.987061,1053.076050 1484.205566,1032.044556 1492.590576,1010.380737 
	C1501.599854,987.103699 1509.439087,963.225891 1515.667480,939.063416 
	C1521.541870,916.274719 1525.246704,892.864624 1528.792358,869.558533 
	C1531.445190,852.121521 1532.610962,834.435913 1533.900513,816.821594 
	C1534.758057,805.108154 1534.666626,793.325378 1535.000000,780.610107 
z"/>
<path fill="#000000" opacity="1.000000" stroke="none" 
	d="
M1535.000000,781.091858 
	C1534.666626,793.325378 1534.758057,805.108154 1533.900513,816.821594 
	C1532.610962,834.435913 1531.445190,852.121521 1528.792358,869.558533 
	C1525.246704,892.864624 1521.541870,916.274719 1515.667480,939.063416 
	C1509.439087,963.225891 1501.599854,987.103699 1492.590576,1010.380737 
	C1484.205566,1032.044556 1473.987061,1053.076050 1463.428955,1073.801636 
	C1450.631104,1098.923340 1435.555664,1122.784546 1418.853027,1145.521240 
	C1408.664551,1159.390259 1398.417114,1173.313232 1387.037231,1186.187622 
	C1368.884644,1206.724365 1350.446533,1227.105225 1330.834351,1246.223633 
	C1316.033691,1260.651855 1299.604736,1273.519409 1283.173462,1286.134766 
	C1266.527222,1298.915039 1249.284424,1310.982910 1231.745728,1322.515503 
	C1217.800171,1331.685181 1203.154297,1339.828003 1188.559692,1347.960571 
	C1176.192139,1354.852051 1163.705444,1361.635254 1150.815796,1367.457642 
	C1133.451294,1375.301514 1115.881470,1382.817993 1097.973999,1389.298950 
	C1077.644531,1396.656616 1057.034302,1403.404053 1036.192505,1409.129517 
	C1018.350220,1414.030884 1000.047791,1417.310425 981.874817,1420.936646 
	C968.547363,1423.595947 955.145996,1425.982544 941.690247,1427.867310 
	C932.606567,1429.139771 923.380859,1429.663696 914.201294,1429.937256 
	C886.036865,1430.776367 857.860535,1431.936523 829.695679,1431.773438 
	C812.849365,1431.676025 795.992004,1429.579102 779.184631,1427.923462 
	C766.240662,1426.648438 753.238159,1425.319824 740.492615,1422.832031 
	C722.173584,1419.256104 704.037292,1414.718384 685.871582,1410.387695 
	C656.324951,1403.343872 627.550049,1393.653809 599.747925,1381.651123 
	C575.744019,1371.288208 552.439331,1359.180664 529.360901,1346.842896 
	C513.655212,1338.446533 498.483429,1328.890015 483.790466,1318.806763 
	C469.889069,1309.266479 456.946259,1298.332764 443.541351,1288.064697 
	C423.327179,1272.580811 404.898743,1255.137817 387.335968,1236.761230 
	C383.537231,1232.786499 380.229828,1228.342163 376.018829,1223.303711 
	C383.469208,1221.390137 390.069855,1219.713379 396.660706,1217.998901 
	C423.248383,1211.082153 449.915131,1204.450684 476.392090,1197.132812 
	C496.634155,1191.538208 516.696045,1185.264038 536.726196,1178.937988 
	C559.194519,1171.841797 581.702332,1164.811523 603.892761,1156.909668 
	C632.098450,1146.865723 660.092102,1136.205933 688.009949,1125.380249 
	C712.649170,1115.825928 737.163025,1105.927856 761.535095,1095.711182 
	C779.428406,1088.210449 797.156433,1080.272949 814.686523,1071.957520 
	C847.216187,1056.527100 879.693970,1040.971802 911.903748,1024.888672 
	C930.009399,1015.848083 947.518799,1005.616150 965.337280,995.995850 
	C969.072876,993.978943 969.888000,991.708923 967.530457,987.911194 
	C961.935608,978.898865 956.489441,969.785828 951.295288,960.538147 
	C949.627014,957.567932 948.127869,957.505798 945.455627,958.916565 
	C938.210510,962.741516 930.970215,966.606262 923.532288,970.030029 
	C898.471069,981.565918 873.330872,992.930359 848.209045,1004.334412 
	C831.706726,1011.825806 815.268860,1019.467712 798.645752,1026.682007 
	C783.220398,1033.376465 767.567993,1039.546143 752.051208,1046.032227 
	C735.493958,1052.953125 719.052979,1060.157837 702.424194,1066.900757 
	C685.357727,1073.821167 668.274109,1080.749268 650.936646,1086.942017 
	C606.124695,1102.948120 561.346680,1119.086060 516.200378,1134.104858 
	C490.953430,1142.503784 465.037445,1148.915527 439.351227,1155.961182 
	C423.389282,1160.339600 407.370331,1164.566895 391.237030,1168.248779 
	C372.532349,1172.517334 353.684296,1176.163086 334.878784,1179.982056 
	C324.747070,1182.039673 314.612244,1184.130127 304.409424,1185.775391 
	C293.977081,1187.457764 283.464722,1188.652100 272.978424,1189.989624 
	C262.151093,1191.370483 251.343628,1193.080566 240.471130,1193.885864 
	C229.090424,1194.728638 217.641479,1194.630493 206.224670,1195.012207 
	C198.137177,1195.282593 190.034332,1196.193848 181.971680,1195.901123 
	C157.889908,1195.026489 133.936295,1192.739380 110.942810,1184.941650 
	C97.511200,1180.386597 85.826225,1173.333130 81.890419,1158.326050 
	C79.495682,1149.194946 81.169266,1140.340088 84.709663,1131.715210 
	C90.930443,1116.560791 100.374084,1103.483276 111.202721,1091.439697 
	C120.402893,1081.207153 129.701294,1070.936279 139.962906,1061.814819 
	C155.470444,1048.030273 171.608582,1034.917603 187.959900,1022.134827 
	C197.074951,1015.009155 207.155090,1009.116272 216.824188,1002.703918 
	C217.889908,1001.997192 219.135681,1001.568237 220.259659,1000.941833 
	C223.590958,999.084961 225.704315,999.506897 227.229019,1003.496399 
	C232.317993,1016.812195 237.213577,1030.238159 243.109070,1043.200806 
	C251.548813,1061.757690 260.578369,1080.058105 269.800201,1098.242798 
	C275.029358,1108.554321 281.207642,1118.381714 286.827911,1128.499512 
	C288.807220,1132.062866 290.866486,1134.121094 295.348816,1132.105957 
	C298.759949,1130.572266 302.555023,1129.892700 306.798279,1128.651978 
	C303.054382,1121.903931 299.849121,1115.813477 296.358154,1109.891479 
	C284.595795,1089.937988 274.255920,1069.282349 266.057312,1047.619873 
	C259.140442,1029.343994 251.771469,1011.165222 246.234177,992.460510 
	C239.580872,969.986145 234.115036,947.116943 229.162827,924.196716 
	C225.574585,907.589233 223.434906,890.651672 221.080368,873.801086 
	C219.633484,863.446350 218.571503,852.997803 218.089432,842.556641 
	C217.120392,821.567383 215.987396,800.546570 216.226074,779.553589 
	C216.400604,764.201233 218.457489,748.851746 220.048477,733.539734 
	C221.427261,720.270142 222.848648,706.971313 225.130814,693.838257 
	C227.667801,679.238953 230.553848,664.636292 234.449982,650.351990 
	C240.439941,628.391113 246.846909,606.505554 254.165558,584.957825 
	C259.926208,567.997131 266.973236,551.439697 274.112366,534.991089 
	C280.247925,520.854736 286.937683,506.925354 294.063965,493.259857 
	C307.482452,467.528259 322.950043,443.000305 340.062469,419.578400 
	C351.169128,404.376587 362.756134,389.495331 374.737732,374.973602 
	C382.918701,365.058289 392.007507,355.871552 400.953735,346.613556 
	C410.588806,336.642731 420.077087,326.455139 430.447540,317.287598 
	C445.475677,304.002533 460.914032,291.128754 476.782898,278.862854 
	C491.476471,267.505371 506.706177,256.787842 522.164246,246.485397 
	C546.706787,230.128357 573.052307,217.023560 599.763184,204.575592 
	C624.959900,192.833267 650.747437,182.680634 677.441650,175.053040 
	C698.133240,169.140610 719.027283,163.830002 740.032959,159.158585 
	C755.653564,155.684723 771.546387,153.294586 787.412415,151.106827 
	C801.003357,149.232773 814.714844,148.161041 828.399353,147.062469 
	C836.790588,146.388840 845.232788,146.363007 853.649597,145.990204 
	C860.070557,145.705780 866.498962,144.912384 872.904236,145.084427 
	C887.915344,145.487625 902.944031,145.953079 917.910522,147.107346 
	C933.364624,148.299225 948.844849,149.753296 964.147888,152.150681 
	C982.966736,155.098862 1001.835266,158.265823 1020.282349,162.922501 
	C1046.401733,169.515884 1072.346313,176.962860 1097.994995,185.199356 
	C1113.810547,190.278168 1129.081421,197.174133 1144.330322,203.861893 
	C1159.034668,210.310913 1173.650513,217.058334 1187.853149,224.533707 
	C1212.804565,237.666580 1236.960571,252.198914 1259.563843,269.130371 
	C1274.240723,280.124359 1288.907349,291.161377 1303.093994,302.771393 
	C1315.157227,312.643646 1326.436768,323.467346 1338.224731,333.683502 
	C1355.465820,348.625854 1370.058716,366.010010 1384.853271,383.254028 
	C1404.105469,405.693817 1422.023315,429.118378 1437.598877,454.239258 
	C1446.829102,469.126282 1455.538086,484.361664 1463.902588,499.754883 
	C1478.713257,527.011047 1490.053833,555.764771 1500.107788,585.087585 
	C1508.827515,610.518372 1516.419067,636.194397 1521.054321,662.715271 
	C1523.836182,678.632019 1527.433838,694.416748 1529.838989,710.385254 
	C1531.591675,722.022339 1532.123535,733.853516 1532.963745,745.614990 
	C1533.796143,757.268982 1534.333374,768.944214 1535.000000,781.091858 
M1000.964539,931.597046 
	C1005.574219,938.477112 1010.347534,945.448486 1018.120667,948.914246 
	C1034.281128,956.119629 1051.580444,957.729614 1069.039185,957.896179 
	C1070.602173,957.911133 1072.693359,956.896606 1073.669312,955.668762 
	C1083.062256,943.852051 1092.144775,931.787659 1101.585327,920.010010 
	C1105.681641,914.899658 1109.336548,908.954895 1116.853271,908.026306 
	C1121.686035,907.429260 1126.561768,906.968384 1131.310547,905.946289 
	C1145.314331,902.932373 1159.076660,899.258118 1171.382935,891.389099 
	C1173.809326,889.837524 1177.148560,889.253479 1180.115845,889.085022 
	C1195.105835,888.233948 1210.130859,887.942383 1225.108032,886.929749 
	C1242.471802,885.755737 1258.702637,879.688904 1275.105957,874.450195 
	C1300.756226,866.258240 1326.372803,857.952515 1352.117310,850.066162 
	C1369.723145,844.672974 1387.995361,841.090271 1403.981323,831.405273 
	C1413.908325,825.391174 1422.233154,817.690247 1424.185669,805.356445 
	C1424.913696,800.757935 1425.212524,796.091553 1425.716797,791.365356 
	C1422.238281,789.769165 1421.146118,792.391907 1420.038940,794.748108 
	C1416.349121,802.601379 1412.093018,809.959656 1404.692505,815.052429 
	C1391.877930,823.870911 1377.539673,827.642273 1362.205688,827.970459 
	C1341.124756,828.421753 1320.035278,828.510559 1298.957153,829.050720 
	C1282.947754,829.460999 1266.937134,830.116638 1250.951416,831.069946 
	C1238.642212,831.803955 1226.370605,833.170532 1212.812134,834.367981 
	C1217.925537,829.003296 1222.420776,824.270325 1226.936401,819.557190 
	C1229.060303,817.340393 1230.795776,815.010559 1234.781494,816.807678 
	C1237.068604,817.839050 1240.201538,816.994629 1243.000000,816.994629 
	C1243.000000,814.970032 1242.893677,813.627991 1243.018433,812.307739 
	C1243.555542,806.623657 1241.250244,802.896057 1235.684082,801.269043 
	C1230.920898,799.876709 1226.253052,797.968323 1221.397705,797.143127 
	C1217.751465,796.523499 1213.526001,796.323364 1210.167969,797.573730 
	C1201.177612,800.921204 1192.488892,805.091492 1183.728027,809.040405 
	C1168.163452,816.055969 1152.924805,816.785095 1137.465576,808.224487 
	C1126.788940,802.312195 1117.397217,794.881897 1108.940796,786.311951 
	C1094.868164,772.050476 1081.320923,757.271851 1067.336548,742.921326 
	C1058.869019,734.232178 1048.675537,727.607849 1037.467163,723.353516 
	C1015.607483,715.056030 993.225464,708.136169 971.353394,699.869019 
	C951.885315,692.510498 932.346252,685.052612 913.705322,675.877502 
	C896.739868,667.527161 880.977356,656.744690 864.599548,647.179993 
	C860.559509,644.820557 856.188904,643.027344 850.939453,640.472107 
	C851.366455,653.655518 849.897461,665.106812 853.701050,676.380432 
	C861.087036,698.271912 875.516602,715.101196 893.405334,728.457031 
	C918.468872,747.169556 944.900940,764.037415 970.398254,782.185181 
	C986.248108,793.466125 1001.875977,805.145752 1016.814880,817.592896 
	C1029.243042,827.948059 1040.657104,839.544556 1052.244507,850.873230 
	C1057.149414,855.668579 1061.366089,861.170715 1065.859375,866.382629 
	C1067.688721,868.504700 1067.872437,870.531067 1065.056885,871.986389 
	C1056.628418,876.342957 1048.151489,880.606812 1039.743164,885.001648 
	C1024.794189,892.815186 1009.832214,900.606750 994.999207,908.635620 
	C992.283691,910.105469 990.786682,912.809082 992.626831,916.198547 
	C995.294922,921.113037 997.884155,926.070374 1000.964539,931.597046 
z"/>
<path fill="#FFFFFF" opacity="1.000000" stroke="none" 
	d="
M1000.735779,931.303223 
	C997.884155,926.070374 995.294922,921.113037 992.626831,916.198547 
	C990.786682,912.809082 992.283691,910.105469 994.999207,908.635620 
	C1009.832214,900.606750 1024.794189,892.815186 1039.743164,885.001648 
	C1048.151489,880.606812 1056.628418,876.342957 1065.056885,871.986389 
	C1067.872437,870.531067 1067.688721,868.504700 1065.859375,866.382629 
	C1061.366089,861.170715 1057.149414,855.668579 1052.244507,850.873230 
	C1040.657104,839.544556 1029.243042,827.948059 1016.814880,817.592896 
	C1001.875977,805.145752 986.248108,793.466125 970.398254,782.185181 
	C944.900940,764.037415 918.468872,747.169556 893.405334,728.457031 
	C875.516602,715.101196 861.087036,698.271912 853.701050,676.380432 
	C849.897461,665.106812 851.366455,653.655518 850.939453,640.472107 
	C856.188904,643.027344 860.559509,644.820557 864.599548,647.179993 
	C880.977356,656.744690 896.739868,667.527161 913.705322,675.877502 
	C932.346252,685.052612 951.885315,692.510498 971.353394,699.869019 
	C993.225464,708.136169 1015.607483,715.056030 1037.467163,723.353516 
	C1048.675537,727.607849 1058.869019,734.232178 1067.336548,742.921326 
	C1081.320923,757.271851 1094.868164,772.050476 1108.940796,786.311951 
	C1117.397217,794.881897 1126.788940,802.312195 1137.465576,808.224487 
	C1152.924805,816.785095 1168.163452,816.055969 1183.728027,809.040405 
	C1192.488892,805.091492 1201.177612,800.921204 1210.167969,797.573730 
	C1213.526001,796.323364 1217.751465,796.523499 1221.397705,797.143127 
	C1226.253052,797.968323 1230.920898,799.876709 1235.684082,801.269043 
	C1241.250244,802.896057 1243.555542,806.623657 1243.018433,812.307739 
	C1242.893677,813.627991 1243.000000,814.970032 1243.000000,816.994629 
	C1240.201538,816.994629 1237.068604,817.839050 1234.781494,816.807678 
	C1230.795776,815.010559 1229.060303,817.340393 1226.936401,819.557190 
	C1222.420776,824.270325 1217.925537,829.003296 1212.812134,834.367981 
	C1226.370605,833.170532 1238.642212,831.803955 1250.951416,831.069946 
	C1266.937134,830.116638 1282.947754,829.460999 1298.957153,829.050720 
	C1320.035278,828.510559 1341.124756,828.421753 1362.205688,827.970459 
	C1377.539673,827.642273 1391.877930,823.870911 1404.692505,815.052429 
	C1412.093018,809.959656 1416.349121,802.601379 1420.038940,794.748108 
	C1421.146118,792.391907 1422.238281,789.769165 1425.716797,791.365356 
	C1425.212524,796.091553 1424.913696,800.757935 1424.185669,805.356445 
	C1422.233154,817.690247 1413.908325,825.391174 1403.981323,831.405273 
	C1387.995361,841.090271 1369.723145,844.672974 1352.117310,850.066162 
	C1326.372803,857.952515 1300.756226,866.258240 1275.105957,874.450195 
	C1258.702637,879.688904 1242.471802,885.755737 1225.108032,886.929749 
	C1210.130859,887.942383 1195.105835,888.233948 1180.115845,889.085022 
	C1177.148560,889.253479 1173.809326,889.837524 1171.382935,891.389099 
	C1159.076660,899.258118 1145.314331,902.932373 1131.310547,905.946289 
	C1126.561768,906.968384 1121.686035,907.429260 1116.853271,908.026306 
	C1109.336548,908.954895 1105.681641,914.899658 1101.585327,920.010010 
	C1092.144775,931.787659 1083.062256,943.852051 1073.669312,955.668762 
	C1072.693359,956.896606 1070.602173,957.911133 1069.039185,957.896179 
	C1051.580444,957.729614 1034.281128,956.119629 1018.120667,948.914246 
	C1010.347534,945.448486 1005.574219,938.477112 1000.735779,931.303223 
z"/>
</svg>